<svg version="1.1" xmlns="http://www.w3.org/2000/svg" viewBox="0 0 1137.0891558497028 991.4376908097422">
  <!-- svg-source:excalidraw -->
  <defs>
    <style>
      @font-face {
        font-family: "Virgil";
        src: url("https://excalidraw.com/FG_Virgil.woff2");
      }
      @font-face {
        font-family: "Cascadia";
        src: url("https://excalidraw.com/Cascadia.woff2");
      }
    </style>
  </defs>
  <rect x="0" y="0" width="1137.0891558497028" height="991.4376908097422" fill="#ffffff"></rect><g transform="translate(19.733535766601335 10) rotate(0 60.5 13)"><text x="0" y="19" font-family="Virgil, Segoe UI Emoji" font-size="16px" fill="#000000" text-anchor="start" style="white-space: pre;" direction="ltr">A product page</text></g><g transform="translate(10.938902553804382 44.26662699381433) rotate(0 436.4000091552734 460.40003712971986)"><path d="M0.30060903877019884 -1.3010895237326623 C334.83086648814447 -2.9418730771824713, 665.2338030757023 -0.5912993943974372, 873.529529927671 1.4552701964974404 M-0.56031279489398 -0.4589223273098469 C312.89493223331743 -4.355654632277898, 626.9669260713433 -4.318753897376469, 873.1331311948597 -0.3079613335430622 M871.7415298208595 0.10211429744958878 C870.9669614657419 275.92617158086597, 868.6852621420877 552.8818710151612, 874.094136928022 921.9998583967483 M873.498087669164 0.506009804457426 C877.5048416663132 344.1630469190228, 877.7842422772369 688.8642605167425, 872.0011088378727 921.4409188064433 M872.6231900438667 919.5228133375442 C631.7403433118772 922.8589567020183, 389.9218749368213 920.4332455947643, -1.5835732713341715 921.7346936876571 M872.7652535445989 921.0700571807719 C534.1490240430472 925.2153769241116, 194.36697499193494 923.9162257180951, 0.23227083757519723 921.5456748517847 M-0.3777013078331948 922.3802438432967 C-0.9189698592957898 590.1339216766621, -0.6611519710359022 255.06035494215635, 1.3590824350714685 1.0682233348488808 M-0.19990403577685356 920.8323632749415 C2.2433744339304322 678.2762107946594, 2.776038899834668 436.3178969069066, 0.355096197873354 0.04856754466891289" stroke="#000000" stroke-width="1" fill="none"></path></g><g transform="translate(19.339110073335405 43.33329772949202) rotate(0 436.6666412353516 110.66666920979783)"><path d="M-1.3010895237326623 1.507599900662899 C301.8836760224202 -2.725389492108511, 607.163120828827 -0.583147775723623, 874.7885526672007 0.9476551279425621 M-0.4589223273098469 -0.6396615736186505 C275.9249970664046 4.7911365812220685, 552.1907150135859 5.226511008063804, 873.0253211371603 -0.001531457155942917 M873.5539554477853 2.5051891669102995 C872.3261238084143 54.983557614780494, 874.2536579643154 117.61506002396372, 875.9260627575799 223.88356328055266 M874.4267893817936 -0.001575474318538853 C876.5330221432195 81.14068191297362, 877.7148725367439 159.35044904178184, 874.7181725161329 220.91653538774028 M872.0560215488078 221.0713776017222 C580.3856034550104 219.27847335459526, 283.7228529027169 218.9776150953942, 0.9346194282174111 222.74775790224405 M873.6032653920355 221.6789340424034 C598.7242126926633 220.58986261000123, 322.16968315613303 221.26199698557343, 0.7456005923449993 221.8195315050575 M3.4148080638380423 223.85307175705472 C1.7769645869502952 151.74570748532545, -4.431086246923378 78.94133098181061, 2.3084722646780786 -1.2780460366132245 M0.06977782108651141 221.81539551602728 C2.3415539273829244 162.63678516226085, 2.8741066796115025 101.44127709000543, 0.10495635713440017 0.8729489144344631" stroke="#000000" stroke-width="1" fill="none"></path></g><g transform="translate(327.3391405909134 129.83338419596276) rotate(0 118.53838054950506 22.333318074544422)"><text x="0" y="32.66663614908885" font-family="Virgil, Segoe UI Emoji" font-size="27.48716070713159px" fill="#000000" text-anchor="start" style="white-space: pre;" direction="ltr">Hamsa Handmade.</text></g><g><g transform="translate(908.6725553044563 58.66662597656233) rotate(0 -0.02305266566577302 98.26509915782759)"><path d="M2.6382998261600727 -1.8290914271026848 C2.103221330270154 31.610274641112316, -2.4221081608286337 164.95084116009787, -2.6844051574916645 198.35928974275785 M0.625995518267155 3.349662273824215 C0.8866044634083743 36.24416102277321, 2.4881575707097014 162.73463491375657, 2.3754922848938893 194.5887311358501" stroke="#e67700" stroke-width="1" fill="none"></path></g></g><g transform="translate(771.50599036305 225.83337910970005) rotate(0 50.5 13)"><text x="50.5" y="19" font-family="Virgil, Segoe UI Emoji" font-size="16px" fill="#000000" text-anchor="middle" style="white-space: pre;" direction="ltr">Login/Sign up</text></g><g transform="translate(158.28595448255544 720.9166107177737) rotate(0 23.269224313589177 18.333328247070256)"><text x="23.269224313589152" y="27.666656494140483" font-family="Virgil, Segoe UI Emoji" font-size="22.564096304086465px" fill="#000000" text-anchor="middle" style="white-space: pre;" direction="ltr">Help.</text></g><g transform="translate(262.61945057630544 724.0832316080725) rotate(0 41.5 17.5)"><text x="41.5" y="26" font-family="Virgil, Segoe UI Emoji" font-size="22.564096304086465px" fill="#000000" text-anchor="middle" style="white-space: pre;" direction="ltr">Profile.</text></g><g transform="translate(409.9526211492224 722.5832366943362) rotate(0 56.5 17.5)"><text x="56.5" y="26" font-family="Virgil, Segoe UI Emoji" font-size="22.564096304086465px" fill="#000000" text-anchor="middle" style="white-space: pre;" direction="ltr">Site rules.</text></g><g transform="translate(600.4527635645876 719.5833079020179) rotate(0 55 17.5)"><text x="55" y="26" font-family="Virgil, Segoe UI Emoji" font-size="22.564096304086465px" fill="#000000" text-anchor="middle" style="white-space: pre;" direction="ltr">About me.</text></g><g transform="translate(158.45274321953468 768.9166615804036) rotate(0 15 13)"><text x="15" y="19" font-family="Virgil, Segoe UI Emoji" font-size="16px" fill="#000000" text-anchor="middle" style="white-space: pre;" direction="ltr">FAQ</text></g><g transform="translate(152.45280425469116 806.2499847412112) rotate(0 37 13.000000000000028)"><text x="37" y="19" font-family="Virgil, Segoe UI Emoji" font-size="16px" fill="#000000" text-anchor="middle" style="white-space: pre;" direction="ltr">Contacts</text></g><g transform="translate(264.2861375880242 778.250055948893) rotate(0 38.5 13)"><text x="38.5" y="19" font-family="Virgil, Segoe UI Emoji" font-size="16px" fill="#000000" text-anchor="middle" style="white-space: pre;" direction="ltr">My profile</text></g><g transform="translate(261.1194098862014 850.2501780192064) rotate(0 39 13)"><text x="39" y="19" font-family="Virgil, Segoe UI Emoji" font-size="16px" fill="#000000" text-anchor="middle" style="white-space: pre;" direction="ltr">My orders</text></g><g transform="translate(257.78607655286817 814.2500152587893) rotate(0 49 13.000000000000028)"><text x="49" y="19" font-family="Virgil, Segoe UI Emoji" font-size="16px" fill="#000000" text-anchor="middle" style="white-space: pre;" direction="ltr">My favorites</text></g><g transform="translate(407.28607655286794 780.9166819254555) rotate(0 59.5 13)"><text x="59.5" y="19" font-family="Virgil, Segoe UI Emoji" font-size="16px" fill="#000000" text-anchor="middle" style="white-space: pre;" direction="ltr">Orders/delivery</text></g><g transform="translate(408.7860968979202 816.9166920979827) rotate(0 50 13)"><text x="50" y="19" font-family="Virgil, Segoe UI Emoji" font-size="16px" fill="#000000" text-anchor="middle" style="white-space: pre;" direction="ltr">Return policy</text></g><g transform="translate(604.6193285059929 771.5833892822268) rotate(0 27.5 13)"><text x="27.5" y="19" font-family="Virgil, Segoe UI Emoji" font-size="16px" fill="#000000" text-anchor="middle" style="white-space: pre;" direction="ltr">History</text></g><g transform="translate(602.2859951726599 802.2499949137366) rotate(0 16.5 13.000000000000028)"><text x="16.5" y="19" font-family="Virgil, Segoe UI Emoji" font-size="16px" fill="#000000" text-anchor="middle" style="white-space: pre;" direction="ltr">Blog</text></g><g transform="translate(602.9526618393269 827.5832977294925) rotate(0 42.5 13)"><text x="42.5" y="19" font-family="Virgil, Segoe UI Emoji" font-size="16px" fill="#000000" text-anchor="middle" style="white-space: pre;" direction="ltr">Who am I?</text></g><g><g transform="translate(13.4527940821647 895.7500152587894) rotate(0 437.90017200450126 -1.2949680863693516)"><path d="M-0.00536010004580012 -1.1373893108218907 C146.34251373263288 -1.1228391450519362, 732.5937012752936 -1.661875643767416, 879.2531380911672 -0.9905636727809903 M-3.4527940821647647 -4.22314017534256 C142.3695647560516 -3.796221034092208, 729.7842379171445 1.1856964824472866, 876.7331568139547 1.6332040026038888" stroke="#000000" stroke-width="1" fill="none"></path></g></g><g transform="translate(333.4527432195349 914.4166514078778) rotate(0 124.66664632161451 16.666666666666742)"><path d="M47.906366759249735 2.112979547749779 C59.51038836046489 0.6255630096136973, 78.86879476043087 2.175390546800131, 95.5043727379681 2.110909342952727 C112.13995071550532 2.046428139105323, 131.06207204183906 1.3290094745021064, 147.71983462447307 1.7260923246653554 C164.37759720710707 2.1231751748286043, 181.41718909421917 3.2720302008432522, 195.45094823377218 4.493406443932221 C209.4847073733252 5.71478268702119, 223.15752991665772 7.420619168184799, 231.92238946179123 9.05434978319917 C240.68724900692473 10.688080398213541, 245.79501498855592 12.045012370305022, 248.0401055045733 14.295790134018448 C250.28519602059066 16.546567897731876, 250.2799335752609 20.125998584668235, 245.39293255789548 22.559016365479728 C240.50593154053004 24.99203414629122, 229.66028087111354 27.26620033463605, 218.71809940038065 28.8938968188874 C207.77591792964776 30.521593303138747, 194.4598367796792 31.6248439228635, 179.73984373349813 32.32519527098781 C165.01985068731707 33.02554661911213, 147.42321561437018 33.17400502491956, 130.39814112329435 33.09600490763327 C113.37306663221851 33.018004790346986, 93.05161153077944 32.90968822579894, 77.5893967870431 31.857194567270096 C62.12718204330676 30.804700908741253, 49.446253474485786 28.658863723655003, 37.6248526608763 26.781042956460215 C25.803451847266814 24.903222189265428, 12.704961158800213 22.135740634909883, 6.660991905386169 20.590269964101378 C0.6170226519721256 19.044799293292872, 0.13671752246001034 19.248347379393337, 1.3610371403920425 17.508218931609175 C2.5853567583240746 15.768090483825013, 6.533153415514062 12.337429967833376, 14.006909612978362 10.149499277396401 C21.480665810442662 7.961568586959427, 36.46876903863167 5.538192462416353, 46.20357432517784 4.380634788987326 C55.93837961172401 3.223077115558299, 63.93966004885898 4.085878258160324, 72.41574133225538 3.20415323682224 C80.89182261565178 2.322428215484155, 96.22203245196349 -1.2023917691713384, 97.06006202555623 -0.909715339041183 M195.14494502144612 5.947154149409135 C209.59798618442895 7.239552872454797, 224.1260424613356 9.883683785631586, 233.43308664346296 10.898275550892135 C242.7401308255903 11.912867316152685, 248.7795908192236 9.94538574864453, 250.98721011421028 12.034704740972426 C253.19482940919696 14.124023733300323, 252.12723201479474 20.993781074015978, 246.67880241338295 23.434189504859518 C241.23037281197116 25.874597935703058, 230.07364125583578 25.423432167714704, 218.29663250573952 26.677155326033663 C206.51962375564327 27.930878484352622, 191.02194358971002 29.70882945078706, 176.01674991280538 30.95652845477327 C161.01155623590074 32.204227458759476, 144.9180987042407 33.503213966478505, 128.2654704443117 34.16334934995092 C111.61284218438269 34.823484733423335, 91.75823406731548 35.69105599014084, 76.10098035323134 34.917340755607775 C60.44372663914719 34.14362552107471, 45.74570062108932 31.369050365327144, 34.32194815980681 29.52105794275254 C22.898195698524297 27.67306552017794, 13.344844116223026 25.74277852476106, 7.558465585536254 23.829386220160167 C1.7720870548494831 21.915993915559273, -1.503758425638921 20.940685538847607, -0.3963230243138156 18.040704115147186 C0.7111123770112897 15.140722691446765, 6.230393664276103 8.761235539202234, 14.203077993486886 6.4294976779576425 C22.17576232269767 4.097759816713051, 33.84836217928664 5.380596680323381, 47.439782950950885 4.050276947679636 C61.03120372261513 2.7199572150358913, 79.74037394329213 -0.9450075290618356, 95.75160262347237 -1.5524207179048268 C111.7628313036526 -2.159833906747818, 126.80373479396619 -0.14722674834435734, 143.50715503203233 0.40579781462168896 C160.21057527009847 0.9588223775877353, 187.01703245209657 1.2423178082510549, 195.97212405186926 1.7657266598914507 C204.92721565164194 2.2891355115318466, 197.79705017099343 3.0358402683372465, 197.23770463066847 3.546250924464065 C196.67835909034352 4.056661580590883, 194.44974338680132 5.057968385804417, 192.6160508099196 4.828190596652361" stroke="#000000" stroke-width="1" fill="none"></path></g><g transform="translate(406.4527432195347 915.5833079020184) rotate(0 47 13)"><text x="47" y="19" font-family="Virgil, Segoe UI Emoji" font-size="16px" fill="#000000" text-anchor="middle" style="white-space: pre;" direction="ltr">social media</text></g><g transform="translate(17.338937140392545 692.3334083557132) rotate(0 436.6667429606122 98.66659164428711)"><path d="M0.10211429744958878 1.1592521890997887 C226.38674539549385 3.4996200779767452, 453.803018644417 5.916185830006165, 874.533270058533 1.1800920233130456 M0.506009804457426 -0.0007290355861186981 C317.796075440323 -5.817801888420719, 636.130317559343 -6.895382936432499, 873.974330468228 -0.19287159368395806 M870.1403336164857 -0.6549020446836948 C876.9918441018777 63.27726019865453, 870.9275663337427 129.00916227963924, 875.670034491768 200.86923199519515 M874.0084432245548 0.8639890570193529 C877.0796067248218 61.0954058725636, 873.8317287097805 124.97080652905024, 875.197487402087 198.54866600222886 M874.9136555050815 198.4991656526923 C588.1497082332287 197.10768754191736, 298.55851639350476 197.04296972461083, 1.0682233348488808 196.74177977889775 M873.3657749367262 197.55625057294964 C634.966346158589 196.34308615470667, 397.164755972981 195.94245060230037, 0.04856754466891289 197.73713200166821 M-3.199117299169302 196.74203508719802 C-2.698395308402981 144.76826597851104, -6.121842082885708 85.09692225434556, 0.21401405707001686 2.6725488267838955 M-1.2089029271155596 198.37998849339783 C-3.487434878752291 143.5614391263884, -0.09668298046356405 94.23123395188385, 0.9780622404068708 0.042406680062413216" stroke="#000000" stroke-width="1" fill="none"></path></g><g transform="translate(15.339094814546343 894.6666259765628) rotate(0 433.99998982747394 35.33335367838538)"><path d="M1.1592521890997887 -0.13757996410131454 C243.1754439510858 0.3111918846830761, 489.8899007887554 0.7566080967649853, 869.180071678261 1.022057344019413 M-0.0007290355861186981 0.008723222464323045 C332.8340477694144 -3.8365518761169835, 664.3118429154794 -3.7513204527389927, 867.807108061264 0.2953012816607952 M867.3450776102643 3.2234010733664036 C864.6369937324415 19.137944886873427, 863.8848480844389 46.29419173382772, 871.5360283615689 71.27382465576125 M868.8639687119673 1.6157713811844587 C866.8389030214161 23.382387676297522, 868.5192389603466 51.89299010117133, 869.2154623686026 71.23277817976964 M869.1659620190661 72.20140570153785 C574.0999379407712 76.18662572777328, 278.7113781569098 78.59286652481612, -0.5914035096764565 70.2278917645414 M868.2230469393235 70.34759144311143 C677.1150142250318 70.87429375446551, 485.0736814924296 70.99554354942553, 0.40394871309399605 70.47503711705399 M-0.5911482013761997 71.35187872623396 C2.1156078088155366 40.66999834133065, -3.0836432469019317 16.363854192999597, 2.6725488267838955 -1.395582314580679 M1.0468052048236132 69.00074939740193 C-1.7213811247449975 47.9300564630338, 1.2635011703866859 22.72187993186391, 0.042406680062413216 -0.987146707251668" stroke="#000000" stroke-width="1" fill="none"></path></g><g><g transform="translate(908.0890541244431 165.50000508626437) rotate(0 96.19516828209157 1.906847630105915)"><path d="M2.02869133092463 -0.24076493717730063 C33.565619408463434 0.8383637454360722, 155.77429488437872 5.374519545460741, 187.36921360827984 6.653472116217017 M-0.3145433029532434 -2.8397768560051917 C32.27922412703434 -2.6149327849348385, 160.8157782696684 1.3790108649929365, 192.70487986713647 2.359453385770321" stroke="#e67700" stroke-width="1" fill="none"></path></g><g transform="translate(908.0890541244431 165.50000508626437) rotate(0 96.19516828209157 1.906847630105915)"><path d="M163.87040152105143 8.949600203334 C172.75063008717106 12.380903717890973, 180.5265231222228 9.898572710192528, 195.260023227185 5.684586288481951 M164.23615948746553 12.452396978064087 C176.51772333409644 6.120178672029814, 187.76400603727376 3.996488418272998, 193.44313307128846 2.579871006384492" stroke="#e67700" stroke-width="1" fill="none"></path></g><g transform="translate(908.0890541244431 165.50000508626437) rotate(0 96.19516828209157 1.906847630105915)"><path d="M164.49611647019665 -11.56206679835691 C173.25620673685867 -3.3251563795852714, 180.88577979163531 -1.0109475008759166, 195.260023227185 5.684586288481951 M164.86187443661075 -8.059270023626823 C177.16060235956027 -6.448178854860785, 188.16457152384066 -0.6285482296056735, 193.44313307128846 2.579871006384492" stroke="#e67700" stroke-width="1" fill="none"></path></g></g><g><g transform="translate(897.4225095280882 464.16664632161456) rotate(0 109.48350519078463 6.167380589805546)"><path d="M-1.9642824854701755 1.3201438691467047 C34.519484437215645 3.4879844810813663, 183.81528806491852 10.910426571592689, 220.93129286703956 12.76627873443067 M2.164868523180485 -0.431517554819584 C38.29695543491177 0.9905142705639203, 183.6092940657999 7.507428450683752, 219.92269659032416 8.895405405461787" stroke="#5c940d" stroke-width="1" fill="none"></path></g><g transform="translate(897.4225095280882 464.16664632161456) rotate(0 109.48350519078463 6.167380589805546)"><path d="M193.2126396818877 21.20098944973327 C204.992443639768 17.93888320073755, 215.19879146136157 14.935527879940373, 223.4130433834095 11.425454427748917 M192.71575267788478 15.96841922436036 C201.5030402638074 14.564032094923654, 209.21536918132037 12.54636901986808, 219.70166125697386 7.298829253092407" stroke="#5c940d" stroke-width="1" fill="none"></path></g><g transform="translate(897.4225095280882 464.16664632161456) rotate(0 109.48350519078463 6.167380589805546)"><path d="M194.0725589186537 0.6978057629962411 C205.49682281095502 5.060111982253739, 215.3828909079144 9.693234303250485, 223.4130433834095 11.425454427748917 M193.57567191465077 -4.534764462376669 C202.10953343932238 0.21592594660000763, 209.56396494977113 4.347349533748499, 219.70166125697386 7.298829253092407" stroke="#5c940d" stroke-width="1" fill="none"></path></g></g><g><g transform="translate(895.339196539807 268.9999211629236) rotate(0 -0.39354680494727745 211.94651613688714)"><path d="M2.264707580581307 2.0996222402900457 C2.2696080532752676 72.39991927142772, -1.2786871095085113 352.84243501950465, -1.9348796493064127 423.1219260559727 M0.04959605365991582 0.7711062178015711 C0.04603136423560036 70.15622930430703, -2.674127309156852 349.2818911277916, -3.0518011904756985 419.08221227337907" stroke="#5c940d" stroke-width="1" fill="none"></path></g></g><g><g transform="translate(901.9225909082971 833.2665867243048) rotate(0 74.12507998795559 5.166798100334006)"><path d="M2.0996222402900457 2.06516104079783 C26.622142765215713 3.2903195591433514, 123.95355248844464 8.450002201727859, 148.4552670187007 9.615658690654435 M-0.20510704278945902 0.7179375100135807 C23.986763777997773 0.9912275618228981, 122.382579504384 5.239755276994738, 147.18821253220247 5.868540934272805" stroke="#a61e4d" stroke-width="1" fill="none"></path></g><g transform="translate(901.9225909082971 833.2665867243048) rotate(0 74.12507998795559 5.166798100334006)"><path d="M121.60576310415341 17.69116514567828 C131.73581318972538 14.981267976405599, 140.84579179427928 8.270088606112822, 147.2318286445241 7.261898810961047 M118.1733540616609 15.874274989781735 C129.60249286523467 11.03397514737174, 138.32694433500143 7.503673454977847, 148.79991306888567 4.265147169106403" stroke="#a61e4d" stroke-width="1" fill="none"></path></g><g transform="translate(901.9225909082971 833.2665867243048) rotate(0 74.12507998795559 5.166798100334006)"><path d="M122.32412015842635 -2.8174663427564335 C132.5365515555302 1.6029402135573818, 141.39715394876444 2.0112911513680976, 147.2318286445241 7.261898810961047 M118.89171111593384 -4.634356498652978 C129.645838228183 -1.8861999141850214, 138.1048915058175 2.160445940273232, 148.79991306888567 4.265147169106403" stroke="#a61e4d" stroke-width="1" fill="none"></path></g></g><g transform="translate(1057.7558021713176 826.6665954589843) rotate(0 25.5 13)"><text x="25.5" y="19" font-family="Virgil, Segoe UI Emoji" font-size="16px" fill="#a61e4d" text-anchor="middle" style="white-space: pre;" direction="ltr">Footer</text></g><g><g transform="translate(902.0058632064739 688.9999745686854) rotate(0 -0.33993738242747895 146.78027441152688)"><path d="M1.7886003520339724 2.3275930318981404 C1.1791969894948804 50.723018898607975, -0.5915991571629021 244.37611287902635, -1.5567979349445071 292.4377162410568 M-0.6849693846702576 1.122832581996918 C-1.6363171341684257 48.534088880485974, -1.6140487541093398 239.6049520108436, -2.468475116888758 288.3884666101139" stroke="#a61e4d" stroke-width="1" fill="none"></path></g></g><g transform="translate(834.2557411361619 637.7498982747401) rotate(0 12.000020345052008 13.333358764648438)"><path d="M19.79078572978421 3.9684393586696025 C21.51884778495387 5.6989647269482955, 21.24331290128178 9.097732692320372, 21.658387361265746 11.764122392001113 C22.073461821249712 14.430512091681853, 23.04841885081494 17.70819981353916, 22.281232489688 19.966777556754042 C21.514046128561063 22.225355299968925, 19.59423390005619 24.34218019739357, 17.05526919450411 25.315588851290414 C14.51630448895203 26.288997505187258, 9.284122547415235 26.836583898154643, 7.047444256375531 25.807229480135106 C4.810765965335827 24.77787506211557, 5.0346627705882 21.789904094773853, 3.6351994482658885 19.139462343173182 C2.2357361259435766 16.489020591572512, -1.5549114143026577 12.18258784101219, -1.3493356775583383 9.904578970531073 C-1.1437599408140189 7.626570100049957, 2.7243130392769683 6.937461345720318, 4.868653868731805 5.4714091202864825 C7.012994698186642 4.005356894852647, 8.436326414366745 -0.9867577761378823, 11.516709299170682 1.10826561792806 C14.597092183974619 3.2032890119940025, 23.091318405287247 13.557305692031964, 23.35095117755543 18.041549484682136 C23.610583949823614 22.52579327733231, 13.433927800256402 28.465459586972024, 13.07450593277978 28.013728373829103 M16.284451835117217 1.7650863683268767 C18.084647076749917 2.568864970774904, 19.677170097950437 6.298844213550538, 21.31407507890536 8.963254338838546 C22.950980059860285 11.627664464126553, 25.840001582104197 15.82577635578999, 26.105881720846767 17.751547120054923 C26.371761859589338 19.677317884319855, 24.718232243635413 18.70202841032315, 22.909355911360784 20.51787892442814 C21.100479579086155 22.333729438533126, 18.449097151974236 28.197971576495984, 15.252623727198994 28.646650204684846 C12.056150302423752 29.095328832873708, 6.6145340585973145 25.373436795356266, 3.7305153627093306 23.209950693561318 C0.8464966668213472 21.04646459176637, -1.6621584961365117 18.168656911274805, -2.051488448128909 15.665733593915157 C-2.4408184001213065 13.162810276555506, 0.04523513815754465 10.1488076042416, 1.3945356507549462 8.192410789403416 C2.7438361633523476 6.236013974565233, 3.7496060422434527 4.977812562811591, 6.044314627455501 3.927352704886056 C8.339023212667549 2.876892846960521, 13.57871170193382 2.156151270793868, 15.162787162027234 1.8896516418502056 C16.74686262212065 1.6231520129065433, 15.680390302333134 1.908706445556774, 15.548767388015982 2.328354931224082" stroke="#000000" stroke-width="1" fill="none"></path></g><g><g transform="translate(855.5891558497029 659.0832621256512) rotate(0 6.161208659124895 10.636976578235618)"><path d="M2.4432427551597353 1.771034315600991 C4.144703862360794 4.277086360628406, 10.242029265521364 14.446074361974993, 11.997366995240327 17.36390530206263 M0.3250503230094912 0.26414199113845793 C1.4914209606912532 4.484806536833445, 7.862615410222012 18.586531873544057, 9.757972864310023 21.009811165332795" stroke="#000000" stroke-width="1" fill="none"></path></g></g><g><g transform="translate(856.9224688379842 648.4166056315106) rotate(0 56.99255316539359 -24.420797233817183)"><path d="M1.771034315600991 -0.0025516245514154434 C20.49929841032457 -7.802733846546775, 95.55713461045583 -36.33671180676205, 114.69717760023964 -44.35785057681242 M-0.7120712694525717 -2.4722477450966838 C17.435329566432355 -9.922797367738251, 93.04716302967728 -41.494887568585895, 112.47574275960517 -48.839042843082936" stroke="#000000" stroke-width="1" fill="none"></path></g><g transform="translate(856.9224688379842 648.4166056315106) rotate(0 56.99255316539359 -24.420797233817183)"><path d="M90.11481281924034 -28.79163163954358 C99.72842397183018 -34.00402772429663, 102.90622773997315 -41.24189106569474, 111.51138479118538 -47.36253643477896 M89.79100697482909 -27.223547215181995 C95.51286209143385 -36.120332995643494, 102.09037167169927 -39.7532183362157, 114.24376711291563 -48.53548419358769" stroke="#000000" stroke-width="1" fill="none"></path></g><g transform="translate(856.9224688379842 648.4166056315106) rotate(0 56.99255316539359 -24.420797233817183)"><path d="M82.48723219484006 -47.842616291369666 C95.35565823323007 -45.85253134770976, 101.4558041712501 -45.79142289618901, 111.51138479118538 -47.36253643477896 M82.16342635042881 -46.27453186700808 C90.21550890553563 -49.124283483304204, 99.16535533173479 -46.831914792962955, 114.24376711291563 -48.53548419358769" stroke="#000000" stroke-width="1" fill="none"></path></g></g><g transform="translate(984.0891558497029 581.5832824707038) rotate(0 71.5 13)"><text x="71.5" y="19" font-family="Virgil, Segoe UI Emoji" font-size="16px" fill="#000000" text-anchor="middle" style="white-space: pre;" direction="ltr">popup search menu</text></g><g transform="translate(116.09748460539936 318.8332951863612) rotate(0 141.3333129882813 111.99999491373723)"><path d="M1.0619968464158909 2.1174006871804005 C99.63441315811947 2.395227141219901, 204.62297718376115 1.078387210022824, 283.0026241029637 -0.3369397494955655 M-1.2220831063279047 -1.0826371822261445 C60.726327815314 -2.581876103182496, 125.81765829069228 -3.2409496216269233, 283.489458162218 -0.06624298111224583 M280.7752769459613 -2.80712815055302 C285.32968865116317 77.9654921548481, 286.4215172659546 150.49264558069953, 284.05065781342915 223.1879595718182 M284.19715930933637 -1.4383199625796967 C286.9351801464932 90.4706712350477, 284.8384789072867 178.17302948101502, 281.30416077019464 223.5702107350751 M285.546664009006 223.72300312545417 C198.07900525349 222.4662842433948, 112.3243124140098 221.55075574322967, 2.613756725134889 223.55037458715395 M283.3934364572198 222.9564532410015 C219.21914471154847 224.8196304688135, 159.29932371525217 224.20622514800735, 0.7035323965772898 224.2855119209736 M-2.5053644918313194 226.96653473294037 C0.6119618145696588 172.02191501587876, -1.9435600107249222 114.9815855480383, 2.478941995435835 1.2297072179717667 M0.7510809306830607 223.05795198285395 C-5.143612094484431 154.36697261970465, -5.356118927127588 83.26037130441662, -1.0411330488263362 0.1611429871777115" stroke="#000000" stroke-width="1" fill="none"></path></g><g transform="translate(29.097270982352313 270.66658782959036) rotate(0 121.00000000000003 13)"><text x="121" y="19" font-family="Virgil, Segoe UI Emoji" font-size="16px" fill="#d9480f" text-anchor="middle" style="white-space: pre;" direction="ltr">Categories &gt; Earrings &gt; Model</text></g><g transform="translate(413.65844980875625 319.66666666666674) rotate(0 109.1922423533905 16.999989827473954)"><text x="109.19224235339045" y="24.999979654947907" font-family="Virgil, Segoe UI Emoji" font-size="20.923064403044876px" fill="#d9480f" text-anchor="middle" style="white-space: pre;" direction="ltr">Product name (model)</text></g><g transform="translate(422.1584904988606 382.33334350585955) rotate(0 19 13)"><text x="19" y="19" font-family="Virgil, Segoe UI Emoji" font-size="16px" fill="#d9480f" text-anchor="middle" style="white-space: pre;" direction="ltr">Price</text></g><g transform="translate(421.4917221069335 420.9999796549481) rotate(0 33 13)"><text x="33" y="19" font-family="Virgil, Segoe UI Emoji" font-size="16px" fill="#d9480f" text-anchor="middle" style="white-space: pre;" direction="ltr">Quantity</text></g><g transform="translate(420.15857187906886 467.6666463216148) rotate(0 49 13)"><text x="49" y="19" font-family="Virgil, Segoe UI Emoji" font-size="16px" fill="#d9480f" text-anchor="middle" style="white-space: pre;" direction="ltr">Add to cart</text></g><g transform="translate(417.67230607756744 510.33330027262275) rotate(0 79 13)"><text x="79" y="19" font-family="Virgil, Segoe UI Emoji" font-size="16px" fill="#d9480f" text-anchor="middle" style="white-space: pre;" direction="ltr">Share (social media)</text></g><g transform="translate(58.49176279703761 575.8333333333335) rotate(0 352.6666768391928 48.000005086263)"><path d="M0.10178763717412949 1.3910340324044228 C208.0000520735497 -3.4189358425974072, 415.08413041373393 -1.8098218155740917, 706.3681347752613 1.118327285349369 M-0.6956589452922345 0.6470517985522748 C157.89661342939303 0.4471341459496252, 315.20805160608023 0.23922515795066276, 706.0481545614701 0.1534273736178875 M706.9796945812803 -1.4782763682305813 C705.6005465243906 28.619120267502897, 706.1762779210657 52.86239474137114, 708.2753702166182 94.08032719666755 M704.2585313736153 1.252526430413127 C705.9813647335523 24.438424764863164, 707.0215963786595 51.819542139230194, 703.5354152737808 95.71528149458265 M706.6505781556172 95.74275061438478 C499.6244752662385 89.73623873595415, 292.8790104994185 90.2551031291884, 0.7142773851752282 94.88366996596253 M705.2094570564728 96.18617382372415 C444.10068081146204 93.17808436376767, 181.45193950907816 92.89344960672574, -0.4092116348445416 96.54518459166086 M0.6715586744248867 96.80878333623207 C-1.4612580194922906 76.34303996596319, -1.7010402336570245 57.243145136954055, 2.684755977243185 3.855777505785227 M1.4045445937663317 94.77209586712218 C0.752336753418803 60.359340020729746, 2.970771981289744 28.27986473769181, 1.5715079922229052 -1.73770740814507" stroke="#000000" stroke-width="1" fill="none"></path></g><g transform="translate(65.99178314208962 543.6668599446616) rotate(0 44.5 13)"><text x="44.5" y="19" font-family="Virgil, Segoe UI Emoji" font-size="16px" fill="#000000" text-anchor="middle" style="white-space: pre;" direction="ltr">Description</text></g></svg>