<svg version="1.1" xmlns="http://www.w3.org/2000/svg" viewBox="0 0 1169.6828887623424 1376.2645699772243">
  <!-- svg-source:excalidraw -->
  <defs>
    <style>
      @font-face {
        font-family: "Virgil";
        src: url("https://excalidraw.com/FG_Virgil.woff2");
      }
      @font-face {
        font-family: "Cascadia";
        src: url("https://excalidraw.com/Cascadia.woff2");
      }
    </style>
  </defs>
  <rect x="0" y="0" width="1169.6828887623424" height="1376.2645699772243" fill="#ffffff"></rect><g transform="translate(12.032655811496284 46.933329264321856) rotate(0 436.40000915527344 655.7333653767903)"><path d="M-0.060309435427188876 0.8032424941658974 C209.15735518316518 6.589533511633793, 419.0359313618161 7.666668168539921, 872.1251345857978 -1.312277363240719 M0.09353396967053414 -0.221750033646822 C210.4343460970647 -1.7205734204220962, 420.5966189483358 -1.3100757311749647, 873.0701543815434 -0.26171692684292797 M871.9555060610176 -0.6507970318198204 C875.6233493809193 437.14983102860776, 874.6253185753316 873.6321500680392, 872.8856812223792 1312.1011478121081 M872.921530533582 -0.08348187282681466 C871.2507201434257 389.0113976799402, 870.5250418664101 777.595351176799, 873.0835337884724 1312.2423656972744 M874.2788090452552 1311.7742858583727 C538.5790298554632 1309.6013913671252, 200.86623644447982 1310.0861279527421, -0.7871537938714028 1311.565946787099 M872.1581216104329 1312.0711195501187 C673.3538631593522 1312.051709851786, 474.34630957277346 1312.0599934907402, 0.40133290365338326 1311.4073230060437 M0.04099600166082382 1312.7847269232072 C4.485773170177806 996.6274802730175, 5.866810357754099 678.9086628830814, -1.2259998574852944 0.5608793273568153 M0.4473745830357075 1311.485228470216 C0.43575056753603864 999.3156020803891, 0.18027950487582134 688.3058992440289, -0.1378130190074444 0.4277594916522503" stroke="#000000" stroke-width="1" fill="none"></path></g><g transform="translate(20.432863331027306 45.999999999999545) rotate(0 436.6666412353517 110.66666920979782)"><path d="M0.8032424941658974 -1.0815641179680824 C222.45508984857753 -1.1785560544224738, 446.16885279136807 -0.41153253872117973, 872.0210051074627 -0.9406009927392006 M-0.221750033646822 -0.09587416574358941 C318.54221540966705 -1.2806848648295883, 638.2367831173852 -0.5467272165523056, 873.0715655438604 0.26222436502575874 M871.9268847176497 -0.48304186066267435 C875.4659652604078 70.18781138907474, 875.5847866883707 145.84039433683023, 874.7042824630004 221.2162796480696 M873.1528748895009 1.3971479551812644 C870.9186266327425 61.59664506752348, 870.0193970832244 124.1481203089829, 875.0094598173495 222.7906718944035 M873.6408375754954 222.52580183992714 C570.5544696971289 226.68384613650926, 268.4586306883912 227.00357045787462, 0.09921603351831437 220.19049238214822 M873.9376712672415 221.384936110923 C693.8307197073495 216.26923784568947, 514.8642825212369 216.12877380207223, -0.05940774753689766 220.86195706600876 M2.8482410964797307 218.29298143479872 C0.36394130767404054 167.30861421760204, -2.994137150902228 110.74622011810187, 1.212082088824313 -2.1480493174696313 M0.039974286668140964 221.5565298998378 C-1.73194192223216 155.3058250859951, 0.33473383875340845 89.63827533477954, 0.9244049350145578 0.8177837108369086" stroke="#000000" stroke-width="1" fill="none"></path></g><g transform="translate(328.43289384860515 132.5000864664703) rotate(0 118.53838054950506 22.333318074544422)"><text x="0" y="32.66663614908885" font-family="Virgil, Segoe UI Emoji" font-size="27.48716070713159px" fill="#000000" text-anchor="start" style="white-space: pre;" direction="ltr">Hamsa Handmade.</text></g><g><g transform="translate(909.766308562148 61.33332824706986) rotate(0 0.0518526504924921 97.34185293781263)"><path d="M-1.8927372064441441 -0.31769226528704175 C-2.3310578135401174 32.38839044212881, -2.818725688631419 165.29282325851833, -2.735465154573421 197.64217060928542 M2.275252667963505 -2.9584647336602212 C2.68514521295824 28.804682544341507, 3.316233384956833 160.38226443703385, 2.2967140036820366 193.48231875849262" stroke="#e67700" stroke-width="1" fill="none"></path></g></g><g transform="translate(772.5997436207413 228.50008138020758) rotate(0 50.5 12.999999999999943)"><text x="50.5" y="19" font-family="Virgil, Segoe UI Emoji" font-size="16px" fill="#000000" text-anchor="middle" style="white-space: pre;" direction="ltr">Login/Sign up</text></g><g transform="translate(20.432827727186236 10) rotate(0 16.5 13)"><text x="0" y="19" font-family="Virgil, Segoe UI Emoji" font-size="16px" fill="#000000" text-anchor="start" style="white-space: pre;" direction="ltr">DIY</text></g><g transform="translate(414.56113418939964 313.33342234293593) rotate(0 29 21.5)"><text x="0" y="31" font-family="Virgil, Segoe UI Emoji" font-size="27.48716070713159px" fill="#000000" text-anchor="start" style="white-space: pre;" direction="ltr">DIY.</text></g><g transform="translate(158.04639475196592 1104.9166259765625) rotate(0 23.269224313589177 18.3333282470702)"><text x="23.269224313589152" y="27.666656494140483" font-family="Virgil, Segoe UI Emoji" font-size="22.564096304086465px" fill="#000000" text-anchor="middle" style="white-space: pre;" direction="ltr">Help.</text></g><g transform="translate(262.3798908457159 1108.0832468668614) rotate(0 41.5 17.5)"><text x="41.5" y="26" font-family="Virgil, Segoe UI Emoji" font-size="22.564096304086465px" fill="#000000" text-anchor="middle" style="white-space: pre;" direction="ltr">Profile.</text></g><g transform="translate(409.7130614186329 1106.583251953125) rotate(0 56.5 17.5)"><text x="56.5" y="26" font-family="Virgil, Segoe UI Emoji" font-size="22.564096304086465px" fill="#000000" text-anchor="middle" style="white-space: pre;" direction="ltr">Site rules.</text></g><g transform="translate(600.2132038339978 1103.5833231608067) rotate(0 55 17.5)"><text x="55" y="26" font-family="Virgil, Segoe UI Emoji" font-size="22.564096304086465px" fill="#000000" text-anchor="middle" style="white-space: pre;" direction="ltr">About me.</text></g><g transform="translate(158.21318348894516 1152.9166768391924) rotate(0 15 13)"><text x="15" y="19" font-family="Virgil, Segoe UI Emoji" font-size="16px" fill="#000000" text-anchor="middle" style="white-space: pre;" direction="ltr">FAQ</text></g><g transform="translate(152.21324452410164 1190.25) rotate(0 37 13)"><text x="37" y="19" font-family="Virgil, Segoe UI Emoji" font-size="16px" fill="#000000" text-anchor="middle" style="white-space: pre;" direction="ltr">Contacts</text></g><g transform="translate(264.04657785743467 1162.2500712076817) rotate(0 38.5 13)"><text x="38.5" y="19" font-family="Virgil, Segoe UI Emoji" font-size="16px" fill="#000000" text-anchor="middle" style="white-space: pre;" direction="ltr">My profile</text></g><g transform="translate(260.8798501556119 1234.250193277995) rotate(0 39 13)"><text x="39" y="19" font-family="Virgil, Segoe UI Emoji" font-size="16px" fill="#000000" text-anchor="middle" style="white-space: pre;" direction="ltr">My orders</text></g><g transform="translate(257.54651682227865 1198.2500305175781) rotate(0 49 13)"><text x="49" y="19" font-family="Virgil, Segoe UI Emoji" font-size="16px" fill="#000000" text-anchor="middle" style="white-space: pre;" direction="ltr">My favorites</text></g><g transform="translate(407.0465168222784 1164.9166971842442) rotate(0 59.5 13)"><text x="59.5" y="19" font-family="Virgil, Segoe UI Emoji" font-size="16px" fill="#000000" text-anchor="middle" style="white-space: pre;" direction="ltr">Orders/delivery</text></g><g transform="translate(408.54653716733065 1200.9167073567714) rotate(0 50 13)"><text x="50" y="19" font-family="Virgil, Segoe UI Emoji" font-size="16px" fill="#000000" text-anchor="middle" style="white-space: pre;" direction="ltr">Return policy</text></g><g transform="translate(604.3797687754031 1155.5834045410156) rotate(0 27.5 13)"><text x="27.5" y="19" font-family="Virgil, Segoe UI Emoji" font-size="16px" fill="#000000" text-anchor="middle" style="white-space: pre;" direction="ltr">History</text></g><g transform="translate(602.0464354420701 1186.2500101725254) rotate(0 16.5 13)"><text x="16.5" y="19" font-family="Virgil, Segoe UI Emoji" font-size="16px" fill="#000000" text-anchor="middle" style="white-space: pre;" direction="ltr">Blog</text></g><g transform="translate(602.7131021087371 1211.5833129882812) rotate(0 42.5 13)"><text x="42.5" y="19" font-family="Virgil, Segoe UI Emoji" font-size="16px" fill="#000000" text-anchor="middle" style="white-space: pre;" direction="ltr">Who am I?</text></g><g><g transform="translate(13.213234351575352 1279.7500305175781) rotate(0 438.23226636859295 1.4158026216553026)"><path d="M0.14991009570658198 1.1102298524230716 C147.11915779637388 0.9294283619150516, 733.3714638003255 0.24630350749939667, 879.6777670887614 0.2757791928946971 M-3.213234351575375 -0.7553848949074746 C143.56781559725192 -0.6298654519145689, 729.5442143843368 2.68974431583037, 877.388298695957 3.586990138217807" stroke="#000000" stroke-width="1" fill="none"></path></g></g><g transform="translate(333.2131834889454 1298.416666666666) rotate(0 124.66664632161462 16.666666666666742)"><path d="M98.55652071832479 1.9799806858222162 C114.04274364264003 1.2032267306466808, 134.12667585823007 -0.15230644145036898, 150.4840267646603 0.1626012131458232 C166.84137767109056 0.4775088677420154, 182.72285650592107 2.2350913164746267, 196.70062615690625 3.8694266133993693 C210.67839580789143 5.503761910324112, 225.5479779931211 8.218752459621713, 234.35064467057146 9.96861299469428 C243.15331134802182 11.718473529766845, 247.69050284429304 12.345534359526392, 249.51662622160836 14.368589823834762 C251.3427495989237 16.391645288143135, 250.3270576230688 19.92139162539872, 245.30738493446336 22.106945780544507 C240.2877122458579 24.292499935690294, 231.1258721256925 25.800886989297684, 219.39859008997558 27.481914754709493 C207.67130805425867 29.1629425201213, 190.69658240331648 31.197334313428037, 174.94369272016183 32.19311237301536 C159.19080303700719 33.18889043260268, 141.74378593859805 33.811496087808514, 124.88125199104775 33.45658311223343 C108.01871804349744 33.10167013665835, 89.02330674191411 31.245965196938542, 73.76848903486 30.06363451956488 C58.51367132780589 28.881303842191215, 44.29135165419514 27.68055244847972, 33.35234574872308 26.36259904799146 C22.413339843251023 25.0446456475032, 13.82860048155889 23.796435741882927, 8.134453602027662 22.155914116635316 C2.440306722496433 20.515392491387704, -1.8629569211715165 18.618032786965394, -0.812535528464295 16.51946929650579 C0.23788586424292646 14.420905806046186, 6.044344919001192 11.955704055046242, 14.43698195827099 9.564533173877694 C22.82961899754079 7.173362292709145, 36.04712801942128 3.4770444225468875, 49.54328670715449 2.1724440094944946 C63.03944539488771 0.8678435964421014, 79.92860359380803 1.7961629166594537, 95.41393408467026 1.7369306955633341 C110.89926457553248 1.6776984744672145, 128.2035227459652 1.4482931071780643, 142.45526965232784 1.8170506829177775 C156.7070165586905 2.1858082586574907, 181.23396657062165 3.996663102922707, 180.92441552284623 3.9494761500016136 M38.122974823537845 5.70232779946255 C48.44799570445527 4.357073018212196, 67.83897109689704 2.1312337856181474, 83.76138838417845 1.0717863811192743 C99.68380567145985 0.012338976620401176, 117.21657512649215 -1.2803382598159985, 133.65747854722625 -0.6543566275306887 C150.09838196796034 -0.028374995245378898, 167.65915433862273 3.3906271710051996, 182.40680890858306 4.827676174831133 C197.1544634785434 6.264725178657066, 211.39201691801296 6.937127445690723, 222.14340596698824 7.967937395424913 C232.89479501596352 8.998747345159103, 242.64523764167888 8.885813978242219, 246.91514320243473 11.012535873236274 C251.1850487631906 13.13925776823033, 250.86512362476614 18.200424118354903, 247.7628393315234 20.728268765389245 C244.66055503828065 23.256113412423588, 237.48070519932998 24.04656346035131, 228.30143744297828 26.179603755442326 C219.1221696866266 28.31264405053334, 207.0773613497443 32.58843510190561, 192.68723279341316 33.52651053593533 C178.297104237082 34.46458596996505, 158.93161315256825 31.78262013870351, 141.9606661049914 31.808056359620657 C124.98971905741453 31.833492580537804, 106.97094515372049 34.13452062572316, 90.86155050795202 33.679127861438204 C74.75215586218354 33.223735097153245, 58.32136245228522 30.38949521621012, 45.304298230380525 29.075699773910898 C32.28723400847583 27.761904331611678, 20.676266762060326 28.14194516973497, 12.759165176523851 25.796355207642875 C4.842063590987375 23.45076524555078, -1.249046859504619 17.359714199117704, -2.1983112828383327 15.002160001358318 C-3.1475757061720464 12.64460580359893, 1.0723093721316532 13.83572467043394, 7.063578636521569 11.651030021086548 C13.054847900911486 9.466335371739156, 28.250331741951538 2.9998144905440256, 33.74930430350116 1.8939921052739699 C39.24827686505079 0.7881697200039144, 38.596389404543096 4.999798820127127, 40.057414005819325 5.0160957094662155 C41.518438607095554 5.032392598805304, 41.354095612331236 2.3052484961334416, 42.51545191115852 1.9917734413084975" stroke="#000000" stroke-width="1" fill="none"></path></g><g transform="translate(406.21318348894516 1299.5833231608067) rotate(0 47 13)"><text x="47" y="19" font-family="Virgil, Segoe UI Emoji" font-size="16px" fill="#000000" text-anchor="middle" style="white-space: pre;" direction="ltr">social media</text></g><g transform="translate(17.099377409803196 1076.333423614502) rotate(0 436.6667429606123 98.66659164428711)"><path d="M-1.0199033990502357 0.24302444607019424 C296.461685858944 2.7552732540424163, 593.2799679269968 1.3039167000110439, 872.5239349906648 0.5670309558510781 M-0.19100620672106744 0.7393953673541547 C346.8273194760741 -2.650216314373654, 693.2479652577463 -3.799887082157773, 873.4767356244231 -0.3935768969357014 M873.9709865016247 -3.209483500570059 C873.536411821687 60.681606926173615, 867.8752581475613 123.55622167542705, 870.7356944245602 199.33984780684114 M874.6406071999426 0.05124500207602978 C872.6555015571033 55.97594505870668, 872.6650668508922 115.43680653806682, 873.048148296153 195.8006834667176 M873.8904268329347 198.22793245464564 C580.7557669442731 197.31834332099632, 287.73387408441994 196.80740119567588, 1.5424856409430505 197.05755725055934 M873.3877863494064 197.66915205642582 C564.5847471114428 193.79816347983058, 256.2342721129811 194.4673724117535, -0.32059740945696835 196.97563139125705 M-0.6442121900618076 196.566556815058 C0.9315637391140816 139.63034066626795, -4.5514512021014335 86.44449454311271, 1.318974431604147 -3.7852120362222195 M1.7122923154383898 195.3955418150872 C-2.3113617834442346 155.9037501127998, -4.210262828766653 118.43774385667936, -1.0000968556851149 0.32467922382056713" stroke="#000000" stroke-width="1" fill="none"></path></g><g transform="translate(15.099535083956994 1278.6666412353516) rotate(0 433.999989827474 35.33335367838549)"><path d="M0.24302444607019424 -0.16696374565362931 C258.75442325617854 4.449049365929655, 514.7644564046658 3.616829717568449, 868.5670106107991 1.5512698873877526 M0.7393953673541547 0.15377755239605906 C334.1650485021327 1.5588152458686915, 666.5841945263156 1.8011835386772241, 867.6064027580123 0.049608016759157186 M864.7904961543779 3.0219439826905727 C866.9143523016427 13.513229610462115, 869.3653485813592 29.707087107130143, 870.0066441732149 70.36966861908627 M868.051224657024 1.647495212033391 C865.4475623725826 18.693201691932927, 867.173858857053 33.786944747149846, 866.4674798330914 71.36780651596678 M868.8947288210194 70.70370279004169 C661.7304558004627 72.71364784057853, 454.7434303995349 74.62631649788139, -0.2756260380148888 71.52222634007526 M868.3359484227996 70.61510032092524 C566.6180217053833 71.43308480197112, 265.8284999867463 70.81743765288512, -0.35755189731717113 70.47907195960474 M-0.7666264735162258 72.84020425503445 C-2.9645036825937385 43.93344246541336, -1.5787310967249029 25.138188091563748, -3.7852120362222195 -3.9702004827558994 M-1.9376414734870195 70.7751406648506 C-1.9844586848384511 43.343480412059165, 0.16318255671199444 18.60109208614761, 0.32467922382056713 0.5908130425959826" stroke="#000000" stroke-width="1" fill="none"></path></g><g><g transform="translate(909.1828073821343 168.1667073567719) rotate(0 94.40397330176086 3.052376229763013)"><path d="M0.4252927806228399 -0.29218655489385137 C32.45567891461154 0.900785020366311, 160.15778180224203 4.671531724308927, 191.59630481265486 5.372998503223061 M-2.7883582091331487 -2.919113066196442 C29.12674450794856 -1.0786256750424703, 158.93887237151463 7.494401083787283, 190.5866777253151 9.023865525722504" stroke="#e67700" stroke-width="1" fill="none"></path></g><g transform="translate(909.1828073821343 168.1667073567719) rotate(0 94.40397330176086 3.052376229763013)"><path d="M161.42751410212452 20.853632792353213 C170.03218907947107 14.738704979515564, 175.97263007035093 14.15286530366134, 194.46485244378448 12.3957007612288 M162.22936734724874 19.11162818361777 C171.5962299384842 12.727528706816859, 182.1602007320965 10.148549549902388, 190.710697767213 7.595307978913189" stroke="#e67700" stroke-width="1" fill="none"></path></g><g transform="translate(909.1828073821343 168.1667073567719) rotate(0 94.40397330176086 3.052376229763013)"><path d="M162.6256442690778 0.367430448119773 C170.63478151967283 -0.02675269742657127, 176.24085912635763 5.104512607508713, 194.46485244378448 12.3957007612288 M163.42749751420203 -1.3745741606156692 C172.28142355089741 -0.6387470369070498, 182.43028258496693 3.880053109314696, 190.710697767213 7.595307978913189" stroke="#e67700" stroke-width="1" fill="none"></path></g></g><g transform="translate(1106.6828480722384 158.66668192545558) rotate(0 26.5 13)"><text x="26.5" y="19" font-family="Virgil, Segoe UI Emoji" font-size="16px" fill="#e67700" text-anchor="middle" style="white-space: pre;" direction="ltr">Header</text></g><g><g transform="translate(898.5162627857799 524.1381489170541) rotate(0 109.2180932085837 -20.71687025938752)"><path d="M2.2628087189048527 0.039670256152748884 C38.59017992810245 -6.823867113852915, 182.15683991242628 -35.243136674982395, 218.38952003580843 -41.473410774927835 M0.04666638135909995 -2.4071054148674014 C35.937457049422825 -8.889943858424243, 179.6105454876689 -32.114647470908444, 216.00110422213888 -38.613152418371534" stroke="#5c940d" stroke-width="1" fill="none"></path></g><g transform="translate(898.5162627857799 524.1381489170541) rotate(0 109.2180932085837 -20.71687025938752)"><path d="M189.9740739014268 -24.188687183460363 C196.14575209680902 -27.46807842490382, 210.26910085486793 -30.185007935541954, 217.8597573465607 -39.56818345197687 M189.66960563289823 -25.176477326577672 C200.45443243123492 -30.981457129088774, 210.4562099131305 -37.24190937978641, 214.09976218966162 -38.29440212817142" stroke="#5c940d" stroke-width="1" fill="none"></path></g><g transform="translate(898.5162627857799 524.1381489170541) rotate(0 109.2180932085837 -20.71687025938752)"><path d="M186.5502132685378 -44.42225287891781 C193.7588263694393 -41.379585801793574, 208.96133843197302 -37.719117410346755, 217.8597573465607 -39.56818345197687 M186.2457450000092 -45.41004302203512 C198.45196502973798 -43.32591288038725, 209.7973490378033 -41.64621982991301, 214.09976218966162 -38.29440212817142" stroke="#5c940d" stroke-width="1" fill="none"></path></g></g><g transform="translate(1122.6828887623424 459.9999745686845) rotate(0 18.5 13)"><text x="18.5" y="19" font-family="Virgil, Segoe UI Emoji" font-size="16px" fill="#5c940d" text-anchor="middle" style="white-space: pre;" direction="ltr">Body</text></g><g><g transform="translate(896.4329497974986 271.666623433431) rotate(0 -1.9906209790389084 394.006328363282)"><path d="M-0.27706525065004817 -1.4167141284793614 C-0.6437222711669845 130.14823597133574, -0.22178546062481613 657.8573008770951, 0.06286659580323439 789.4293708550433 M-3.8719963145256044 3.9859015345573425 C-4.726637608476226 134.83532205028254, -2.432561411598049 656.0247047815183, -1.6364629594549207 785.8924089886497" stroke="#5c940d" stroke-width="1" fill="none"></path></g></g><g><g transform="translate(901.6830311777071 1217.266601983094) rotate(0 73.982337420558 4.355511475738467)"><path d="M-1.4167141284793614 0.9923041727393866 C23.473572323761065 2.646540101782845, 124.48398263922175 8.710477029861842, 149.38138896959532 9.648350323610703 M3.0096882739663124 -0.9373273721337321 C27.7689693826106 -0.002032172390454612, 124.64095745129724 4.201630726115736, 148.617086399297 5.918979453691045" stroke="#a61e4d" stroke-width="1" fill="none"></path></g><g transform="translate(901.6830311777071 1217.266601983094) rotate(0 73.982337420558 4.355511475738467)"><path d="M121.32119138782234 18.48832800951602 C131.94737221320037 14.139703382592968, 136.2752287646047 13.358361333292514, 149.3859741612773 8.90013800451974 M118.91967175585539 14.734173332944533 C126.85359418726975 10.106311308982775, 136.85918888371003 7.903241551569927, 150.12805839064228 6.047973682009379" stroke="#a61e4d" stroke-width="1" fill="none"></path></g><g transform="translate(901.6830311777071 1217.266601983094) rotate(0 73.982337420558 4.355511475738467)"><path d="M122.4522889571261 -2.0016846960572723 C132.6969874748728 -0.18572138019480366, 136.6839122222607 5.208970526912559, 149.3859741612773 8.90013800451974 M120.05076932515915 -5.755839372628761 C127.37587725219592 -4.486514495199314, 137.05615677731763 -0.796448085998243, 150.12805839064228 6.047973682009379" stroke="#a61e4d" stroke-width="1" fill="none"></path></g></g><g transform="translate(1057.5162424407276 1210.6666107177734) rotate(0 25.5 13)"><text x="25.5" y="19" font-family="Virgil, Segoe UI Emoji" font-size="16px" fill="#a61e4d" text-anchor="middle" style="white-space: pre;" direction="ltr">Footer</text></g><g><g transform="translate(901.7663034758839 1072.999989827474) rotate(0 -0.7579909880583955 147.21892562558264)"><path d="M2.7147223029285668 2.360284664854407 C2.5010107405069673 50.52792733638652, -2.0111703017934133 241.85739041960082, -2.698983503008958 289.9981602019321 M0.7439044824242593 1.1732711014151578 C0.4030526531073657 49.67309047020145, -3.804244234396415 244.35892307344415, -4.23070427904534 293.26458014975" stroke="#a61e4d" stroke-width="1" fill="none"></path></g></g><g transform="translate(85.85782314954969 364.0000432332355) rotate(0 365 51)"><text x="365" y="18.5" font-family="Virgil, Segoe UI Emoji" font-size="16px" fill="#000000" text-anchor="middle" style="white-space: pre;" direction="ltr">This here is the unique DIY category where you can customize your own piece of treasure.</text><text x="365" y="44" font-family="Virgil, Segoe UI Emoji" font-size="16px" fill="#000000" text-anchor="middle" style="white-space: pre;" direction="ltr">Simply choose the form, color and illustration from the dropdown menus. </text><text x="365" y="69.5" font-family="Virgil, Segoe UI Emoji" font-size="16px" fill="#000000" text-anchor="middle" style="white-space: pre;" direction="ltr">After submitting a payment, I will do it for you within 5-working days period. </text><text x="365" y="95" font-family="Virgil, Segoe UI Emoji" font-size="16px" fill="#000000" text-anchor="middle" style="white-space: pre;" direction="ltr">And once it is ready, I will let you know. </text></g><g transform="translate(153.52449998874232 497.50003814697277) rotate(0 279.33329264322924 16.666653951009152)"><path d="M0.33819689899683003 -1.2974885240197183 C221.1052094612127 -3.1942662228740826, 444.54619815868244 -4.031773041645445, 557.9736296986541 -0.05917890220880509 M0.6752949349582196 0.36180536821484566 C202.3580338582817 -4.601663763276263, 403.18604789757194 -3.213817412606402, 559.2816168499492 0.1886012561619282 M561.2322147724531 -2.4990815557539463 C557.7860114627464 8.620020186075774, 555.550701742707 21.864667429614478, 555.2371010420225 32.699344730625626 M560.2091848136238 -1.178224204108119 C559.9985367298667 7.180164822138993, 559.8051383138244 15.948345794797238, 557.286277163153 32.479887825126525 M559.31823481073 33.10749401102471 C374.37646372264373 31.193520357994387, 193.59665705106144 31.36838231363709, 0.5471114173531533 33.34853495607781 M558.09257502084 34.08377622837829 C425.3625192836154 37.16829671296741, 291.7329632717327 37.296418637367736, 0.7610861651599408 34.123586337516784 M1.0531871356070042 31.729530787716385 C0.4040831429998901 22.204463071154436, 2.462192307237866 13.815438903176467, 2.1492675580084324 3.294292625039816 M-1.7307832557708025 34.69476858961093 C-0.4593907828735831 21.49674122562424, -0.5845938558983328 9.486459909611185, 0.5079263728111982 -1.8860580306500196" stroke="#000000" stroke-width="1" fill="none"></path></g><g transform="translate(269.1911259653047 500.00010935465514) rotate(0 167.00000000000006 13)"><text x="167" y="19" font-family="Virgil, Segoe UI Emoji" font-size="16px" fill="#000000" text-anchor="middle" style="white-space: pre;" direction="ltr">You can choose the form of your treasue.</text></g><g transform="translate(151.85783332207558 551.5000661214189) rotate(0 279.33329264322924 16.666653951009152)"><path d="M-0.7105515256524086 -1.4326947674155237 C122.8465128633022 1.9535646009527081, 243.2603384216904 1.573806862839305, 559.3298856799803 -1.0267043098807336 M0.6605072028934956 0.1431908719241619 C221.90587932500782 -0.5492225711863433, 443.1814279913116 -0.5223758523981964, 557.8873745528361 -0.4813226826488972 M561.0181050462029 -1.7896773777902126 C561.3548908116204 7.851058775147084, 559.9560853125436 14.747413977156647, 556.3393887442849 33.22902063901233 M557.6630846479288 0.020677534863352776 C556.3983701315609 9.94227422009156, 558.0648167577473 15.27863340226801, 558.1252541163317 34.73639471145975 M558.0167861526213 33.279318445424316 C378.47384464975556 32.22758011594205, 200.4856135350735 32.97173290028958, 0.5534442648291588 31.841415470341918 M557.96494215404 33.11766293371725 C361.22498254431235 32.39724832536456, 163.7295061193991 32.217632946984736, 0.5356668241322041 32.90657558764028 M1.6826533637940884 32.69383160645771 C4.394506753297152 28.925882751617394, 3.3205685027554646 20.500711148974347, 0.8926013074815273 -1.2422865591943264 M1.6365680117160082 32.10780144544947 C-0.043011754691541226 23.683693027467303, -0.4931613504289985 11.19131487987088, -0.7705824356526136 -0.7847513873130083" stroke="#000000" stroke-width="1" fill="none"></path></g><g transform="translate(260.69116665540906 554.6666793823243) rotate(0 179.5 13)"><text x="179.5" y="19" font-family="Virgil, Segoe UI Emoji" font-size="16px" fill="#000000" text-anchor="middle" style="white-space: pre;" direction="ltr">Now let me know if you want it to be colored</text></g><g><g transform="translate(673.5244167589838 511.40914708917796) rotate(0 9.41481720469551 7.37909527539523)"><path d="M1.9363006617873904 -2.4307548608630896 C4.955750960371256 0.08256662154964678, 16.309071036981347 14.441152163086935, 19.28672331615603 17.18894541165364 M-0.45708890676498415 2.42138154745102 C2.249230888323347 4.025502130262773, 14.755594739697178 11.200139292442405, 18.04328904650426 13.613315051035407" stroke="#000000" stroke-width="1" fill="none"></path></g></g><g><g transform="translate(705.524372369779 509.95459608598173) rotate(0 -6.882786857177507 8.30771798635078)"><path d="M0.5602299008518457 0.45754401944577694 C-1.0104457651913967 2.806490366465687, -9.856870296766761 13.18401437355498, -11.928934385458115 16.212411073561544 M-2.5801695093512538 -1.7623858943581583 C-4.323723713367264 0.6333206358371561, -12.454541586483918 14.486521769969855, -14.32580361520696 18.3778218670597" stroke="#000000" stroke-width="1" fill="none"></path></g></g><g><g transform="translate(672.069893499041 558.3181741887878) rotate(0 8.723429843072154 6.641266220391458)"><path d="M-1.7533922281116245 0.4037568237632514 C1.2508699725184447 3.372401978470604, 16.360280968305272 13.062413766968849, 19.20025191425598 15.127904294194105 M2.4902420631051063 -1.8453718534111978 C5.173128792779009 0.4612481095122498, 14.83460434802552 7.6329429098602155, 17.90987602642989 10.433423041240694" stroke="#000000" stroke-width="1" fill="none"></path></g></g><g><g transform="translate(704.069849109836 556.8636231855911) rotate(0 -6.285956218456022 9.709105734174955)"><path d="M0.4037568237632514 1.7456398759037253 C-0.9912232878646061 4.828026741302846, -8.755712564707203 13.835565287157094, -11.053847303817156 16.740928964283103 M-2.821585114002228 0.2249619984626774 C-4.294066176920216 3.7522624713002037, -12.195612514163457 15.491771750955973, -12.975669260675195 19.19324946988725" stroke="#000000" stroke-width="1" fill="none"></path></g></g><g transform="translate(155.81013580068435 601.0714776175365) rotate(0 278.28574044363836 17.714276994977695)"><path d="M0.4781934276223183 1.2749447569251062 C124.67163943460609 3.2867342486021247, 247.42050688934378 2.7299952520963875, 558.017331642551 0.6618078455328942 M0.6113803498446941 -0.0591326467692852 C185.29453998957786 -1.351062866329224, 370.8119395890278 -1.1503289424171754, 556.8375972553023 -0.6967990390956402 M557.2476760356553 0.6160073839128017 C555.6020064787754 7.5219756645606655, 558.2460760311969 18.092063665667514, 559.8750751226075 39.225887643971646 M556.3883378359355 -0.4982312899082899 C559.0117083603054 8.262514247674808, 556.1653634720951 16.40204587229404, 558.1394032689609 36.609840267204845 M557.06396922533 35.533120157250366 C338.6771506073863 34.95551442710192, 119.59624171844659 35.11934733001024, -0.9815993294119836 35.04732394410034 M556.4267872377166 34.921396068909374 C360.8050034297678 31.352460328014335, 164.64143419091084 31.386243263156853, -0.5010431416332722 35.17506421027442 M-2.9191024266183376 31.435318696179593 C2.3939110234365946 20.71015807416037, -3.423483352364492 12.003365219475125, 3.534842375665903 -1.6236842311918736 M1.7799701374024153 36.36705654194316 C-1.0794846007954817 24.30130136967753, -1.4723802397382002 16.970411386010543, -1.6515854317694902 0.3196230549365282" stroke="#000000" stroke-width="1" fill="none"></path></g><g transform="translate(199.52449126943435 601.8571657453266) rotate(0 226 13)"><text x="226" y="19" font-family="Virgil, Segoe UI Emoji" font-size="16px" fill="#000000" text-anchor="middle" style="white-space: pre;" direction="ltr">...and now please let me know which design suits you best</text></g><g><g transform="translate(675.2387991783223 612.214323266761) rotate(0 9.35630163453186 7.353067822673097)"><path d="M-2.5414597842842337 0.39475281573832044 C-0.3016650693999128 2.9533935374495592, 11.985128085620007 10.990946999925974, 15.767780542813899 13.502333413572433 M1.2743664050102232 -1.8592637515068056 C4.217789013819258 1.2547779433654944, 18.164368471882543 14.516965612136921, 21.254063053347828 16.56539939685297" stroke="#000000" stroke-width="1" fill="none"></path></g></g><g><g transform="translate(707.2387547891174 610.7597722635643) rotate(0 -7.544470044662376 9.9610594900156)"><path d="M0.39475281573832044 -1.6868314955383539 C-1.4102317288856507 2.338236881103952, -10.827179331750077 18.463253360523975, -12.679418184438827 21.6089504755696 M-2.8354770120978356 3.5691490253806117 C-4.940536343066971 7.110872401279051, -13.95158981188675 15.431633349864875, -15.483692905062917 18.063911230157846" stroke="#000000" stroke-width="1" fill="none"></path></g></g><g transform="translate(471.0958849636307 1014.7143609183178) rotate(0 31 13)"><text x="31" y="19" font-family="Virgil, Segoe UI Emoji" font-size="16px" fill="#000000" text-anchor="middle" style="white-space: pre;" direction="ltr">Total:  </text></g><g transform="translate(653.5244491261119 1013.2619581676669) rotate(0 43.99998982747388 18.666636149088617)"><path d="M2.2475633658468723 -3.8687672056257725 C35.92287303261336 1.8216007314883782, 68.58207323282711 -2.4453802741802617, 86.77261666829384 1.9612712226808071 M0.46190556697547436 0.643623473122716 C27.899682792526182 -1.934428508511009, 55.02285239783763 -2.2995008184818646, 89.51533407780028 -0.3266544919461012 M90.03544835622108 -1.8903208412230015 C88.86815558384565 11.077930864988614, 90.84493921707777 19.714574752596715, 89.23520843560493 39.0617433947823 M89.68174690815306 0.5870794672518969 C87.52392982037286 13.697944499949388, 90.00857286246041 27.928623451714262, 86.41991675707197 38.1171289303652 M89.36312191064155 37.573096887519114 C55.381373131807784 36.36371963247205, 21.01754808954628 40.238256265963564, 3.15812099352479 34.99175073330616 M87.10715783449507 35.93117722061788 C68.9609024277295 37.331995831718274, 52.86856967416216 36.13536147951109, -0.8530486542731524 35.82168187884008 M0.2360771931707859 41.015463845183604 C-1.2251756260727416 33.25039202145056, -1.999162561688281 24.625147925988998, -3.8555369339883327 1.3766594491899014 M-1.0233972985297441 36.922274968897455 C1.0446683570329878 27.952882143855764, 1.0903045937006208 22.713288589443955, 1.979783384129405 -1.876264689490199" stroke="#000000" stroke-width="1" fill="none"></path></g><g transform="translate(674.0245406788463 1018.2619378226151) rotate(0 23.5 13)"><text x="23.5" y="19" font-family="Virgil, Segoe UI Emoji" font-size="16px" fill="#000000" text-anchor="middle" style="white-space: pre;" direction="ltr">submit</text></g><g transform="translate(239.7625516302973 673.0475692749025) rotate(0 209.00000000000006 25.5)"><text x="209" y="18.5" font-family="Virgil, Segoe UI Emoji" font-size="16px" fill="#000000" text-anchor="middle" style="white-space: pre;" direction="ltr">Also please state with yes or now whether you wish </text><text x="209" y="44" font-family="Virgil, Segoe UI Emoji" font-size="16px" fill="#000000" text-anchor="middle" style="white-space: pre;" direction="ltr">your design to be colored. </text></g><g transform="translate(355.61973517754444 741.878390621608) rotate(0 17.12664359368199 14.104303766828934)"><path d="M-0.19473182782530785 0.09993904456496239 C12.557640867339376 0.5062470177301795, 25.555500775638826 2.804020498145524, 30.83241974800452 -0.6921653188765049 M0.9219266455620527 -1.6788920741528273 C5.469144064799218 0.9078559446083503, 15.802400836453376 -2.0697632861388726, 34.86088963277265 1.577642323449254 M33.48248898475989 0.7999620996415615 C33.09511513381047 7.742233476692806, 36.58056957392735 12.280753480453034, 32.71216773479804 28.831512724691855 M35.32660361058637 -1.9429346304386854 C34.908293129325585 6.884174475218797, 33.92628997695513 10.432598964787413, 33.50663175113126 26.404045145669805 M36.70095157116278 27.416077887350546 C23.831889081629058 27.202635541971713, 14.303284508355098 26.699299708422213, -0.02834152802824974 28.134708082014548 M33.49854506976529 28.051848929086553 C24.398002484180054 27.006103603445542, 14.284060774449305 28.07643893202449, 0.1087863128632307 27.43271575466715 M3.6653678454458714 31.179875051313864 C2.501384651459598 18.534827848218306, 1.5497892258538242 13.121527318706734, 3.7948344983160496 -3.5439317859709263 M1.8578560035675764 28.775755744138586 C1.109592094241446 18.446311652194346, -1.4702313401114289 5.303637045723736, -1.7985454518347979 -1.587505517527461" stroke="#000000" stroke-width="1" fill="none"></path></g><g><g transform="translate(364.17825646502644 753.8277854529027) rotate(0 2.874331301315067 3.603589979676258)"><path d="M-0.0376101341098547 -1.0787836167961358 C1.3205097378462203 0.1568715131424625, 7.732279468660377 6.818811396331965, 9.251213880207924 9.1331071461843 M-3.5025512775778775 -4.132719961702824 C-2.577764121451016 -2.8072572903938338, 5.431144987751866 9.34295012816427, 7.249908889484196 11.339899921055292" stroke="#5c940d" stroke-width="1" fill="none"></path></g></g><g><g transform="translate(372.4679830054882 766.2694635485569) rotate(0 14.076021277681264 -18.05449546190391)"><path d="M-0.37795887850224963 0.3469758179038762 C5.077786800948363 -5.705853667813189, 26.6403322328507 -30.418732628512615, 32.17970332428862 -36.45596674171178 M-4.027660768926144 -1.9329768338799478 C1.0391703770683032 -7.492584115547583, 23.703532972596996 -27.749157668563953, 29.54524906732191 -32.83740478177456" stroke="#5c940d" stroke-width="1" fill="none"></path></g></g><g transform="translate(490.00922229961117 743.4945447907481) rotate(0 17.12664359368199 14.104303766828934)"><path d="M2.2337042652070522 -0.8614141903817654 C11.559528352264673 2.78825619934737, 14.149203605093778 -2.326821892274029, 32.700105594988905 2.371354464441538 M0.8929353374987841 -1.1183235961943865 C14.80444537948212 1.471530420757249, 25.98530547334534 0.2725205850371867, 36.02929806016012 1.8208407443016768 M31.00693027913197 -0.894317265599966 C32.6758196991542 9.527916195200637, 34.874033395633994 18.507648587886006, 38.09192781388386 27.23029027664088 M34.49785684845968 1.622110752388835 C35.36971440753511 8.487915306177989, 34.57148322305254 17.284534603009135, 35.92341475985571 26.936659283647167 M30.967752742167555 32.17540345870875 C22.124539965892488 32.10370697638484, 10.063488902263906 31.428043862790787, 3.5457361303269863 24.437354547614085 M35.25957303545996 26.632780976304637 C27.09713943755166 30.65260140614957, 17.915603743085747 29.015195116572087, 1.2881078738719225 26.463787205228435 M-1.3912746347486973 29.99071357929133 C-0.039364114173694675 19.732254042145797, -0.24357809103374106 9.970014140010026, 0.6505023799836636 0.40038419142365456 M1.893721105530858 28.02009261370622 C0.08634465329445917 20.03972697205358, 1.7988365828255566 12.018862596880435, 0.7069171089679003 -0.4042330104857683" stroke="#000000" stroke-width="1" fill="none"></path></g><g><g transform="translate(501.4601628761321 754.8007524037297) rotate(0 8.234643552045384 6.685037196559165)"><path d="M1.247474231943488 0.02865014411509037 C4.282481433650817 2.228782001802502, 15.387028680249877 10.098915557906915, 17.989136788329276 12.226898901800382 M-1.5198496842384341 -2.424107873439789 C1.1414010221520714 0.33623854586897073, 12.987659264584211 12.697851960530768, 15.626871396755966 15.794182266558277" stroke="#c92a2a" stroke-width="1" fill="none"></path></g></g><g><g transform="translate(522.1073446673781 752.9148702784031) rotate(0 -20.941028426364028 14.855386342949487)"><path d="M1.4372400071471931 -1.3876149978488683 C-5.6953224985177275 4.154191451303438, -34.06804146238911 25.70315601792075, -41.10106897965071 31.098387683747863 M-1.227068202495575 4.030797336101532 C-8.882662080389753 8.858568240063663, -36.46313413432487 21.33145567366121, -43.319296859875294 26.38038136277959" stroke="#c92a2a" stroke-width="1" fill="none"></path></g></g><g transform="translate(748.1910852752007 505.3333663940431) rotate(0 4 13)"><text x="4" y="19" font-family="Virgil, Segoe UI Emoji" font-size="16px" fill="#c92a2a" text-anchor="middle" style="white-space: pre;" direction="ltr">*</text></g><g transform="translate(748.1910852752007 550.6667455037435) rotate(0 4 13)"><text x="4" y="19" font-family="Virgil, Segoe UI Emoji" font-size="16px" fill="#c92a2a" text-anchor="middle" style="white-space: pre;" direction="ltr">*</text></g><g transform="translate(750.8578129770235 606.6666793823243) rotate(0 4 13)"><text x="4" y="19" font-family="Virgil, Segoe UI Emoji" font-size="16px" fill="#c92a2a" text-anchor="middle" style="white-space: pre;" direction="ltr">*</text></g><g transform="translate(561.524418608534 697.3333867390951) rotate(0 4 13)"><text x="4" y="19" font-family="Virgil, Segoe UI Emoji" font-size="16px" fill="#c92a2a" text-anchor="middle" style="white-space: pre;" direction="ltr">*</text></g></svg>