<svg version="1.1" xmlns="http://www.w3.org/2000/svg" viewBox="0 0 1168.8378528958538 1072.7891430642362">
  <!-- svg-source:excalidraw -->
  <defs>
    <style>
      @font-face {
        font-family: "Virgil";
        src: url("https://excalidraw.com/FG_Virgil.woff2");
      }
      @font-face {
        font-family: "Cascadia";
        src: url("https://excalidraw.com/Cascadia.woff2");
      }
    </style>
  </defs>
  <rect x="0" y="0" width="1168.8378528958538" height="1072.7891430642362" fill="#ffffff"></rect><g transform="translate(11.187619945007953 46.93332926432231) rotate(0 436.40000915527344 503.16191064743794)"><path d="M-1.0088450208306312 -0.3580005154013634 C311.92558714476036 5.687883131860455, 624.639241417285 3.266932766793927, 873.8072554334998 -0.45683793872594836 M0.36840791776776316 -0.5814014323055744 C217.65461562188014 4.9386785495975545, 433.87383190143197 5.579529784987264, 873.0375248201192 0.6767235629260541 M871.4937914595008 -0.0763268455862999 C868.103690069127 368.3334256006515, 868.0407315901994 736.9635897290182, 874.193246100843 1007.6224866768442 M872.0759554155171 0.7599940173327924 C877.6861055613444 293.94951628295024, 878.7024003983424 588.056799016097, 872.9193467624485 1006.4275230405949 M873.6851165995001 1007.7033273598277 C679.1791116161164 1013.0724893347586, 483.1377779584163 1012.381308867153, -0.5182562127709389 1007.1781746288858 M872.4315749652684 1006.7951013563298 C671.882035321734 1001.7265312432623, 470.58606089426394 1001.0486156939842, -0.11977779790759087 1006.9297384975575 M-1.5362856164574623 1005.080829276713 C6.697708663526834 674.8147348335838, 8.477587709013285 343.8164153538334, -1.3426934018731118 -0.35320181697607045 M0.40824019983410836 1006.8865074871205 C1.223755541589715 692.1011891837053, 1.7963415773181697 377.2341684571945, -0.4873073570430279 0.3865681760013104" stroke="#000000" stroke-width="1" fill="none"></path></g><g transform="translate(19.587827464538975 46) rotate(0 436.6666412353517 110.66666920979787)"><path d="M-0.3580005154013634 -1.0428789392113686 C181.57002790984126 3.10759891707269, 359.1283801265878 5.412526790684141, 872.8764445319774 -0.824140240252018 M-0.5814014323055744 0.7714611776173115 C279.02191602035776 -3.1099059482168627, 559.4821785108629 -2.979922451550908, 874.0100060336295 0.5231060035526752 M873.1683371822621 -2.5352516117700294 C871.8432518559076 54.042524554013696, 873.8557489792281 116.43848334677016, 876.1397489815616 221.06678069791346 M874.9756591658186 -1.5749421468392144 C875.0742171620702 82.45818434172746, 875.0052297307819 163.93162089955047, 873.5573859853716 220.0085514824594 M874.7127885356548 222.6705996895823 C577.7628533373874 225.45236296630318, 280.96248021187375 224.68001117682869, 0.8543533340096474 220.22312439928382 M873.804562532157 221.69318484539718 C652.3249718609023 218.45730147117604, 430.09192583686456 217.99582226032246, 0.6059172026813031 221.56262904877394 M-2.686154201594854 220.32260156708702 C-3.4255279409991246 177.4687323564314, -3.9843625149547828 125.0312112305407, -0.7632828938702301 0.4216030331383332 M1.2159867942755835 220.955558171613 C-1.0191124950587442 159.63799821717944, -2.530693028710306 95.17036683364202, 0.8353888963045937 -1.6587621754618176" stroke="#000000" stroke-width="1" fill="none"></path></g><g transform="translate(327.58785798211693 132.50008646647075) rotate(0 118.53838054950506 22.333318074544422)"><text x="0" y="32.66663614908885" font-family="Virgil, Segoe UI Emoji" font-size="27.48716070713159px" fill="#000000" text-anchor="start" style="white-space: pre;" direction="ltr">Hamsa Handmade.</text></g><g><g transform="translate(908.9212726956594 61.33332824707031) rotate(0 0.16691717732635425 99.64462439915792)"><path d="M-1.8250381436198948 2.783769324049353 C-1.9446393954505687 35.325183376069695, -3.0456822349380293 162.5400431588085, -2.4830862974376484 194.62198341016966 M2.3797026506066326 1.8266474327445028 C3.281333629439258 34.77573449956459, 2.966071856369491 164.77511799748157, 2.6860985261200856 197.4626013655712" stroke="#e67700" stroke-width="1" fill="none"></path></g></g><g transform="translate(771.7547077542531 228.50008138020803) rotate(0 50.5 13)"><text x="50.5" y="19" font-family="Virgil, Segoe UI Emoji" font-size="16px" fill="#000000" text-anchor="middle" style="white-space: pre;" direction="ltr">Login/Sign up</text></g><g transform="translate(19.587791860697905 10) rotate(0 35.50000000000003 13)"><text x="0" y="19" font-family="Virgil, Segoe UI Emoji" font-size="16px" fill="#000000" text-anchor="start" style="white-space: pre;" direction="ltr">About me</text></g><g transform="translate(373.7160983229114 313.3334223429365) rotate(0 67 21.5)"><text x="0" y="31" font-family="Virgil, Segoe UI Emoji" font-size="27.48716070713159px" fill="#000000" text-anchor="start" style="white-space: pre;" direction="ltr">About me.</text></g><g transform="translate(156.05851918123642 804.3452279227126) rotate(0 23.269224313589177 18.333328247070312)"><text x="23.269224313589152" y="27.666656494140483" font-family="Virgil, Segoe UI Emoji" font-size="22.564096304086465px" fill="#000000" text-anchor="middle" style="white-space: pre;" direction="ltr">Help.</text></g><g transform="translate(260.3920152749864 807.5118488130115) rotate(0 41.5 17.5)"><text x="41.5" y="26" font-family="Virgil, Segoe UI Emoji" font-size="22.564096304086465px" fill="#000000" text-anchor="middle" style="white-space: pre;" direction="ltr">Profile.</text></g><g transform="translate(407.7251858479034 806.0118538992751) rotate(0 56.5 17.5)"><text x="56.5" y="26" font-family="Virgil, Segoe UI Emoji" font-size="22.564096304086465px" fill="#000000" text-anchor="middle" style="white-space: pre;" direction="ltr">Site rules.</text></g><g transform="translate(598.2253282632685 803.0119251069568) rotate(0 55 17.5)"><text x="55" y="26" font-family="Virgil, Segoe UI Emoji" font-size="22.564096304086465px" fill="#000000" text-anchor="middle" style="white-space: pre;" direction="ltr">About me.</text></g><g transform="translate(156.2253079182159 852.3452787853416) rotate(0 15 13)"><text x="15" y="19" font-family="Virgil, Segoe UI Emoji" font-size="16px" fill="#000000" text-anchor="middle" style="white-space: pre;" direction="ltr">FAQ</text></g><g transform="translate(150.22536895337214 889.6786019461501) rotate(0 37 13)"><text x="37" y="19" font-family="Virgil, Segoe UI Emoji" font-size="16px" fill="#000000" text-anchor="middle" style="white-space: pre;" direction="ltr">Contacts</text></g><g transform="translate(262.05870228670517 861.6786731538318) rotate(0 38.5 13)"><text x="38.5" y="19" font-family="Virgil, Segoe UI Emoji" font-size="16px" fill="#000000" text-anchor="middle" style="white-space: pre;" direction="ltr">My profile</text></g><g transform="translate(258.8919745848824 933.6787952241443) rotate(0 39 13)"><text x="39" y="19" font-family="Virgil, Segoe UI Emoji" font-size="16px" fill="#000000" text-anchor="middle" style="white-space: pre;" direction="ltr">My orders</text></g><g transform="translate(255.55864125154937 897.6786324637283) rotate(0 49 13)"><text x="49" y="19" font-family="Virgil, Segoe UI Emoji" font-size="16px" fill="#000000" text-anchor="middle" style="white-space: pre;" direction="ltr">My favorites</text></g><g transform="translate(405.0586412515489 864.3452991303943) rotate(0 59.5 13)"><text x="59.5" y="19" font-family="Virgil, Segoe UI Emoji" font-size="16px" fill="#000000" text-anchor="middle" style="white-space: pre;" direction="ltr">Orders/delivery</text></g><g transform="translate(406.55866159660115 900.3453093029216) rotate(0 50 13)"><text x="50" y="19" font-family="Virgil, Segoe UI Emoji" font-size="16px" fill="#000000" text-anchor="middle" style="white-space: pre;" direction="ltr">Return policy</text></g><g transform="translate(602.3918932046738 855.0120064871658) rotate(0 27.5 13)"><text x="27.5" y="19" font-family="Virgil, Segoe UI Emoji" font-size="16px" fill="#000000" text-anchor="middle" style="white-space: pre;" direction="ltr">History</text></g><g transform="translate(600.0585598713408 885.6786121186756) rotate(0 16.5 13)"><text x="16.5" y="19" font-family="Virgil, Segoe UI Emoji" font-size="16px" fill="#000000" text-anchor="middle" style="white-space: pre;" direction="ltr">Blog</text></g><g transform="translate(600.7252265380077 911.0119149344314) rotate(0 42.5 13)"><text x="42.5" y="19" font-family="Virgil, Segoe UI Emoji" font-size="16px" fill="#000000" text-anchor="middle" style="white-space: pre;" direction="ltr">Who am I?</text></g><g><g transform="translate(11.225358780845966 979.1786324637283) rotate(0 440.71119026633625 1.2202802036431422)"><path d="M-1.2253587808459996 -2.0937102172523736 C144.62766310500194 -2.277485518592099, 730.9958498208268 0.050565799884498275, 877.4866637853288 0.7282192043960096 M3.3049222388863564 2.9413932833075522 C149.80379521627813 3.0623245610172547, 735.9589813873962 5.267748995510241, 882.6477393135184 4.2850404416769745" stroke="#000000" stroke-width="1" fill="none"></path></g></g><g transform="translate(331.2253079182159 997.8452686128162) rotate(0 124.66664632161456 16.66666666666697)"><path d="M117.17661707764614 1.9761966088576912 C133.6155292119857 1.7588620567431592, 155.5370020045749 2.029869740231526, 171.48425030933402 2.750933775150786 C187.43149861409313 3.471997810070046, 201.07055755522845 5.27787262721442, 212.86010690620088 6.302580818373253 C224.64965625717332 7.327289009532085, 235.85424767849145 7.330747439453663, 242.2215464151687 8.89918292210378 C248.58884515184593 10.467618404753896, 252.2086602753761 13.041316342141318, 251.06389932626433 15.713193714273952 C249.91913837715256 18.385071086406587, 243.39263009680724 22.56774620032303, 235.352980720498 24.93044715489959 C227.31333134418878 27.29314810947615, 215.77484971930798 28.841814310417305, 202.8260030684089 29.889399441733325 C189.87715641750984 30.936984573049344, 173.70176258377205 30.377529044311473, 157.65990081510353 31.21595794279571 C141.618039046435 32.05438684127995, 123.09519446560162 34.718289495362455, 106.57483245639769 34.91997283263875 C90.05447044719375 35.12165616991504, 72.58361501843375 33.8256038571986, 58.53772875987991 32.42605796645347 C44.491842501326076 31.026512075708343, 31.71776491453108 28.722433350587533, 22.299514905074687 26.52269748816798 C12.881264895618294 24.32296162574843, 5.197519382409451 21.384426436500462, 2.0282287031415507 19.227642791936162 C-1.1410619761263496 17.070859147371863, -0.6317394592171084 15.88699721998522, 3.2837708294672865 13.581995620782193 C7.199281118151681 11.276994021579165, 15.198697613376012 7.496190366149321, 25.52129043524792 5.397633196717999 C35.84388325711983 3.2990760272866773, 49.869304728713814 1.7342722727088966, 65.21932776069873 0.9906526041942616 C80.56935079268365 0.2470329356796267, 106.93090412284909 0.9576579560056434, 117.62142862715744 0.9359151856301899 C128.3119531314658 0.9141724152547365, 126.1875062919242 0.996629639575934, 129.3624747865489 0.8601959819415406 C132.53744328117358 0.7237623243071472, 136.7020953508968 -0.11352767055779811, 136.67123959490564 0.11731323982382946 M25.457288813664206 5.300142636759208 C33.58884143769003 4.366881883412478, 51.42175731487689 5.584387063517655, 66.49878137334758 4.285597706422378 C81.57580543181827 2.9868083493271005, 98.95880323653098 -2.0202334124567707, 115.91943316448834 -2.4925935058124544 C132.8800630924457 -2.964953599168138, 152.27032520417077 0.11423053118441207, 168.26256094109172 1.451437146288276 C184.25479667801267 2.78864376139214, 199.5312351425503 3.654189431423763, 211.87284758601402 5.530646184810729 C224.21446002947775 7.407102938197696, 236.19922043366168 10.763346739130862, 242.31223560187405 12.710177666610075 C248.42525077008642 14.65700859408929, 249.31752826224067 15.783744264687112, 248.55093859528822 17.211631749686013 C247.78434892833576 18.639519234684915, 245.43284698966735 18.985034331895235, 237.71269760015923 21.27750257660348 C229.9925482106511 23.569970821311728, 215.95436728426014 29.35524163948163, 202.23004225823942 30.966441217935497 C188.5057172322187 32.57764079638936, 170.87617678991867 30.399145017146605, 155.36674744403487 30.944700047326677 C139.85731809815107 31.49025507750675, 124.89459630663065 33.90909926887743, 109.17346618293661 34.23977139901593 C93.45233605924257 34.570443529154424, 76.0560856799015 34.67785533122271, 61.03996670187064 32.92873282815765 C46.02384772383977 31.17961032509259, 29.152050941007175 26.13290848667035, 19.076752314751417 23.745036380625574 C9.00145368849566 21.3571642745808, 3.120396378026998 20.885395083351792, 0.5881749443361031 18.601500191888995 C-1.944046489354792 16.317605300426198, -0.2874943549256699 12.201248830885712, 3.883423712606046 10.041667031848789 C8.054341780137761 7.882085232811866, 21.993827520890367 6.7139415698236995, 25.613683349526397 5.644009397667453 C29.233539178162427 4.574077225511207, 24.499555589488807 3.4753153010095112, 25.602558684422235 3.6220739989113113 C26.705561779355662 3.7688326968131114, 30.64554574738887 5.572157986529213, 32.23170191912696 6.524561585078255" stroke="#000000" stroke-width="1" fill="none"></path></g><g transform="translate(404.22530791821544 999.0119251069568) rotate(0 47 13)"><text x="47" y="19" font-family="Virgil, Segoe UI Emoji" font-size="16px" fill="#000000" text-anchor="middle" style="white-space: pre;" direction="ltr">social media</text></g><g transform="translate(11.68298272635053 781.4763112749374) rotate(0 436.6667429606123 98.66659164428711)"><path d="M-1.1731632962822915 0.6345251575112343 C195.4600939103753 1.8990827933639465, 394.78565916146647 1.6319593325942932, 873.2101388995851 1.1159184470772743 M-0.7287893287837506 -0.1896897204220295 C311.377564691226 -6.858895235012783, 622.2994468179252 -6.5335804986465105, 872.7204535094405 0.3124507777392864 M876.676639096191 1.346908811479807 C876.1519656490136 76.36904152758545, 874.2210861753274 155.63605110526336, 870.5579508704449 195.4807471074164 M874.2331019857282 1.3670496623963118 C872.3700869989569 44.33418352715366, 871.216388971823 90.83863848260926, 873.9067124941702 195.55308595113456 M872.8657771651948 196.5638209834695 C572.4100690723315 190.8774928989332, 267.51961824265175 191.5522487106245, 0.195092748105526 197.05522709041833 M873.1586717454101 197.27810255214573 C591.1882896260229 201.4927601379017, 307.7602422539501 202.6338784021, -0.7675762407481671 196.86046613380313 M2.8856515251100063 194.6179518736899 C-4.358012662081095 119.90763223076085, -2.6651967622321573 46.09184765252908, -3.4478880800306797 -1.0055111609399319 M1.6708187479525805 197.42496570758522 C1.3040822864404769 144.61781779942712, 2.306248974882707 90.08370875540477, -1.7075078468769789 0.8887234013527632" stroke="#000000" stroke-width="1" fill="none"></path></g><g transform="translate(13.111659513227607 978.0952431815017) rotate(0 433.999989827474 35.333353678385265)"><path d="M0.6345251575112343 -1.2361217752099039 C191.1029777309253 6.484756376820881, 380.37304315834325 4.968181564885456, 869.1158981020253 0.899358867108822 M-0.1896897204220295 0.2875055082142353 C181.61755863649253 6.445219677472061, 363.78204499999885 5.712858813786453, 868.3124304326873 0.7114922530949116 M869.3468884664278 0.6352389417588711 C868.837501689774 23.813558035568988, 871.3544273823322 47.44286208421309, 866.1475434737902 67.71980668728543 M869.3670293173443 0.8542535323649645 C868.5048356987942 17.64598295496906, 870.3473679162968 36.46408147242179, 866.2198823175083 71.58813180712355 M867.2306173498432 71.9788776462276 C689.9155208691254 67.29415800130695, 513.5337755236615 68.83194415128558, -0.27795619815587996 71.04306617428851 M867.9448989185195 71.06447921668482 C562.5513750264744 68.66201298922486, 258.9984387503961 68.38174410551972, -0.47271715477108955 71.33692940150691 M-2.715231414884329 67.73107947533322 C-3.045187517269053 45.67704215116211, -1.1288859091834207 19.725112828699984, -1.0055111609399319 -1.029249731451273 M0.09178241901099682 69.09585543659819 C2.610661557854703 54.04570304450165, 2.1988793527498753 36.85456134881625, 0.8887234013527632 -0.432693300768733" stroke="#000000" stroke-width="1" fill="none"></path></g><g><g transform="translate(908.3377715156457 168.16670735677235) rotate(0 95.17116014014925 2.804131886735604)"><path d="M1.11041902564466 -2.1632131066173312 C33.14495211703082 -0.5257943318535883, 160.3243363207827 6.558029535785317, 192.07362656854093 7.771476880088448 M-1.7313062882423402 2.8341602540016178 C30.190194591681163 3.9203661815325423, 159.1958422001203 3.2049977072079985, 191.32311700582505 4.084375021457673" stroke="#e67700" stroke-width="1" fill="none"></path></g><g transform="translate(908.3377715156457 168.16670735677235) rotate(0 95.17116014014925 2.804131886735604)"><path d="M159.95002157465555 18.00303293415785 C175.02001856751644 14.157366006930904, 179.57849782181611 10.746967174523501, 193.5715141735971 0.46406054630875637 M163.7590897832159 13.534528350694778 C174.69260203037285 10.530293147667745, 184.03338116263524 7.100519815870346, 193.10184763856233 5.190747882649303" stroke="#e67700" stroke-width="1" fill="none"></path></g><g transform="translate(908.3377715156457 168.16670735677235) rotate(0 95.17116014014925 2.804131886735604)"><path d="M160.1363710106001 -2.5173295449398942 C174.85043043813047 -0.30330059451739544, 179.35389382818565 2.344518408159715, 193.5715141735971 0.46406054630875637 M163.94543921916045 -6.985834128402967 C174.43146804853907 -1.8854252123089807, 183.6986392929617 2.7903292893247675, 193.10184763856233 5.190747882649303" stroke="#e67700" stroke-width="1" fill="none"></path></g></g><g transform="translate(1105.8378122057502 158.66668192545603) rotate(0 26.5 13)"><text x="26.5" y="19" font-family="Virgil, Segoe UI Emoji" font-size="16px" fill="#e67700" text-anchor="middle" style="white-space: pre;" direction="ltr">Header</text></g><g><g transform="translate(897.6712269192915 480.116888995763) rotate(0 110.86117768338568 0.3183872493441413)"><path d="M2.7401304747909307 2.4381486330181357 C39.37826892133387 2.498455128399397, 184.6260310225602 -1.3930762239899954, 220.9392497049023 -1.8013741343297625 M0.7831056618690493 1.2934040808677674 C37.153365781837024 2.0123418096233068, 183.4201546290185 2.7075311249140186, 219.93497285445522 1.7107779357008077" stroke="#5c940d" stroke-width="1" fill="none"></path></g><g transform="translate(897.6712269192915 480.116888995763) rotate(0 110.86117768338568 0.3183872493441413)"><path d="M195.3163265390067 15.459515928123134 C201.23213013670454 10.88551991029377, 213.33386244835285 0.9082975499445256, 223.7349429411192 -1.933168708217945 M192.1315781930207 12.472106837499874 C197.98937983775681 10.248066636129703, 209.06488041083432 7.6717071395811995, 221.6593554356445 3.3823545231840946" stroke="#5c940d" stroke-width="1" fill="none"></path></g><g transform="translate(897.6712269192915 480.116888995763) rotate(0 110.86117768338568 0.3183872493441413)"><path d="M195.1402757175355 -5.060937490212888 C200.7988041125314 -2.6684467165996493, 212.96033346282255 -5.67573655535611, 223.7349429411192 -1.933168708217945 M191.9555273715495 -8.048346580836148 C198.00946346855952 -4.601840261961388, 209.13360490919027 -1.5086286169912633, 221.6593554356445 3.3823545231840946" stroke="#5c940d" stroke-width="1" fill="none"></path></g></g><g transform="translate(1121.8378528958538 459.9999745686846) rotate(0 18.5 13)"><text x="18.5" y="19" font-family="Virgil, Segoe UI Emoji" font-size="16px" fill="#5c940d" text-anchor="middle" style="white-space: pre;" direction="ltr">Body</text></g><g><g transform="translate(895.58791393101 271.6666234334316) rotate(0 1.9634313133316255 246.10196126890173)"><path d="M2.2726644184440374 -0.21585728786885738 C2.448917053063398 81.87866301482164, 4.291328874328163 412.28739898578544, 3.7976462825070936 495.0052704491612 M0.06187231779098479 -2.8013479113578796 C-0.20613838901650405 79.69741837588693, 1.835522015565064 408.381186298914, 2.619759843913825 490.8489931135025" stroke="#5c940d" stroke-width="1" fill="none"></path></g></g><g><g transform="translate(896.2666364942554 918.0357930747919) rotate(0 73.94575131244062 3.2316166711411825)"><path d="M-0.21585728786885738 1.9528572823852297 C24.65596190609983 2.184905253990291, 126.17389344217634 3.3823601734826902, 151.66906379683024 3.6649522480744054 M-3.77756117194891 0.5446688541769982 C20.643028247067836 0.8242501209366309, 124.25725166295722 5.1137021544516035, 150.28544575726693 5.918564488105767" stroke="#a61e4d" stroke-width="1" fill="none"></path></g><g transform="translate(896.2666364942554 918.0357930747919) rotate(0 73.94575131244062 3.2316166711411825)"><path d="M124.52948023304023 17.394068043185584 C129.0189833631806 15.418055664196157, 140.04475146290488 7.098038744053742, 151.7229732983381 4.810499534867995 M122.52081105969526 16.924401508150808 C131.8116539862428 14.401776427958177, 141.366376398246 10.44508429622529, 150.60306522814636 5.728043309338682" stroke="#a61e4d" stroke-width="1" fill="none"></path></g><g transform="translate(896.2666364942554 918.0357930747919) rotate(0 73.94575131244062 3.2316166711411825)"><path d="M125.27685013554756 -3.1135266625488125 C129.80997005397006 2.84732147554773, 140.5464486505794 2.465317395635503, 151.7229732983381 4.810499534867995 M123.26818096220259 -3.5831931975835882 C132.37683194060182 0.34089852565616097, 141.6961955701698 2.8423772467013766, 150.60306522814636 5.728043309338682" stroke="#a61e4d" stroke-width="1" fill="none"></path></g></g><g transform="translate(1055.5283668699988 910.0952126639236) rotate(0 25.5 13)"><text x="25.5" y="19" font-family="Virgil, Segoe UI Emoji" font-size="16px" fill="#a61e4d" text-anchor="middle" style="white-space: pre;" direction="ltr">Footer</text></g><g><g transform="translate(899.778427905155 772.4285917736247) rotate(0 -0.2801019711916979 143.91316557900382)"><path d="M1.573878017440438 -2.5342201326042413 C1.3865106271786694 45.15962353278366, -0.3004228412691725 239.0813907185777, -1.3400616294394698 288.11591927471267 M-1.0162552723288538 2.261749413907528 C-1.3164618074562942 50.03056460178562, -1.1648052953018708 242.9559521061514, -2.1340819598238427 290.3605512906115" stroke="#a61e4d" stroke-width="1" fill="none"></path></g></g><g transform="translate(121.51275167921995 396.83332061767624) rotate(0 137.9999542236328 159.00001525878906)"><path d="M0 0 C0 0, 0 0, 0 0 M0 0 C0 0, 0 0, 0 0 M-0.7812386773200581 7.207945370723598 C1.1937716348960141 4.5038287536817085, 3.887617670061827 2.877924946949358, 6.533544580223507 0.06978640815589965 M-0.6935581206949303 6.036094222267263 C0.9057963315890687 4.384435636028468, 2.1561824954451385 3.9784967218493086, 5.092282051178164 0.08624686038468421 M0.6356527307163584 12.573143002807676 C0.676942494482093 11.101194836544288, 7.412971931628618 7.32291773990689, 8.689581428420675 0.08374219193009136 M-0.5558517432678832 11.060679309486925 C3.7803237122527182 9.417764679985476, 6.2902984071280255 4.445285381796028, 11.64341801698221 -0.8702913542196392 M1.777841099486663 22.32803020151394 C6.254338260530952 14.590838074731613, 9.3631455053535 3.578955867000154, 16.682924214288075 0.4727132364106348 M-1.2205155352642993 16.654914137814814 C5.100197811289851 15.771396143342972, 6.15066388254293 9.236420898424306, 16.878029414921482 -1.6041469884174893 M-2.4917113443650987 20.562053339271902 C5.012199500621538 18.759878151104395, 15.063506700876857 11.301824091029179, 20.273107277506853 0.9586143283336881 M1.7576297914794896 24.508021693392752 C6.418710768127045 13.987490341786257, 16.5846363879756 4.293973761633371, 19.444431595781708 -0.045218226110982584 M3.7189953895797387 28.766945877809277 C4.015050003846221 22.261248718148714, 15.15849529080693 10.649164141602032, 25.081220416959734 -2.472676702401346 M-1.6206146450201615 32.45096570602452 C6.326141978581183 25.523665175385844, 12.336877140177059 17.39887358341713, 25.25533512667975 2.218476192468101 M-2.1093947087508162 33.7286476509658 C5.121667959894346 25.7280420092847, 16.22152743375671 19.479564467679626, 27.95881040156523 0.4327266478224878 M1.319181766258506 38.543672825956094 C9.658263366056092 22.989712814697924, 22.218862314821166 7.1416951824770045, 29.940057772627867 1.224575212342966 M2.6248561005712503 38.54950474258118 C12.241641289470426 28.191959975550905, 21.29577856704592 22.489283406186033, 36.629281634279835 -3.111044546486763 M2.097152761337256 41.78161657843344 C10.293408161845012 31.47142280138168, 21.65950784197547 19.030816565829646, 38.1618843076763 1.1526029744279107 M-2.9485977794975824 45.53739822716348 C17.415822400309487 32.879884687788476, 30.816427777702458 7.333820075607797, 40.311368384022046 1.65770871828785 M1.4234581142663174 49.04744610437088 C14.379133767290604 33.70921912867491, 25.421596858080346 19.63443664325538, 43.17903874683731 -1.0262078262538665 M-1.2047720800388007 51.54777710832964 C16.869921853021985 39.9961797219613, 29.721044607173287 16.509987424677142, 45.84566255374837 3.710930016654377 M0.10319684005795438 56.515519098791586 C14.332488255299861 37.978350914791385, 28.465513990281245 20.685143389297885, 45.90871211416113 -0.8237392987880661 M-3.8968248980959146 58.64633496058772 C11.50322073640891 43.17927020162419, 23.454619575285573 27.94827379140733, 56.3180859123773 0.8181308522297748 M-1.8995650372375934 60.37707845260988 C18.7970254824119 41.80913526347513, 33.723645196793576 21.401389769757287, 54.48803467466003 -1.5851649981514804 M-2.188643493740919 69.45104286777745 C21.764914575265546 44.449296551079456, 33.53793107345119 25.976204307845848, 59.18641786286534 2.2090672995220864 M1.4431187184014291 66.24478519107173 C15.548151765113332 45.217113905130844, 34.375574426027086 24.54771275550104, 59.338103702384245 0.23622671657018302 M0.7519786229541907 70.02127816373853 C20.87084757954676 44.108555495828185, 44.408288133234244 18.55352106451557, 60.90376767413099 -0.838936637851738 M0.567397467996777 72.1043472144231 C18.558502033855603 52.65598283324366, 32.77497281929891 36.44181627138232, 64.72495571234603 -0.2711439595998755 M1.160164604945905 80.74695317297903 C10.423948351343714 58.36818303114137, 29.628532248352286 41.12400865802705, 67.04510224913075 -0.33831238538365227 M-1.3380533894013098 81.26614803857831 C14.202938020497664 60.30005866461127, 30.10288348014806 43.172448056968804, 67.82359422859564 -1.7519716357473598 M0.6413674711527335 83.6905481491159 C18.94020762079401 66.01278433104125, 33.45905208350217 42.75395496592984, 76.93071835678312 -1.0039234394566847 M0.5728807862194287 85.76977973356054 C29.894613587314876 53.93603092076347, 56.97586595712767 17.92179757846864, 74.27896201614531 0.06575763315095173 M-1.7021021254688335 93.24978791665718 C32.96863724771076 56.27069017092942, 62.94560395024743 24.317009255584267, 79.7527704000446 -1.5903887255628177 M1.8677816439092325 91.1092195652841 C22.336515622162153 62.90934424582488, 44.98776202081675 39.2468014797966, 81.26996884904531 -0.9040570119906732 M-3.3036626949907912 99.49967480944261 C26.359435601232107 61.37950292547072, 63.11632952553455 29.44231101810273, 81.19874264783368 -0.30475924008507604 M1.7406110446898566 99.63736293399498 C27.355295893065925 66.53447957289006, 56.82484160910425 33.2267587410839, 85.07046374230788 -0.4558078761490094 M-2.7256389974851345 103.0816174113119 C21.818465042847546 83.01791302659811, 37.60118915860892 58.398373643763236, 91.57797700310687 -0.14384140851542782 M-0.6439660254169439 103.51765211493912 C34.28585235344573 67.40462889840066, 68.09440476179971 27.953111350383736, 88.11326271998325 -1.367002068409775 M-0.25243912999537343 106.09255929677309 C28.26156373652977 79.70500204252471, 49.8276348788834 49.47930145395671, 96.4451452347827 1.6931262727630951 M0.1937414576390708 111.67570499903084 C31.853955412947208 69.30400371578153, 68.92282802408538 25.84480954948704, 94.55112104708374 -0.7484381437497518 M4.076858676397002 115.42701196944317 C16.49419748998578 96.41987227245805, 37.57856996505126 69.34277759718961, 100.7267767458176 0.4671498782585317 M-1.046636241129839 115.20384803129336 C33.99448946845996 78.95479795221033, 67.37775570517977 43.45972026498386, 101.3207609976595 0.6809705387453491 M-1.4049661753515181 121.43973150383016 C21.807117543169312 95.77822875699331, 40.853378917371586 75.09268752490351, 107.34473080513013 2.486803411587836 M-1.3815018476734338 122.08629285264095 C39.304172245599666 72.23729701639144, 82.25407453551938 28.271422774350796, 105.70384408672285 -0.7559808259012684 M1.974136554687071 125.28775148377377 C30.867152996413097 97.03283305221944, 56.78871364389406 64.67306784265446, 113.34272431567676 3.7709054472590466 M1.361622124030042 126.60366923831958 C22.44803518900416 95.85896743171014, 51.83294542899216 65.9096281060396, 112.39099883832402 -0.9696118467753152 M-1.3676891435592182 137.81951174311376 C32.868685383121715 96.81014019657866, 69.93158489530703 53.803418457112514, 119.8537450173855 1.3905520691119122 M-1.11158371499765 132.28465383857525 C35.86507917280029 88.09940980363982, 71.34000098537612 45.040433543892405, 116.38673398848476 1.3011760013692069 M-1.8593826171339174 142.4639871063582 C32.550099105237365 107.42333904628858, 56.372078507491516 78.31573095181062, 123.50687440018436 0.35824561098613117 M0.7820872842937092 140.85759891932227 C44.81175289466352 92.51141104757053, 86.97837938348923 39.98796662698649, 121.35376139822682 -0.5594718812217536 M1.190446652881505 142.57272032712396 C29.504159579653166 107.94175091440678, 59.072620987859665 72.18005527876561, 127.83411061702981 0.5170233973897709 M-0.5917189880835991 147.6550653005838 C49.605893078976344 87.36829282682694, 99.04948155447521 30.63254625199137, 127.95731896660044 -0.09273447863387929 M-0.24851916247348638 152.11505761319822 C32.533554519680024 122.53875498858402, 59.23519458694007 87.07027638637055, 133.16649579631832 3.4756340908000407 M-0.912872719638177 154.13832691641616 C47.537565749271955 98.78429377956034, 92.33638914697674 46.58267460651097, 130.95385820612574 1.464404306018857 M-1.0152818539295432 155.31691662542653 C34.943285120157455 119.66892971183773, 64.58744176576121 79.79143892529238, 137.16585551935125 -2.344329747203763 M0.3769246344061816 160.12905907920413 C32.964211212425106 121.68320056198858, 65.83891100042439 82.71667000715634, 139.1260236123016 0.724189058675774 M-3.0681790354006724 163.6897469388522 C28.83421936129608 133.30792913902422, 61.00408346134948 100.46067324318986, 140.8408458933115 -0.8297270542494269 M1.6771871726652805 163.73969649047456 C40.06459073785029 120.13456231123277, 77.09262384454591 74.30221231073854, 143.66020673671315 1.1402135873176102 M-1.5355002655392855 170.65947960541249 C29.330573836516876 131.31483696057538, 65.53462934249808 93.70783620475724, 148.13285118649975 1.3265268758971127 M0.6850983135680071 171.87393009354042 C52.41517984203076 107.84870013191988, 106.02252229484584 49.56698764494512, 147.70783068118777 -0.09061943876615075 M3.4224953285892696 175.60885689052856 C43.74849702247234 136.45174834572356, 75.54446161205512 90.21454712127462, 151.5763149988038 1.3869422629539125 M0.9231572086928123 176.33025056863607 C58.867722188933115 110.95994744173736, 116.80448846759911 42.21090659418957, 153.85509823070234 0.11509723663546745 M3.0816198070825536 179.80307092738764 C36.985552102038824 142.73543358050742, 71.4303017380552 95.6195898002248, 159.15401741727436 -0.026686905594921373 M-0.13774228290644472 181.25884106844956 C43.27323299687571 131.47476333029144, 89.22526812492846 77.68808661981707, 157.70508622770916 1.7128663921869907 M2.679398384866338 188.23962861600023 C47.056696550308054 137.82794176567577, 96.00725951500594 82.75005914465949, 166.59047186585826 -1.2129636536251451 M-1.0647198041540586 189.5565360124278 C52.05261335523931 123.8159824481184, 106.43725336507856 62.76344028044508, 163.52653611136256 -0.20831291640869493 M0.3605344460648664 195.8501654357855 C43.23553496767283 142.71316831992334, 92.51516589765933 91.40598379688005, 170.46301010942895 0.3822053871287428 M1.6550419125121085 195.95079351062094 C39.34278190364685 151.22169793530833, 77.08779338764799 105.97566697171412, 170.7368405865825 -0.6450495339628337 M2.5959578723200063 203.71780848519646 C55.11040529173989 134.59921187000288, 111.96627444559873 70.68182472142797, 174.23610731094894 -0.35401318352290767 M0.6716352745918359 201.51876234868047 C69.56851366997448 122.38586549219669, 135.78636839178253 42.636283574659856, 176.42193962293732 -0.20672439204566703 M-1.992219016463455 204.65980712503966 C42.24121078003562 160.39592670715794, 81.34256348321153 110.94866301756282, 180.65970241071747 3.111749382876699 M-1.1333718576470495 205.51890635174402 C40.45687317564815 165.47194394907905, 75.98994396152214 121.30503379396286, 178.50699986752466 0.10180372228632832 M0.59720781807139 214.57881604409297 C45.87561739188408 159.81752801643304, 95.97841479964865 103.84343982963215, 185.67534920213035 1.3158469306741643 M-0.8614172903375156 213.37295043781242 C67.18200541507215 130.79136260317455, 141.04384300216626 50.97057626243804, 187.05445811647166 -0.23782569903183548 M-0.9333670002643923 220.98900244440327 C77.87548084780066 128.6300991910575, 153.75722895295374 47.84187541470846, 189.9866115966585 0.41745403743111187 M-0.005137774162095404 219.62539962838216 C68.8374380219264 144.55243061421805, 133.20506216357236 67.60539771724711, 189.96726692256618 0.503100528006409 M2.342147014796298 223.3024669453266 C47.619614854520606 173.09076917921314, 93.89650120679929 122.50687977441859, 198.7985099352032 0.7862999884778035 M-1.210045483561225 224.71286192928665 C76.98552397505874 136.6890142099004, 156.42345996323326 48.52834305024876, 195.4610936807839 0.8337997136582043 M2.1767674301381748 231.62870620060667 C57.49765471112956 168.18337308007787, 111.7733678279987 106.4532401154797, 202.95215351003986 -2.029472631582556 M-1.2543817437339333 231.43175662004484 C67.62412460094004 149.81322852429508, 136.5388974409113 71.39598894067659, 200.95377276260547 1.1506199626378388 M-0.09579251982950093 238.49442881653385 C65.09210281169672 160.13254500411009, 132.38113299970914 84.19600818087578, 208.86983993096834 -2.3601467356002708 M0.3161778978015515 238.7122662850659 C51.562024367905906 181.78779479047188, 102.78933253212595 122.75206305312635, 207.74828959219235 -1.7092377904501561 M1.5378489724029396 246.0867378562271 C85.46790164942414 146.6680709231793, 174.20733058771287 50.40984083960621, 213.63683723088891 -1.377238229597093 M-0.5859526294663409 242.64510522418152 C45.97678527365003 194.2485430185238, 90.99319661257219 140.51579136471688, 211.7211813457127 -0.9442155705789506 M-1.9336494732675125 249.89489638536628 C87.9290420866064 149.2746159039947, 177.77659295305196 45.50734743128828, 217.24954768599446 1.8176862291391593 M-0.7777886864405258 249.94857891084706 C45.3185804996287 202.47411787252648, 89.03677556055722 152.12521045955864, 217.23300830881516 0.35431120628377555 M-1.930017068294346 255.1826995514014 C82.85617708473555 163.34919044578987, 160.02201313322598 67.39450826833405, 220.9385220675064 0.15629063039923408 M-0.08946657222848664 255.40946794650517 C82.69596327970177 159.40848517080852, 167.88006504648789 61.43320800612454, 222.17606000445625 0.35079073563144453 M1.4295114161136264 263.00332309552294 C69.93427097815585 184.11594830232195, 135.09452614907408 106.85755797800618, 227.71269745100275 -2.41491935908715 M1.0937071089998665 262.76554560721564 C66.6631735308013 184.29485737348395, 133.88072981538133 106.83145667634855, 229.0340932180552 0.9051888305195213 M0.27062763822214153 268.49712560126625 C77.67456102201321 180.2706630712368, 152.46850880199509 93.36435921351573, 235.4788307531931 -1.2311748895818413 M1.3529811746105311 268.95132060522866 C75.88441586643577 179.82706148443137, 153.3346735251507 90.09334491998999, 233.22594775890443 -0.6891521989555702 M-1.753125989043847 272.63778133158826 C57.05225094531639 203.7580237932058, 123.68733395169443 132.4706393019338, 237.7305398484346 1.90871275121519 M-0.1836902982731153 274.70350492558623 C92.40518163946463 164.13519116395167, 185.80104971383997 55.390332533454426, 238.3824199556884 -0.7557628005889576 M-0.17162768160614617 279.54328754508805 C84.2057770869312 186.81896032641606, 171.7455553347689 89.7639976070964, 245.23004030802008 1.7594890607868947 M0.6546586144560022 279.64484636105163 C90.69700383611587 173.74682356608372, 184.7214873795072 64.18686076638548, 242.88804152248844 -0.9238665363986936 M2.0063182276852913 284.07263205905787 C69.29554628589263 210.4749199146749, 134.0257333220722 136.18353796858838, 249.39383440297655 -0.08147085527255243 M0.13391976024416 286.0277750082149 C75.44327737860908 197.07173265375522, 153.74201250811439 105.33125763901113, 248.24715836866545 -0.1282558866370157 M-1.3618124251702721 291.9444487550112 C62.62174211579351 223.31524449367808, 121.00928787914008 152.8592890818431, 255.3704301731397 -0.6048424505732649 M-0.22725511529359124 291.72793781228546 C88.1912978790622 195.34344047389848, 176.52271683895864 93.14584541988862, 255.10632952711958 -0.6769072892068625 M2.079304176442684 300.0418375196847 C76.9345309869751 214.05789712485628, 154.04058392645797 126.69687827801485, 258.0433202992147 -0.954442646083429 M0.009982620252275864 298.68693465246315 C86.96749673723593 200.38927636707723, 172.18756416675035 104.9186857785033, 258.53750712283056 0.4950961156434642 M1.0045750512271776 305.7126349288107 C84.5197872919518 212.62412079772372, 164.63245746538837 122.009403651522, 264.5840674450373 -2.34345098331096 M0.018881789287593178 305.1126774431291 C57.834015098626324 237.78597992311242, 113.80629695046845 171.6811568220332, 266.15685959376697 0.3192163466278801 M1.0096687209232786 310.91051911753794 C76.29302568196273 223.18908630228182, 150.09268129960972 137.40521966644044, 271.32270246711005 2.1486603262320996 M-0.9708628059079362 311.1819474479647 C59.972311276965435 235.6085075507554, 124.47614406823487 160.10647396036575, 270.0082940398891 0.7339627433816961 M0.28039782580880335 317.56392695232637 C60.55832142416312 250.21630176730176, 123.31193164383203 178.0793072472663, 277.1017473925606 -0.05174439221143158 M1.1604793039319201 316.9183654333186 C80.65018135981697 222.6484922679155, 161.7069908638967 129.00245663521545, 275.9106333778507 -0.41550045384572243 M2.2487322359113886 318.79035777751034 C105.1641880650786 198.0296480018725, 207.7850488929683 80.64007870729309, 276.7522449745734 0.75065972878987 M2.1149868632473274 320.7803315106127 C89.58289061937249 216.9410132794455, 176.23025289345475 115.0204381807219, 278.43025309655263 1.4718389889514991 M6.250611321322123 320.0721896787961 C94.83076382599165 212.74318227317227, 188.13071519258423 107.47076884171048, 279.37491605527754 10.591225887004862 M7.420079083693416 321.6257343034666 C87.15131369476005 230.06599447794932, 165.88386890323585 139.67160113278354, 278.18936535119917 8.700536520997542 M12.929357447384898 320.5603533135516 C83.93944005943086 240.89169052774687, 151.9788056260781 160.63593629906373, 276.96894388915814 15.222921844680773 M12.394974435203304 320.1270922957809 C112.41582697754723 204.2803138942912, 212.08228996950064 86.51887547846032, 279.7556369906083 15.236181943922581 M19.55158341377253 320.035251249217 C118.5099544594482 203.8785387940482, 218.7928856411044 88.88578374744736, 280.7911617286224 21.802078510273418 M18.580127353723 319.83869499831275 C121.20456825787434 203.2538259905995, 223.51480484184574 86.92878195782617, 278.4924273399837 21.381732532350643 M24.61638646268229 321.8634416307789 C80.68047587306769 248.4335776548292, 141.8198912502986 179.8458070470174, 276.8309343186019 26.361756919784963 M23.66905666537922 319.9243896142088 C96.70304674841402 239.10237112665848, 169.46944878530354 155.5945140481093, 279.83942578971 27.524675578295852 M28.073842609411994 318.64220206005234 C119.03085973560174 216.00534401420117, 214.72407649979215 112.55217042876407, 277.89545262712903 33.59483011604622 M27.64381957330547 321.42726616203856 C78.06021728429977 260.14827114717957, 129.3958042963477 201.53862100710566, 279.5813975821786 32.57662571419474 M35.45386460064639 319.2048693925784 C117.64271422538275 221.73363056551503, 202.72991709506107 128.12937257681062, 278.66292809664617 40.37817346813901 M35.13239918526523 320.2962611287656 C94.96327243610077 255.45297830664563, 151.72113220526356 189.49354107309216, 277.5881428405381 38.37304067498058 M38.77243642572105 319.7522448110091 C104.5245945184243 245.58851708921293, 166.5268934629067 170.343313454416, 279.7354616901528 42.77586913215535 M40.553211115731905 321.1294183252593 C92.90009133737057 258.1286599144925, 145.79647137973583 198.46674365132066, 280.06413166513727 44.22266360808263 M44.46181690060988 321.95484302985903 C97.33400497913489 256.7238792339439, 148.2306936799613 199.21394986862222, 277.02797983915275 51.43352339588631 M44.229466685649975 320.71749350019854 C111.73519172354789 239.8171181120365, 181.51433601666113 161.08325236022043, 278.0099984814659 51.84197609267051 M49.43783660518009 322.0904639767944 C133.5614882523367 231.18476470809563, 209.17454406180389 140.78664907832962, 280.02143888204927 56.70950656143279 M50.32413544179326 319.19987813109026 C123.71924752739265 232.42996466018585, 198.43993772069524 144.02961346235293, 277.98786126371334 56.648087068066985 M54.48695697168854 320.5315465647257 C114.90863472923073 249.04623385123855, 176.8878380239539 177.78229902875165, 276.6078085350987 62.55302639358295 M55.66396871544303 321.2056133379507 C113.51719741778977 252.65777810984406, 174.21737085133176 185.84258265306661, 279.82624044892106 64.55608251471682 M60.11851248445817 320.7701235058196 C110.01681188331463 260.5632617459107, 163.42221972544507 199.83109307420827, 277.41064575191564 71.9345792543608 M59.95670261900194 321.3852312682038 C136.91596550721968 237.48204233495773, 207.96673053404393 152.4979322682545, 279.61944500392207 70.28010165675197 M64.6626278583159 318.30359625118234 C123.04472487374797 251.08146132331385, 187.9795887403995 178.3672284211911, 278.09880286329246 75.76752843085781 M67.68368708133382 321.066478548614 C108.67098301684467 266.91936296891737, 152.31354736560587 216.7259858547031, 278.47688095740557 75.7881901648988 M70.83191053302247 320.72979585082265 C123.52778034346194 261.67099289807453, 177.00059863022867 203.06179635912105, 276.64546116328665 82.69581613753564 M71.96080837420011 321.6485641365445 C119.45893534378587 267.4207701741995, 163.27561794974486 212.42121574428612, 279.89451860710955 81.07129651116904 M78.24223285492558 320.0043008932329 C129.4359421453222 266.65787102443136, 175.1712755285364 211.28522163236786, 279.3545013525428 89.86278722733984 M77.88374106501176 320.1960555637802 C143.82871274291793 246.00517760119172, 209.3126828692205 174.06302058291035, 277.6970448964214 87.57278419199577 M84.48025265753586 318.2563183346715 C138.103971209397 259.45009996548566, 185.93212553244305 197.27637134180293, 276.6211941188685 94.43622002098208 M80.81602687865517 321.726073984559 C134.49376221005656 254.51862455627713, 189.9631938607139 192.33224246885243, 277.71083727620424 94.8890357762657 M88.46034734822848 322.92044041712217 C135.43228504173015 268.02839277031893, 184.81930872503492 211.79820762839987, 277.1713816021063 97.4829664828337 M87.62393959798301 320.70455871740165 C132.45824387194824 266.93381934549785, 182.26617740986728 212.9609914697737, 277.08942870385584 101.51281343564011 M92.18244127743195 320.51554743637024 C141.48665722758594 265.68327920686323, 194.83584094267005 209.48812300146238, 281.31089267246966 107.31910989932904 M91.20088765155657 319.06127600633914 C166.8121056296004 234.29876870949082, 238.9094291965415 150.25654415001392, 278.3198237382082 106.20317936332133 M98.3003245664611 318.4907574202966 C139.22381010789167 270.9183904194907, 182.650095515647 221.74286618858503, 279.20032941227464 114.98233291150594 M98.12593146176059 319.57009642182464 C137.11120166200539 276.7401836637341, 173.45400331011282 236.11977472213505, 278.67487788570173 110.83362971150477 M105.74244166214433 319.2463447849225 C173.90694149122402 246.054709520416, 235.44339538819224 163.82262195097292, 277.87790132789894 119.2034291172054 M102.6253323870938 320.1569768209765 C168.72903492782518 248.0329012754844, 232.3421838496304 177.3199141589224, 279.5127568951234 117.28787620861515 M106.36688622759226 320.2620903798401 C159.79184560603238 262.36832176297975, 210.71357536190393 203.67972236920016, 279.16819728770486 124.34025279449644 M108.81252680670117 318.91929414662286 C149.3915598924306 271.46549231366106, 187.88276339862887 227.1331283985441, 278.19404226174777 124.68304282205115 M112.57398262522196 317.2413892021665 C149.85612434498427 280.90797794258134, 189.4592359808048 234.82032035833222, 275.36309898426873 129.2568067162539 M113.31354362512029 321.0270552947835 C172.57721749719514 255.40323361482245, 231.37933307489914 188.94373039428956, 277.7001297479718 132.30897742890022 M121.96246155086851 318.8204099276746 C164.09786771740872 265.163296062578, 212.89777685647456 216.1831167791285, 280.5435716172907 133.17435242814037 M117.97326900739374 319.4305342565321 C170.9589692103503 259.90071617971455, 220.88497782466706 200.5271908983226, 278.61352054384645 136.0340246003421 M121.83102205955103 320.3068225993275 C160.66981236052322 279.4836124401673, 191.3815709873058 242.42754647958506, 281.09921692933233 145.1784202771451 M125.0543872482202 320.43725284870993 C163.83385275351654 276.0145475779791, 204.91437354015437 229.29397311048427, 278.8817691996625 142.65899738398014 M131.9809328638936 319.090203857753 C170.98147089981438 269.36618042877234, 213.3079475750119 224.6027086675678, 280.3878151939525 149.36243126509177 M130.44765993034935 322.0266927430895 C178.45048116717334 261.30186116487545, 225.16116273531506 209.058768643527, 278.6326550030481 148.8326929187034 M136.9379416371205 320.27585035173445 C193.42088406233324 251.15411836557803, 247.36558667145954 191.022683366948, 278.54428675718714 158.22182084904395 M135.1228354417654 318.7122335653698 C188.3134533688031 260.88813029883374, 239.58577022255886 201.09813770153198, 280.3661454887418 155.78128852469388 M138.76921195325377 323.0067660599152 C179.49931157471462 279.8026796257488, 218.47410423685395 227.5696582763776, 278.18365785919303 164.11384486385793 M138.5836670003895 320.49406154917386 C169.6323743322266 281.38824887506524, 201.35756938483962 247.64833895361625, 280.11647944260005 161.23123990206184 M143.74700932931702 317.8207496676881 C171.13140956037367 287.7580317981143, 202.98599117375545 257.39230278442534, 280.1464806860948 169.3268185433763 M144.5035809458437 319.7864766273314 C177.56230332190339 282.52858002874854, 208.737471991285 246.82775002553532, 277.62877835686015 167.57277525704737 M147.20295979725137 322.07790336620957 C186.37696329017643 278.58392480170795, 224.84852673962178 229.8148140626019, 275.0265053386678 171.3256267840865 M150.38198002884104 320.56350243140906 C186.10819618248692 276.70782138898466, 222.0312523700906 235.32527120312906, 278.60677015100316 174.2883830248269 M155.7464624100307 320.25178129529087 C181.8377748927377 289.1070192016863, 203.6844723929796 259.8743822181074, 275.64691032279455 180.69465587277222 M156.67609865562412 318.7229923356834 C189.62086037805062 281.1361611647816, 219.76140848225762 244.51685041660028, 279.9925673789921 177.90641558345663 M162.2323824037316 322.2351516720265 C192.12193790001726 286.1430992500241, 223.65010048187474 244.22131770068546, 274.8302160862804 185.22730338567482 M159.44329529260125 322.211210298574 C195.85925403982452 285.954823453232, 224.42499167950615 247.89763012048329, 278.6984274804563 183.6595116499214 M169.36773529727265 323.61393225003354 C198.57691663988086 280.33012742023317, 226.8681944356546 246.52126002752044, 278.5922228690534 192.23685290663406 M168.4164033297847 321.8685296401041 C202.04709304970862 277.32772395077177, 237.96417702970203 232.43071537966168, 279.4749529414176 190.50017599946722 M173.60639424361034 320.05928535382003 C194.04307749436845 291.9747686056779, 217.96034650817742 272.26355248736877, 281.6948246610415 195.7279942694897 M171.9247231662248 320.1147088761881 C196.94503098582595 293.1988654662938, 222.81253993790924 263.4133373018257, 277.1059493728977 198.1289602823401 M179.7725622616631 321.91494123700284 C196.38028649662448 291.6995165146164, 223.77818188951392 270.27076221440143, 279.0528321152011 203.28595229874972 M178.45499444193365 321.5987150768491 C210.7066044776646 284.8664191823951, 239.52473829383752 248.7780636946764, 276.75274842394685 203.94609176445428 M185.18730000438742 320.85987472409005 C217.2386919449032 279.19932428210836, 257.21720411616553 238.5708774158831, 279.7013857504509 211.41851974803112 M181.71542380596154 321.9239005080014 C214.94914163604275 280.2496116334414, 250.64917651968136 239.72973854129233, 278.8591209845774 210.456006265833 M186.29199799070193 320.4956285686987 C217.04784561474358 282.4220094329141, 251.22692838380792 248.31275085893287, 274.92248371974733 212.21873394184195 M190.1966571483208 318.2978259896683 C221.8327092665858 282.3465464413746, 253.728081362364 245.0689832361271, 280.21530495383945 213.99252480239056 M194.774904373563 319.0089900953367 C219.47879598703298 285.378436698238, 246.11229040514394 251.57391978097087, 276.21239501301835 224.7069097140219 M192.23580736806161 322.25743753776396 C218.78402761044362 290.2562676211742, 244.2694278034018 264.83116612017295, 278.86291844275485 224.1233865243729 M196.19459717188923 323.75931455762105 C221.02612170494513 294.7594247215275, 246.0575033896693 262.4272252195686, 278.688482370192 225.7197681484107 M197.57742660519628 318.31888972231167 C219.1962928992525 295.3416539316243, 239.13046539868745 273.96352241221325, 278.4392826873453 228.60187745702603 M206.106512038637 317.9412017800598 C227.53656643225267 287.8852588466528, 251.57909756571001 262.9625509983732, 276.49602519422467 236.79956531951643 M202.43753400877495 320.7027223092257 C230.14603093879592 285.0601119946043, 260.0484696670198 251.27214385723244, 278.52174496166106 232.31845924126424 M212.68641449272496 323.17181951627003 C229.41473789285013 294.8250178271647, 247.38040069911665 268.26865449284054, 280.7756327540351 239.53612523095606 M211.06458796881003 319.9836836185293 C231.66888727967128 297.1429271951532, 250.61024981809874 273.9684035610572, 277.5325917807145 238.70530207211075 M216.85692768710948 318.1535800907596 C227.63151079684354 301.90304973360145, 242.36209826563044 285.2305295796006, 275.7897719525795 250.22951645723757 M212.80351388435162 319.8159071661367 C235.30263697437135 296.0656551460428, 256.69500951078703 273.21771497708534, 279.8030766685556 244.46146134047981 M222.91100464070908 317.2614637571455 C232.7601396595707 299.4835196050412, 245.80839110031212 286.38950541933633, 276.89018052978605 251.2320850822007 M219.656676395412 319.5827350220711 C239.1254069882351 298.86313724204024, 257.77031935729644 278.9956174328753, 278.47833336120635 252.95741057161743 M222.63845600648034 321.2056953399359 C240.06732767292286 302.60436663304733, 254.03278252917124 286.6982834596874, 281.92468997558274 261.83758343968526 M223.3479071510415 319.1218944522469 C237.8441854295407 307.20406048269706, 250.41146672746729 290.3964481706863, 277.86169871968843 257.1866701657696 M233.9494223033417 323.6190675927476 C245.98713200916012 302.3484818299467, 265.9022404703026 284.9773015344434, 282.64404844292596 261.1702988541992 M228.88347704125232 321.3753212766872 C243.26815876697606 301.7963284978782, 257.92136692801984 289.62194135415893, 277.759035643052 264.7174361388506 M237.00090168424967 317.71961784008874 C244.1171144258799 307.9427155920626, 258.1741185619455 297.1779927056579, 278.6693339507344 267.5270865793595 M235.61612396509472 321.1143365113063 C250.949853981313 300.7829027087501, 268.4894788455032 284.23991232892695, 278.38364627130954 269.0971130608836 M244.1641631391322 319.652660915799 C258.3339545073013 306.91275897507086, 269.68229908331494 283.59216354226317, 277.6184821519644 273.0400464396742 M242.14996603359037 320.3441793063502 C255.70897153801508 302.8340607966521, 269.7443770494313 285.2886662098051, 277.420299753511 278.57749069778293 M247.43156940791744 323.3799179037182 C259.64642378092134 307.5078430248613, 270.314122333724 288.15620366634204, 277.07369953654404 283.01855576898305 M246.6848244827612 321.25563568706497 C257.23307036935813 307.48481979844865, 267.4397487938028 297.4637018737216, 278.9301454506784 283.5192769497946 M249.82339989356169 323.56864487835423 C259.6359024752511 308.4605513312754, 268.92588038448633 306.14607941757004, 275.9882863444012 286.83839815112583 M253.36054658665725 321.17666729436473 C261.09683017863915 312.2509672409911, 266.84007472337566 304.11296375506015, 277.6950358488333 289.34372659216456 M259.35526386498356 318.93366584332415 C263.7260387657547 312.90305642772563, 270.43738265460706 312.700886994928, 282.0934594784925 296.8308921606104 M255.16191886029088 321.9769443232728 C263.5528155501854 311.2127667540546, 271.8595267045982 305.224486311213, 277.561849472026 295.484270015807 M261.1646282251396 322.90004937313597 C268.22396283509505 317.07380730148327, 270.4500242127725 302.9185239222636, 281.8657657077365 303.62492430105397 M260.9826948277124 320.7930221647034 C266.3033531655255 317.1919045002957, 268.873052490298 309.50565859188833, 278.34740408526886 300.79104616574534 M268.0602139522673 318.47794001151453 C269.0540195949049 316.0335350026999, 271.3785123954728 314.63976931378676, 276.9745862145131 310.27974520617045 M267.25464983660515 318.8925128849467 C271.659553198623 317.1397629306549, 275.045190966168 312.29306202772057, 278.8861299879072 306.4092307117104 M271.0036128700638 321.8264554084371 C273.77560726300203 319.974171654172, 273.8759045123984 315.8543087980364, 277.6826984491681 313.94556251762606 M272.6471447613018 319.9543773552495 C273.86461097284507 318.2375109066135, 275.88918343040075 317.63459847548205, 279.20013880948693 313.10919546976857" stroke="#4c6ef5" stroke-width="0.5" fill="none"></path><path d="M-2.098191066450207 1.613085532432037 C68.26673390264105 1.1693292168985883, 144.01731516336162 -3.8153184003116536, 277.17951889016035 1.5450223217037011 M0.6906912977768427 -1.1290197198352119 C109.34589915108825 -0.3063937265237318, 218.2314835024211 0.8261795325386792, 276.94039379057665 -0.5729694804894143 M273.42221654464674 -1.4249586511457595 C273.5741601329159 124.97227884514105, 274.66038084699113 252.17540254132717, 276.3773953340664 315.9789221377207 M274.9304670814505 -1.4044628770308507 C275.0628382687678 93.07078128908117, 274.92629888795136 182.40863473769696, 274.63069531804365 317.2396911954458 M273.39991861977506 316.95820530523105 C171.92268199490516 318.31328856566546, 71.76128451566846 318.9538965857504, -0.7449405190090596 320.3963227462007 M275.74188437966313 319.1940189590028 C206.10400543242363 318.8854932828697, 136.19553996437645 319.09643960413916, -0.9666834527425134 319.0785284840005 M1.1762798977569358 317.2604643164552 C-0.16255430845300178 246.83920669605953, -1.0564605233512467 182.30157965606094, 0.41633631743585037 -0.2889290872681598 M0.9160328911411498 318.47744168313983 C-4.078145909406089 212.64650276921074, -2.682773118172965 108.80818613181255, 0.5389549678058819 -0.2657345813349533" stroke="#000000" stroke-width="1" fill="none"></path></g><g transform="translate(163.51272116164182 541.33325958252) rotate(319.7479361794775 93 13)"><text x="0" y="19" font-family="Virgil, Segoe UI Emoji" font-size="16px" fill="#000000" text-anchor="start" style="white-space: pre;" direction="ltr">Insert a nice pic here...</text></g><g transform="translate(421.22715074451014 400.1905179704945) rotate(0 218.50000000000006 89.50000000000023)"><text x="0" y="18.571428571428573" font-family="Virgil, Segoe UI Emoji" font-size="16px" fill="#000000" text-anchor="start" style="white-space: pre;" direction="ltr">Lorem ipsum dolor sit amet, consectetur adipiscing elit, </text><text x="0" y="44.142857142857146" font-family="Virgil, Segoe UI Emoji" font-size="16px" fill="#000000" text-anchor="start" style="white-space: pre;" direction="ltr">sed do eiusmod tempor incididunt ut labore et dolore </text><text x="0" y="69.71428571428572" font-family="Virgil, Segoe UI Emoji" font-size="16px" fill="#000000" text-anchor="start" style="white-space: pre;" direction="ltr">magna aliqua. Ut enim ad minim veniam, quis nostrud </text><text x="0" y="95.28571428571429" font-family="Virgil, Segoe UI Emoji" font-size="16px" fill="#000000" text-anchor="start" style="white-space: pre;" direction="ltr">exercitation ullamco laboris nisi ut aliquip ex ea </text><text x="0" y="120.85714285714286" font-family="Virgil, Segoe UI Emoji" font-size="16px" fill="#000000" text-anchor="start" style="white-space: pre;" direction="ltr">commodo consequat. Duis aute irure dolor in </text><text x="0" y="146.42857142857144" font-family="Virgil, Segoe UI Emoji" font-size="16px" fill="#000000" text-anchor="start" style="white-space: pre;" direction="ltr">reprehenderit in voluptate velit esse cillum </text><text x="0" y="172" font-family="Virgil, Segoe UI Emoji" font-size="16px" fill="#000000" text-anchor="start" style="white-space: pre;" direction="ltr">dolore eu fugiat nulla pariatur. </text></g><g transform="translate(422.6555913834611 582.6190218244278) rotate(0 195.5 38.5)"><text x="0" y="18.666666666666668" font-family="Virgil, Segoe UI Emoji" font-size="16px" fill="#000000" text-anchor="start" style="white-space: pre;" direction="ltr">Excepteur sint occaecat cupidatat non proident, </text><text x="0" y="44.333333333333336" font-family="Virgil, Segoe UI Emoji" font-size="16px" fill="#000000" text-anchor="start" style="white-space: pre;" direction="ltr">sunt in culpa qui officia deserunt mollit </text><text x="0" y="70" font-family="Virgil, Segoe UI Emoji" font-size="16px" fill="#000000" text-anchor="start" style="white-space: pre;" direction="ltr">anim id est laborum.</text></g></svg>