<svg version="1.1" xmlns="http://www.w3.org/2000/svg" viewBox="0 0 1167.6502329508462 978.0000356038411">
  <!-- svg-source:excalidraw -->
  <defs>
    <style>
      @font-face {
        font-family: "Virgil";
        src: url("https://excalidraw.com/FG_Virgil.woff2");
      }
      @font-face {
        font-family: "Cascadia";
        src: url("https://excalidraw.com/Cascadia.woff2");
      }
    </style>
  </defs>
  <rect x="0" y="0" width="1167.6502329508462" height="978.0000356038411" fill="#ffffff"></rect><g transform="translate(10 46.933329264321856) rotate(0 436.4000091552734 460.40003712971986)"><path d="M1.0067785277962684 -0.19368474632501603 C274.52782197115835 -2.4240060049888075, 547.5066794403994 0.4158385556343619, 873.8750599399209 -1.0655084863305093 M0.08168367072939874 0.5524697788059711 C285.302862086087 4.1616596824912975, 571.0832560470989 5.170193136432643, 873.533290874213 0.5999207265675068 M872.4211594119668 0.10210664123296738 C873.700154100129 319.41037357722814, 872.9900313717812 638.6936145732819, 873.7423048987985 921.1159757519758 M872.4938257329165 0.578085208684206 C870.5789326437797 327.691830592608, 869.98204584206 653.5075054504088, 872.3949866168201 921.5151863741374 M872.5641245856881 919.5740816021955 C527.1099099526541 921.5086439967264, 178.32962262674909 922.0914237380136, -1.1124029621481897 919.9966884041822 M872.5115090243519 920.568320338676 C580.5431768205904 918.4411234288931, 287.50022227185815 918.6957430034399, 0.7683515183627606 920.296217148254 M-1.2308786854147913 919.4550506020582 C0.5144945585763971 653.3694144266311, 1.4739854776895562 389.08482653001266, -1.3165172562003136 -0.8044740453362466 M-0.08550571277737617 921.3538127827144 C-6.549258443641657 688.437545419711, -5.778583905029292 455.9484516712095, 0.751151692122221 -0.3566695682704449" stroke="#000000" stroke-width="1" fill="none"></path></g><g transform="translate(18.400207519531023 45.999999999999545) rotate(0 436.6666412353516 110.66666920979787)"><path d="M-0.19368474632501603 1.043610145151615 C254.7739023729005 -3.85801019362082, 513.8823326928097 -3.321224352632661, 872.2677739843729 0.4398563399910927 M0.5524697788059711 -0.5313072569668293 C278.3364618973279 -1.298453321832379, 558.0140582944143 0.019901880842486674, 873.9332031972708 0.3733921401202679 M873.5539389024027 1.7065270058864597 C873.0165833555991 66.90380793448705, 873.1587363362346 135.50008569500915, 874.0159579095366 223.23709751447427 M874.5825471397409 1.623174519569225 C873.5267866660218 57.80292661709995, 871.1003595450372 114.0640062061678, 874.8786676247811 223.01222490679393 M872.1072898134591 222.2417805845532 C567.5578649894536 219.02997457627265, 263.7534825848817 219.19086625222175, -0.8033858552575112 221.89471928427548 M873.1015285499396 221.53982923353644 C566.3267201969284 218.44055936934157, 260.0566977631065 219.58204231859847, -0.5038571111857891 221.2467243703696 M-2.90664855101709 219.52462342785756 C-2.7751308615949437 159.2587612070224, 1.5170307773474059 93.80957431897932, -1.7384997694090074 -1.6567441652933763 M1.1966505328627617 221.1437223572844 C1.7206132270902814 136.99469295135574, 0.9224407359693554 51.32763225758165, -0.7707768395861766 -1.7217645480774395" stroke="#000000" stroke-width="1" fill="none"></path></g><g transform="translate(326.40023803710903 132.5000864664703) rotate(0 118.53838054950506 22.333318074544422)"><text x="0" y="32.66663614908885" font-family="Virgil, Segoe UI Emoji" font-size="27.48716070713159px" fill="#000000" text-anchor="start" style="white-space: pre;" direction="ltr">Hamsa Handmade.</text></g><g><g transform="translate(907.7336527506517 61.33332824706986) rotate(0 0.33635028226342456 97.90660667686404)"><path d="M1.8263177540153261 -2.615695926174521 C1.654310707723084 30.512280338154067, 0.7560072102893551 165.62458706322226, 0.7298201458900166 198.42890927990274 M-0.6267768216133116 2.1360439038276677 C-1.2460004970928198 34.55011266963763, -1.2484644281368293 162.3341285928628, -0.9968458184600877 194.69614413601653" stroke="#e67700" stroke-width="1" fill="none"></path></g></g><g transform="translate(770.5670878092454 228.50008138020758) rotate(0 50.5 13)"><text x="50.5" y="19" font-family="Virgil, Segoe UI Emoji" font-size="16px" fill="#000000" text-anchor="middle" style="white-space: pre;" direction="ltr">Login/Sign up</text></g><g transform="translate(18.400171915689953 10) rotate(0 86 13)"><text x="0" y="19" font-family="Virgil, Segoe UI Emoji" font-size="16px" fill="#000000" text-anchor="start" style="white-space: pre;" direction="ltr">A particular category</text></g><g transform="translate(360.5285597581119 274.6667353312173) rotate(0 59 21.5)"><text x="0" y="31" font-family="Virgil, Segoe UI Emoji" font-size="27.48716070713159px" fill="#000000" text-anchor="start" style="white-space: pre;" direction="ltr">Earrings.</text></g><g transform="translate(157.34705192875106 723.5833129882812) rotate(0 23.269224313589177 18.333328247070256)"><text x="23.269224313589152" y="27.666656494140483" font-family="Virgil, Segoe UI Emoji" font-size="22.564096304086465px" fill="#000000" text-anchor="middle" style="white-space: pre;" direction="ltr">Help.</text></g><g transform="translate(261.68054802250106 726.7499338785801) rotate(0 41.5 17.5)"><text x="41.5" y="26" font-family="Virgil, Segoe UI Emoji" font-size="22.564096304086465px" fill="#000000" text-anchor="middle" style="white-space: pre;" direction="ltr">Profile.</text></g><g transform="translate(409.013718595418 725.2499389648438) rotate(0 56.5 17.5)"><text x="56.5" y="26" font-family="Virgil, Segoe UI Emoji" font-size="22.564096304086465px" fill="#000000" text-anchor="middle" style="white-space: pre;" direction="ltr">Site rules.</text></g><g transform="translate(599.5138610107832 722.2500101725254) rotate(0 55 17.5)"><text x="55" y="26" font-family="Virgil, Segoe UI Emoji" font-size="22.564096304086465px" fill="#000000" text-anchor="middle" style="white-space: pre;" direction="ltr">About me.</text></g><g transform="translate(157.5138406657303 771.5833638509112) rotate(0 15 13)"><text x="15" y="19" font-family="Virgil, Segoe UI Emoji" font-size="16px" fill="#000000" text-anchor="middle" style="white-space: pre;" direction="ltr">FAQ</text></g><g transform="translate(151.51390170088678 808.9166870117188) rotate(0 37 13)"><text x="37" y="19" font-family="Virgil, Segoe UI Emoji" font-size="16px" fill="#000000" text-anchor="middle" style="white-space: pre;" direction="ltr">Contacts</text></g><g transform="translate(263.3472350342198 780.9167582194004) rotate(0 38.5 13)"><text x="38.5" y="19" font-family="Virgil, Segoe UI Emoji" font-size="16px" fill="#000000" text-anchor="middle" style="white-space: pre;" direction="ltr">My profile</text></g><g transform="translate(260.18050733239704 852.9168802897138) rotate(0 39 13)"><text x="39" y="19" font-family="Virgil, Segoe UI Emoji" font-size="16px" fill="#000000" text-anchor="middle" style="white-space: pre;" direction="ltr">My orders</text></g><g transform="translate(256.8471739990638 816.9167175292969) rotate(0 49 13)"><text x="49" y="19" font-family="Virgil, Segoe UI Emoji" font-size="16px" fill="#000000" text-anchor="middle" style="white-space: pre;" direction="ltr">My favorites</text></g><g transform="translate(406.34717399906356 783.5833841959629) rotate(0 59.5 13)"><text x="59.5" y="19" font-family="Virgil, Segoe UI Emoji" font-size="16px" fill="#000000" text-anchor="middle" style="white-space: pre;" direction="ltr">Orders/delivery</text></g><g transform="translate(407.8471943441158 819.5833943684902) rotate(0 50 13)"><text x="50" y="19" font-family="Virgil, Segoe UI Emoji" font-size="16px" fill="#000000" text-anchor="middle" style="white-space: pre;" direction="ltr">Return policy</text></g><g transform="translate(603.6804259521886 774.2500915527344) rotate(0 27.5 13)"><text x="27.5" y="19" font-family="Virgil, Segoe UI Emoji" font-size="16px" fill="#000000" text-anchor="middle" style="white-space: pre;" direction="ltr">History</text></g><g transform="translate(601.3470926188555 804.9166971842442) rotate(0 16.5 13)"><text x="16.5" y="19" font-family="Virgil, Segoe UI Emoji" font-size="16px" fill="#000000" text-anchor="middle" style="white-space: pre;" direction="ltr">Blog</text></g><g transform="translate(602.0137592855225 830.25) rotate(0 42.5 13)"><text x="42.5" y="19" font-family="Virgil, Segoe UI Emoji" font-size="16px" fill="#000000" text-anchor="middle" style="white-space: pre;" direction="ltr">Who am I?</text></g><g><g transform="translate(12.513891528360318 898.4167175292969) rotate(0 440.20693310717763 0.5663565672561504)"><path d="M1.6490015294402838 0.552827611938119 C148.51150040280908 0.4327169297263027, 735.1352394184515 -0.1408339325959482, 881.3142166395986 -0.26795234084129316 M-0.9003504252433778 -1.6153769230842592 C145.71600133289485 -1.396220233005782, 733.7054681951597 2.0924465511118373, 879.9131065743917 2.7480900575965643" stroke="#000000" stroke-width="1" fill="none"></path></g></g><g transform="translate(332.5138406657305 917.0833536783853) rotate(0 124.66664632161451 16.666666666666742)"><path d="M77.16510177610857 3.2160991498115497 C91.58549292956187 2.333910912638237, 111.85826002520893 0.8370042772732649, 128.31757658333757 0.3872292590265367 C144.77689314146622 -0.0625457592201914, 160.62850674855716 -0.685155709863815, 175.9210011248804 0.5174490403311811 C191.21349550120365 1.7200537905261772, 208.62588002366056 5.641769595466781, 220.07254284127708 7.602857760196514 C231.5192056588936 9.563945924926248, 239.9082380831263 10.712731205469634, 244.60097803057954 12.28397802870958 C249.2937179780328 13.855224851949526, 250.119189615416 15.18083821007228, 248.2289825259965 17.030338699636193 C246.33877543657704 18.879839189200105, 242.02139054823922 21.350989871853614, 233.2597354940627 23.380980966093063 C224.4980804398862 25.41097206033251, 209.78431131263264 27.776421507667735, 195.65905220093745 29.210285265072887 C181.53379308924227 30.64414902247804, 164.63292413517942 31.190324797269014, 148.50818082389156 31.984163510523967 C132.3834375126037 32.77800222377892, 115.2402956890137 34.404403834540766, 98.91059233321029 33.9733175446026 C82.58088897740687 33.542231254664436, 64.34840349688966 30.811912565822283, 50.52996068907109 29.397645770894993 C36.711517881252526 27.983378975967703, 24.510203881329318 27.476743339278222, 15.99993548629891 25.487716775038855 C7.489667091268503 23.498690210799488, 1.215773189046267 19.470662191485232, -0.5316496811113467 17.463486385458793 C-2.2790725512689605 15.456310579432353, 0.32328759292572595 15.468764908773416, 5.515398265353227 13.444661938880213 C10.707508937780727 11.42055896898701, 19.329866314588067 7.292807740860594, 30.62101435345366 5.31886856609958 C41.91216239231925 3.3449293913385656, 55.81981762726329 2.7544993455672158, 73.26228649854677 1.6010268903141274 C90.70475536983025 0.447554435061039, 115.40772696634403 -1.622473559002959, 135.27582758115457 -1.6019661654189505 C155.14392819596512 -1.581458771834942, 192.39139398508343 0.9952685425195055, 192.47089018741002 1.724071251818179 M35.90887172186075 3.570444151223361 C45.60593268300979 2.414075911056682, 60.20841830389562 4.17249060879733, 75.20612868594048 3.4258947970732034 C90.20383906798536 2.679298985349077, 108.56035664743412 -0.2086174341171393, 125.89513401412995 -0.9091307191213964 C143.2299113808258 -1.6096440041256534, 163.37019197795914 -1.6457155805665309, 179.21479288611548 -0.7771849129523396 C195.0593937942718 0.09134575466185169, 210.73527685884378 2.075378406743322, 220.96273946306798 4.302053286563751 C231.19020206729218 6.52872816638418, 235.91187292971085 10.446282402717966, 240.57956851146065 12.582864365970238 C245.24726409321045 14.71944632922251, 250.25841770314588 15.241939879254149, 248.96891295356681 17.12154506607738 C247.67940820398775 19.001150252900615, 241.76047612115056 21.591125810485465, 232.84254001398622 23.860495486909635 C223.9246039068219 26.129865163333804, 208.97728690323004 29.083330037338797, 195.4612963105808 30.737763124622397 C181.94530571793155 32.392196211906, 168.34925177276534 33.87752567812081, 151.7465964580908 33.78709401061123 C135.14394114341627 33.69666234310164, 112.91558083649997 30.77800609920098, 95.84536442253356 30.195173119564885 C78.77514800856716 29.61234013992879, 62.59271195039517 31.248135455080845, 49.3252979742924 30.29009613279466 C36.057883998189624 29.332056810508472, 24.239632602039865 26.343531559376757, 16.24088056591691 24.446937185847766 C8.242128529793955 22.550342812318775, 2.7728680549097104 20.560050851267274, 1.3327857575546744 18.91052989162072 C-0.10729653980036136 17.261008931974164, 2.5853609935551036 16.60659224410256, 7.600386781786696 14.549811427968436 C12.61541257001829 12.493030611834312, 27.16459911023857 8.482568301087246, 31.422940486944228 6.569844994815973 C35.681281863649886 4.6571216885447, 32.817251350556866 3.3259794659430897, 33.150435042020646 3.0734715903407963 C33.48361873348443 2.820963714738503, 32.04393457303989 4.391195145701534, 33.422042635726925 5.054797741202213" stroke="#000000" stroke-width="1" fill="none"></path></g><g transform="translate(405.5138406657303 918.2500101725259) rotate(0 47 13)"><text x="47" y="19" font-family="Virgil, Segoe UI Emoji" font-size="16px" fill="#000000" text-anchor="middle" style="white-space: pre;" direction="ltr">social media</text></g><g transform="translate(16.400034586588163 695.0001106262207) rotate(0 436.6667429606122 98.66659164428711)"><path d="M-0.5998262390494347 -0.6123851552605629 C280.39917567400084 4.321196364607431, 559.9927103629301 3.1274227611680994, 872.5945741509403 -0.8100633874535561 M0.2402411811053753 -0.11794686242938042 C339.45346894192477 -2.936753899849782, 679.4388028733985 -4.027622301377187, 872.9307481241727 -0.5562014810740948 M872.2581934568788 -1.4425464309751987 C873.5594547307128 50.323991042089936, 872.3086230074996 96.71741679030156, 872.1969824669267 201.17494088038802 M873.4738281847293 -1.5385983567684889 C871.2249106982154 45.72528219739324, 871.4562959888381 93.69613487374735, 874.3662872792537 195.68753671832383 M872.394649538895 197.16217186301947 C656.3517998380722 203.28612618466695, 436.6695961943784 204.82747526189166, -1.2242567524313928 198.83548667281866 M873.4458437157178 196.95628128126265 C650.4330798799108 199.16196157724056, 426.68358432413305 199.6335855463186, 0.4379319779574871 197.54769127443433 M0.20615709200501442 196.74217146262527 C2.904911133896272 155.8804542836302, 4.28514477933542 114.83581092665663, 3.9990797080099583 -0.4234146513044834 M-1.122088523581624 196.99806148000062 C-0.49780508757678854 131.86031300041708, -1.6072820711239992 66.43014699458845, 1.8298149984329939 -1.000210640951991" stroke="#000000" stroke-width="1" fill="none"></path></g><g transform="translate(14.40019226074196 897.3333282470703) rotate(0 433.99998982747394 35.33335367838538)"><path d="M-0.6123851552605629 1.156170417368412 C309.6935413800318 4.109945666122232, 616.6910923660078 1.8643340461728908, 867.1899162674945 1.4302242293953897 M-0.11794686242938042 -0.6129963286221027 C345.1466231113079 -2.7794210708127483, 688.7481567386097 -2.4880312001691327, 867.4437781738739 -0.4016929276287556 M866.5574332239728 -1.158769603818655 C869.7529858869048 21.269844460000584, 866.8548746627303 46.22238811976709, 871.8417372467618 68.14742180084181 M866.4613812981795 -1.6812795717269182 C866.6944786724522 18.985026717221782, 867.8938423213436 41.902643354681224, 866.3543330846976 69.66111480010045 M867.8289682293932 71.77418440332008 C649.0148503738867 66.10659408552128, 431.74655618781384 65.36790080053288, 1.502303384244442 69.95336822022986 M867.6230776476364 70.82991241936875 C693.7167635167601 71.11929360084638, 520.2335946800733 72.07990496807203, 0.21450798586010933 69.98169281010819 M-0.5910118259489536 69.93485697483015 C1.7509557963067464 56.62685604442807, 3.009254789417403 45.289317913098245, -0.4234146513044834 1.3513668812811375 M-0.33512180857360363 70.00188570034993 C1.45725828900026 47.99144684680918, 1.893785481592881 30.694598615216677, -1.000210640951991 -1.1678493935614824" stroke="#000000" stroke-width="1" fill="none"></path></g><g><g transform="translate(907.1501515706385 168.1667073567719) rotate(0 95.44535072781139 4.31170107897367)"><path d="M-1.071674021705985 2.0232982303947207 C31.110345812017723 3.5265897141148645, 160.1382178618262 7.63389724753797, 191.9623754773289 7.970052983984351 M3.5420358672738077 0.6533491739630701 C35.691087721089524 1.5326158524552982, 160.3486880063017 3.4249078910549478, 191.1514724650979 4.390749581754207" stroke="#e67700" stroke-width="1" fill="none"></path></g><g transform="translate(907.1501515706385 168.1667073567719) rotate(0 95.44535072781139 4.31170107897367)"><path d="M165.63018764717404 17.77825324485432 C173.95588805037067 12.51034733161089, 175.7190170310381 7.213122615800906, 194.72703303858637 8.275192443877458 M161.20727078219775 15.158263974509943 C170.84906649408572 9.157794597684488, 181.48001507656423 6.001834015805257, 190.147240146026 5.092475662603974" stroke="#e67700" stroke-width="1" fill="none"></path></g><g transform="translate(907.1501515706385 168.1667073567719) rotate(0 95.44535072781139 4.31170107897367)"><path d="M166.08595965458707 -2.7378934270501887 C174.1394913980583 -2.682229326752299, 175.7842782577253 -2.6523951788769233, 194.72703303858637 8.275192443877458 M161.66304278961078 -5.357882697394565 C171.26920661549934 -4.209102071755954, 181.74130272927368 -0.21446872921468074, 190.147240146026 5.092475662603974" stroke="#e67700" stroke-width="1" fill="none"></path></g></g><g transform="translate(1104.6501922607422 158.66668192545558) rotate(0 26.5 13)"><text x="26.5" y="19" font-family="Virgil, Segoe UI Emoji" font-size="16px" fill="#e67700" text-anchor="middle" style="white-space: pre;" direction="ltr">Header</text></g><g><g transform="translate(896.4836069742836 466.8333485921221) rotate(0 109.9089109925801 6.950352548062824)"><path d="M2.628879383578896 2.6367247369140383 C39.34188519786628 3.861768514538804, 183.43634503487905 7.6180902030318975, 219.20636086401834 9.373560896143317 M0.611461121141911 1.5997786411643027 C37.09723089420132 3.007209636469682, 181.58463910516758 11.06782376776139, 217.26137292851996 12.3009264549613" stroke="#5c940d" stroke-width="1" fill="none"></path></g><g transform="translate(896.4836069742836 466.8333485921221) rotate(0 109.9089109925801 6.950352548062824)"><path d="M192.3908068301174 22.010946448766518 C194.14271948672862 16.33739176227433, 207.06068751300913 19.907448049573926, 219.2027704799671 13.502132360488176 M186.8887380367163 19.648220183201957 C195.9231852442037 16.974258935082744, 204.0947819422961 16.516604689231905, 218.28102162760985 11.763280222788453" stroke="#5c940d" stroke-width="1" fill="none"></path></g><g transform="translate(896.4836069742836 466.8333485921221) rotate(0 109.9089109925801 6.950352548062824)"><path d="M193.3448440832656 1.5119265866988538 C195.14331495901408 1.2214115272762718, 207.8115867000622 10.156592806888565, 219.2027704799671 13.502132360488176 M187.84277528986448 -0.8507996788657071 C196.29093143609362 2.3335542430305756, 204.19038267082277 7.723381571348984, 218.28102162760985 11.763280222788453" stroke="#5c940d" stroke-width="1" fill="none"></path></g></g><g transform="translate(1120.6502329508462 459.9999745686846) rotate(0 18.5 13)"><text x="18.5" y="19" font-family="Virgil, Segoe UI Emoji" font-size="16px" fill="#5c940d" text-anchor="middle" style="white-space: pre;" direction="ltr">Body</text></g><g><g transform="translate(894.4002939860023 271.66662343343114) rotate(0 -2.4389380202940174 211.2715612536917)"><path d="M0.539775577560067 -1.2930955979973078 C-0.8013129227277433 68.9068199634138, -5.114200574118294 353.17198484072253, -5.417651618147966 423.8362181053807 M-2.6117276081442835 4.1766272673010825 C-3.251960998740474 74.84687608622842, 0.04822334544519968 351.23033942338486, 0.21477920045447796 420.1842628638942" stroke="#5c940d" stroke-width="1" fill="none"></path></g></g><g><g transform="translate(900.9836883544925 835.9332889948123) rotate(0 73.93823173505564 4.29478236709943)"><path d="M-1.2930955979973078 -1.417610928043723 C23.1290434572018 0.16028908607002745, 124.2831023096625 8.416088875464432, 149.16955906810867 10.00717566224257 M3.2004140067100524 3.9845179009437572 C27.23741055991916 4.8020376890811995, 124.33102779997726 6.627431859331163, 148.29026312271762 6.472595690437355" stroke="#a61e4d" stroke-width="1" fill="none"></path></g><g transform="translate(900.9836883544925 835.9332889948123) rotate(0 73.93823173505564 4.29478236709943)"><path d="M117.98892357953483 20.071009342731383 C135.0054680841867 14.747320983041009, 143.46781781083797 8.265493744114515, 145.2252814796071 8.743701102831164 M118.62357834548348 15.49121645017102 C126.90477806235339 15.662581170471547, 131.69485011911968 11.784445786157871, 147.7108783208083 6.988822725289264" stroke="#a61e4d" stroke-width="1" fill="none"></path></g><g transform="translate(900.9836883544925 835.9332889948123) rotate(0 73.93823173505564 4.29478236709943)"><path d="M118.16172749653474 -0.44947167483028494 C135.18927563094462 2.3137760391586255, 143.5835114552606 3.9204809595141965, 145.2252814796071 8.743701102831164 M118.79638226248339 -5.029264567390648 C126.71412657110231 -0.4839746121311572, 131.4673509502531 0.013555105235488973, 147.7108783208083 6.988822725289264" stroke="#a61e4d" stroke-width="1" fill="none"></path></g></g><g transform="translate(1056.8168996175132 829.3332977294917) rotate(0 25.5 13)"><text x="25.5" y="19" font-family="Virgil, Segoe UI Emoji" font-size="16px" fill="#a61e4d" text-anchor="middle" style="white-space: pre;" direction="ltr">Footer</text></g><g transform="translate(833.3168385823573 640.4166005452475) rotate(0 12.000020345052008 13.333358764648438)"><path d="M16.685277524867274 -1.1386160757863664 C18.847757232707174 -0.4107997554666928, 19.524320220586482 2.5815257247103265, 20.495899881483776 5.104899457008746 C21.46747954238107 7.628273189307166, 22.455050017381627 10.829602769917347, 22.51475549025104 14.001626318004151 C22.574460963120455 17.173649866090955, 22.598706016990413 22.149046076805615, 20.854132718700257 24.13704074552957 C19.1095594204101 26.125035414253528, 14.828932527651485 25.874241168979122, 12.047315700510099 25.929594330347886 C9.265698873368713 25.98494749171665, 6.323462886750418 26.231900005997066, 4.1644317558519415 24.469159713742158 C2.0054006249534644 22.70641942148725, -0.33935399160857305 17.904955263378998, -0.9068710848807626 15.35315257681844 C-1.4743881781529522 12.801349890257882, -0.4070397356769899 11.579744048029564, 0.759329196218804 9.15834359437881 C1.925698128114598 6.736943140728054, 2.32925515324215 0.6003369791981585, 6.0913425064940006 0.8247498549139074 C9.853429859745852 1.0491627306296563, 21.268357252758033 7.105912590372331, 23.33185331572991 10.504820848673303 C25.395349378701784 13.903729106974275, 18.780511750763612 21.433757492496586, 18.472318884325247 21.21819940471974 M11.409676092458616 -1.3983785570686234 C14.037215593023763 -1.2424562830855346, 20.990257713398638 -0.5393425057109815, 23.025623308790355 2.0447044462027186 C25.06098890418207 4.628751398116419, 23.863835629527493 11.121110954074114, 23.621869664808923 14.105903154413577 C23.379903700090352 17.090695354753038, 22.545713423922148 18.32455911784815, 21.573827520478943 19.953457648239493 C20.601941617035738 21.582356178630835, 19.742535649460844 23.18161898785658, 17.790554244149693 23.87929433676164 C15.838572838838543 24.576969685666697, 13.12846565113865 24.78216041232202, 9.86193908861204 24.13950974166984 C6.595412526085429 23.49685907101766, -0.2978985944473076 22.612159377145865, -1.8086051310099762 20.023390312848544 C-3.319311667572645 17.434621248551224, -0.4411416007690818 11.73377966093708, 0.7976998692360286 8.606895355885914 C2.036541339241139 5.480011050834749, 3.9310574642752787 2.600553978680484, 5.624443689020687 1.2620844825415585 C7.317829913766095 -0.07638501359736671, 9.471766340352522 0.6015313604705849, 10.958017217708477 0.5760783790523636 C12.444268095064432 0.5506253976341423, 14.65870916956812 1.4380343304347987, 14.541948953156414 1.109366594032231" stroke="#000000" stroke-width="1" fill="none"></path></g><g><g transform="translate(854.6502532958983 661.7499643961587) rotate(0 5.119644871664605 8.240758507251769)"><path d="M1.3589782860130075 0.8408441338688135 C2.873013652654171 2.9189736121644576, 9.54865224754651 12.844039697820941, 11.58710460128891 15.18788687326014 M-1.3478148579597473 -1.1710085749626162 C-0.4706153628561106 2.3894325820604956, 6.792833725346522 14.674821248849232, 9.12499659935641 17.652525589466094" stroke="#000000" stroke-width="1" fill="none"></path></g></g><g><g transform="translate(855.9835662841796 651.0833079020181) rotate(0 57.805617674092446 -24.151944761511857)"><path d="M0.8408441338688135 -0.4128140185028313 C19.141185661860625 -7.929881616474752, 93.95509994630179 -35.88531852037492, 112.52115917143715 -43.74342730181852 M-2.1472218355536463 -3.1052240100502972 C16.779955611659407 -11.55896821276999, 97.77545240498245 -40.79845221244576, 117.75845718373847 -47.89107550452092" stroke="#000000" stroke-width="1" fill="none"></path></g><g transform="translate(855.9835662841796 651.0833079020181) rotate(0 57.805617674092446 -24.151944761511857)"><path d="M94.11725853229629 -31.75631777923899 C105.94571832649109 -39.92485132420412, 109.64536802349926 -46.09233104510824, 114.977449778368 -49.8995401426647 M93.9857196289556 -29.270720938037805 C102.75167997481832 -36.205771173697194, 109.02685435095273 -42.002791940863844, 119.67933597964537 -49.15071828248539" stroke="#000000" stroke-width="1" fill="none"></path></g><g transform="translate(855.9835662841796 651.0833079020181) rotate(0 57.805617674092446 -24.151944761511857)"><path d="M87.16892213350562 -51.06539915757183 C101.94407625707841 -51.60781461926063, 108.40298726692161 -50.10744434330935, 114.977449778368 -49.8995401426647 M87.03738323016492 -48.579802316370646 C98.32852073622269 -49.00728636966206, 106.93198747547177 -48.334098423307516, 119.67933597964537 -49.15071828248539" stroke="#000000" stroke-width="1" fill="none"></path></g></g><g transform="translate(983.1502532958983 584.2499847412114) rotate(0 71.5 13)"><text x="71.5" y="19" font-family="Virgil, Segoe UI Emoji" font-size="16px" fill="#000000" text-anchor="middle" style="white-space: pre;" direction="ltr">popup search menu</text></g><g transform="translate(115.15858205159498 321.49999745686875) rotate(0 80.66665649414062 67.33337402343778)"><path d="M-3.5732464231550694 3.8219078816473484 C41.8274449177566 0.5492169877717004, 85.72135754162726 -1.4869769790938392, 160.91151612624526 -0.5563273392617702 M-0.1816576700657606 -0.7973917443305254 C55.64589540657468 -0.43413252016197834, 107.71112128900126 1.2621384821306547, 160.65641397424042 1.4076932352036238 M160.73472874984145 1.7402262724936008 C163.1427043558055 30.539867967343532, 157.1103615642482 67.37271660189073, 162.66321307048202 138.27361596003226 M163.05305808968842 1.8157900255173445 C159.01598487691916 52.43860351779253, 160.01598481731452 102.34324493670346, 162.44948125071824 133.22494414262525 M162.31812125071883 136.346384171397 C121.26653185017173 136.22736307780676, 88.37491177945861 134.89694151084356, -2.1735642589628696 134.54640365019492 M162.26206469722092 134.44049027375928 C115.85998683083201 131.8463781741029, 72.89541087179173 131.64490213660062, 1.68101173825562 134.78436538390866 M-2.5375464595854282 132.76159739866904 C-2.314248128657364 83.2229060059785, 3.3244677345704803 35.13270475611023, -0.18182367458939552 -0.8105961047112942 M-0.20423501543700695 136.038317887113 C-0.6132069722905484 93.55622997437993, 1.8431947930559787 55.08387526172008, 1.7918623704463243 -1.011516185477376" stroke="#000000" stroke-width="1" fill="none"></path></g><g transform="translate(119.82517751057924 322.1666539510094) rotate(0 77.99997965494788 46.66666666666663)"><path d="M3.7229623831808567 -0.8828014768660069 C38.89746148118737 0.711187248903915, 69.36444486264115 -2.641853327077225, 153.5276584265132 3.5640582405030727 M-0.06299486942589283 -0.8253420572727919 C49.26931707431356 0.9750956590226025, 98.03897452281376 1.0407484467079968, 156.45312081587804 -1.440944729372859 M153.94771667694044 0.19586461409926414 C155.53619860559695 25.91075450927017, 155.54240118414157 58.04794283583756, 157.3607335922618 91.26871742432309 M154.18935786498082 0.45765251107513905 C154.73521955249203 34.52938144467768, 154.20808280942333 67.93772117234761, 155.82968835843099 94.18423517731321 M156.30212362979842 95.1072193545599 C97.76540207920092 92.64962340078227, 29.905198015175685 92.64903796396129, 0.6189936436712742 92.77550698940945 M157.00862865460408 94.8112717488159 C106.2234718938685 93.95937967468635, 53.869190911331174 93.65050167013541, -1.2974437195807695 92.42754545000685 M-0.8333235941827297 91.97011853878689 C-4.931710797548293 63.41813703874742, -1.0122162878513328 30.009889516979428, 3.2805066145956516 1.334793146699667 M1.4457818549126387 94.66925182131422 C-2.3658937475333603 64.68116103919837, -1.7265685460219775 38.01466640271242, 0.16752943210303783 -1.186782954260707" stroke="#a61e4d" stroke-width="1" fill="none"></path></g><g transform="translate(126.99184417724598 419.3333969116213) rotate(0 19.5 13)"><text x="19.5" y="19" font-family="Virgil, Segoe UI Emoji" font-size="16px" fill="#a61e4d" text-anchor="middle" style="white-space: pre;" direction="ltr">Name</text></g><g transform="translate(221.82517751057924 419.33329518636094) rotate(0 18 13)"><text x="18" y="19" font-family="Virgil, Segoe UI Emoji" font-size="16px" fill="#a61e4d" text-anchor="middle" style="white-space: pre;" direction="ltr">price</text></g><g transform="translate(329.8251266479491 325.1666081746422) rotate(0 80.66665649414062 67.33337402343778)"><path d="M0.21943729743361473 0.45778441801667213 C45.62621029293999 0.07818067649940863, 87.68745945421784 2.5143721161280097, 158.58861833438277 -1.1556383334100246 M-0.9208540301769972 1.4551093261688948 C48.716376093588195 3.0474351894237826, 97.30264376923327 2.9907593380787203, 160.56775129027665 1.571275619789958 M163.61028676852584 -0.19865381345152855 C162.19380923090577 32.83487882466036, 157.12981589613557 70.78528539465701, 160.40866320952773 132.89727783575705 M159.3351382035762 -1.8950324971228838 C162.83159448053374 46.91037884527788, 162.68399806167616 93.09191743072064, 160.96260041184723 135.99997100047818 M160.37433188781142 131.69004726782492 C112.56812048598428 137.3978489579146, 61.934695796803624 133.67970537557053, -1.0237066186964512 135.32455695048026 M161.41008681245148 136.61601456813565 C109.5667709141135 134.63002253728678, 55.88404041921791 137.1818252320843, -1.7598123531788588 134.76464775018445 M-2.495873633772135 136.3505722321575 C-1.4117738820692742 85.33441898427415, -1.7844448901793206 28.17386037140055, 2.540532287210226 2.034035924822092 M-1.2303709965199232 135.42837503366223 C1.1409110588731233 90.96708394386974, 2.2071627540292207 48.410606620556734, 1.894104303792119 -1.691151650622487" stroke="#000000" stroke-width="1" fill="none"></path></g><g transform="translate(334.49172210693325 325.8332646687828) rotate(0 77.99997965494788 46.66666666666663)"><path d="M0.45778441801667213 1.7116420827805996 C39.01842858630448 -0.3128380134545181, 81.79807070991455 -2.9158557012520645, 154.84432097648573 0.18200796470046043 M1.4551093261688948 -0.4177165012806654 C53.86196255617418 0.47099049187520015, 107.2604825800027 0.6709702143750476, 157.57123492968572 -0.9545571189373732 M155.80130549644423 2.781770881265402 C155.17263815154624 19.05989915877579, 159.15037545909476 41.75959344580766, 154.2304890987773 95.236772434165 M154.10492681277287 0.8863313812762499 C155.37153935668363 30.859352877363538, 154.74480468270673 59.87052325345571, 157.33318226349843 93.33852668789518 M153.02325853084517 93.01002778237057 C121.14805747097246 90.07048498126294, 80.86026256954702 91.56162165137555, 0.6578089036047459 94.4269192380209 M157.9492258311559 94.3775810816635 C121.79072739914064 93.6254075437321, 91.25023853438611 91.69328811462061, 0.09789970330893993 95.0499117591728 M1.683824185281992 93.21058108036709 C1.975350334246954 60.37100613613918, -3.226882145802179 30.94005774830775, 2.034035924822092 0.9481270872056484 M0.7616269867867231 93.8296125152458 C-1.3321281056851138 69.12973570140694, -0.2965512257069338 43.69518061913546, -1.691151650622487 -1.581327198073268" stroke="#a61e4d" stroke-width="1" fill="none"></path></g><g transform="translate(341.6583887736 423.00000762939464) rotate(0 19.5 13)"><text x="19.5" y="19" font-family="Virgil, Segoe UI Emoji" font-size="16px" fill="#a61e4d" text-anchor="middle" style="white-space: pre;" direction="ltr">Name</text></g><g transform="translate(436.49172210693325 422.9999059041344) rotate(0 18 13)"><text x="18" y="19" font-family="Virgil, Segoe UI Emoji" font-size="16px" fill="#a61e4d" text-anchor="middle" style="white-space: pre;" direction="ltr">price</text></g><g transform="translate(541.8250452677407 328.1665623982751) rotate(0 80.66665649414057 67.33337402343773)"><path d="M-2.7302689515054226 -0.8125581182539463 C43.2772261786067 -2.9008611307113767, 83.7808188734161 3.4948928489715456, 162.01418030634522 2.146310266107321 M-0.5360137540847063 -1.919923422858119 C33.83263377875895 0.5308335338720043, 67.11103892573834 0.2302677546628673, 162.9212665837258 0.1080057043582201 M158.82278836145997 -1.5342612899839878 C164.05429679690093 51.265225818959465, 157.64300364790648 102.5255855780494, 160.96769309416413 133.82883911952428 M160.99154904298484 -1.2874034028500319 C160.9888810097655 45.482196884500866, 162.33223529452883 91.30740210654415, 160.8761651199311 135.6819949168717 M160.40310168638825 136.4369943700736 C124.70818168927875 133.71537805817493, 77.0496424599915 133.734094989518, 3.5721191205084324 132.42881410941533 M159.36766645126045 134.94275951571814 C125.62961364462305 137.22194309582343, 90.4667237255589 135.77878011812797, 0.31993809156119823 134.3983657974755 M-2.4057108126580715 136.60011022910527 C-0.6826303769452049 86.51137120401495, 1.064485592712693 38.9486903759461, 0.17535877600312233 0.7434764467179775 M-1.0832596737891436 136.63903457112661 C-1.19122615386953 93.86722565616812, -0.7961560182761156 50.7141320274645, 0.03853520564734936 0.13291180320084095" stroke="#000000" stroke-width="1" fill="none"></path></g><g transform="translate(546.4916407267249 328.83321889241574) rotate(0 77.99997965494782 46.66666666666663)"><path d="M-0.8125581182539463 1.007073763757944 C35.249289442678716 1.3701232704181647, 80.43668250532036 2.8104765447635627, 158.14626957600308 -3.457144733518362 M-1.919923422858119 -0.6235447842627764 C48.319322982116546 -0.9651369620375179, 95.46836133350234 2.4241348337121464, 156.10796501425398 1.5433550756424665 M154.46569801991177 3.673271182924509 C157.8436133409539 21.961974275608842, 158.31201823006066 49.03437258924044, 155.16205038254452 94.63150116180373 M154.71255590704573 -0.24965897388756275 C155.668601794665 28.76527420617638, 156.72328160566582 54.88600992225106, 157.01520617989195 92.31499491942418 M157.77020563309384 96.89360042785597 C112.51879766803742 88.69489496586938, 67.40343325156498 96.17988782761712, -2.237933937460184 90.0242381927867 M156.27597077873838 92.68294583571446 C99.93804103435468 89.50695996476088, 41.28785733794463 90.58686362696562, -0.26838224940001965 94.25377254498494 M1.9333621822297573 90.65923174594832 C-1.6995450198650357 71.30748140315208, -2.6645736634731287 51.310959484428125, 0.7434764467179775 0.35155952349305153 M1.9722865242511034 93.57614545834554 C1.9161494256307672 61.00177901672815, 0.346664655332763 27.432995384559007, 0.13291180320084095 -0.21434769220650196" stroke="#a61e4d" stroke-width="1" fill="none"></path></g><g transform="translate(553.6583073933916 425.99996185302746) rotate(0 19.499999999999943 13)"><text x="19.5" y="19" font-family="Virgil, Segoe UI Emoji" font-size="16px" fill="#a61e4d" text-anchor="middle" style="white-space: pre;" direction="ltr">Name</text></g><g transform="translate(648.4916407267248 425.9998601277672) rotate(0 18 13)"><text x="18" y="19" font-family="Virgil, Segoe UI Emoji" font-size="16px" fill="#a61e4d" text-anchor="middle" style="white-space: pre;" direction="ltr">price</text></g><g transform="translate(117.15850067138626 494.1666234334309) rotate(0 80.66665649414062 67.33337402343773)"><path d="M2.649727877229452 1.0143617428839207 C44.42086294609684 0.3492088428864859, 96.44840289167321 0.7028311602006339, 159.15425055846572 -1.5225496254861355 M-0.41338026337325573 1.7213067095726728 C53.65785140708246 1.0989550358242979, 105.46407033644931 1.6453618413395872, 161.47694510407746 1.2658615987747908 M158.2144016586244 -0.9687938652932644 C166.12896719766871 47.103193025008345, 164.12843898130672 82.73426576125722, 161.3164547048509 136.90054858103446 M160.9260184187442 -0.5161661226302385 C160.09397795580696 53.00220293042762, 159.05841728829216 106.59805420699622, 159.55169725604355 134.29373720102063 M164.43095761165023 133.0703626908367 C122.77522087894656 139.50978447555414, 88.26138706982687 138.02914013027063, -2.3739755786955357 132.49158883467368 M161.149131776765 136.05548694543592 C101.09369948954375 135.38798898243218, 41.613708562796134 134.97073077940254, -1.0803510528057814 133.04107805900327 M2.5692931972444057 133.0186722315853 C-0.5281742686580562 99.91249858915629, 0.10427023226510057 65.06194399579954, 3.984326895326376 -0.5564357005059719 M-0.2608248572796583 136.39006230048886 C-3.0124328124347626 108.61858762514413, -1.6116111862483917 79.76187544674765, -0.5955303888767958 1.1525985281914473" stroke="#000000" stroke-width="1" fill="none"></path></g><g transform="translate(121.82509613037064 494.83327992757154) rotate(0 77.99997965494788 46.66666666666663)"><path d="M1.0143617428839207 -3.74430925026536 C40.081833650545306 -1.9487287062016425, 78.06910917759146 -4.245849634965985, 154.47740968440962 1.0070281587541103 M1.7213067095726728 1.1961777824908495 C56.297103870261445 1.1855961299235065, 112.44287593024221 0.7885051584536273, 157.26582090867055 0.40523445792496204 M155.0311654446025 3.3513284288346767 C159.5455062285065 34.35588652640578, 152.04797421842807 65.99331434443587, 158.2337598440547 97.11891771977139 M155.48379318726552 0.1450945157557726 C155.3225076182434 22.312008609995228, 155.7735260112831 44.62333379127082, 155.62694846404088 91.72679307249678 M154.40357395385695 90.21581198399258 C121.5053753732409 93.5587111108773, 83.4032011151346 93.37551993064811, -2.1751592122018337 96.22300113861752 M157.38869820845616 93.14870574263227 C112.33848731104524 93.43637810889935, 68.41818783636381 91.96565966550564, -1.625669987872243 92.6173487522949 M-1.6480758152902126 91.06565345947934 C1.008005477984746 69.72608403861517, 1.7365095396836596 53.37363238508498, -0.5564357005059719 -3.7076991237699986 M1.7233142536133528 91.43566950348509 C3.1299347419291723 60.97343263340488, 2.190652384236454 29.011685951923305, 1.1525985281914473 1.0835543293505907" stroke="#a61e4d" stroke-width="1" fill="none"></path></g><g transform="translate(128.99176279703715 592.0000228881834) rotate(0 19.5 13)"><text x="19.5" y="19" font-family="Virgil, Segoe UI Emoji" font-size="16px" fill="#a61e4d" text-anchor="middle" style="white-space: pre;" direction="ltr">Name</text></g><g transform="translate(223.8250961303703 591.9999211629231) rotate(0 18 13)"><text x="18" y="19" font-family="Virgil, Segoe UI Emoji" font-size="16px" fill="#a61e4d" text-anchor="middle" style="white-space: pre;" direction="ltr">price</text></g><g transform="translate(331.15854136149073 494.4999516805012) rotate(0 80.66665649414062 67.33337402343773)"><path d="M0.015136603266000748 2.6589762531220913 C43.60625966033238 2.611240175604331, 87.72314336803352 -1.7858410803084497, 165.2200617827475 1.251057680696249 M0.00581231527030468 0.566270412877202 C37.987158059014774 2.7670002257563224, 79.96596893642624 1.636075941298162, 159.35703071765602 -1.1214853506535292 M158.17115641012788 -0.4601840414106846 C161.37356796726996 45.84858462325821, 159.36002948746497 87.98895347713609, 162.9351064004004 134.83654445037297 M159.49059137515724 1.9850128907710314 C159.1560917615978 28.78320052873277, 159.33447374106328 55.20846526935564, 162.88614991120994 135.65785473771444 M161.51397812739015 135.55367797240666 C96.12509669166232 131.144976806576, 34.04444660969426 132.2807706116984, -0.9807960949838161 134.6584470830863 M162.33887865953147 134.3272649664437 C116.55202959451933 130.79295340721424, 68.61945718661165 133.80861649458225, -0.45394972153007984 134.05974006839148 M3.842063669115305 130.9221199117606 C4.763408374291277 102.10362957326315, -1.0524143462363718 68.06473747084968, -2.589901562780142 -1.1383369602262974 M1.4239041488617659 135.9439177531754 C0.49660469957887843 82.0479912121177, 1.7441585845619412 31.088345875283608, 1.984009651467204 -1.8701140265911818" stroke="#000000" stroke-width="1" fill="none"></path></g><g transform="translate(335.8251368204751 495.16660817464185) rotate(0 77.99997965494788 46.66666666666663)"><path d="M2.6589762531220913 -0.5572855435311794 C58.281466844390735 -0.615753587161525, 108.89632422643086 3.874942246998326, 157.251016990592 -2.194695111364126 M0.566270412877202 -1.560900004580617 C63.69775217775099 0.8607855997788154, 124.46870118200466 -1.9853494800818718, 154.87847395924223 0.7806386034935713 M155.53977526848507 2.45613706484437 C155.48041548977287 20.070735029876218, 151.9644568229714 40.85806630179283, 156.16975571339322 89.57552655910445 M157.9849722006668 -1.4427495915442705 C157.9916413223991 24.190435190374636, 156.66817210080714 52.462442527835535, 156.9910660007347 95.04440681946767 M156.8868892354269 90.32776864742232 C113.60667262581913 90.59068894791076, 73.96213335385785 92.49345601009796, -0.008300963789224625 92.6375102636714 M155.66047622946394 94.14555780900014 C92.78168345023673 93.37517530850592, 33.6914057619519 94.44806564978781, -0.6070079784840345 92.45120393050206 M-3.744628135114908 96.38862320159865 C1.087664363781612 68.49201944967105, 1.5091217736403155 46.58186970775322, -1.1383369602262974 3.3365929163992405 M1.277169706299901 91.59222613585484 C-2.5802536208182563 72.59422250278288, -1.9066716033965336 54.82622794869041, -1.8701140265911818 -0.2741775829344988" stroke="#a61e4d" stroke-width="1" fill="none"></path></g><g transform="translate(342.9918034871416 592.3333511352537) rotate(0 19.5 13)"><text x="19.5" y="19" font-family="Virgil, Segoe UI Emoji" font-size="16px" fill="#a61e4d" text-anchor="middle" style="white-space: pre;" direction="ltr">Name</text></g><g transform="translate(437.8251368204749 592.3332494099934) rotate(0 18 13)"><text x="18" y="19" font-family="Virgil, Segoe UI Emoji" font-size="16px" fill="#a61e4d" text-anchor="middle" style="white-space: pre;" direction="ltr">price</text></g><g transform="translate(541.8251469930012 492.1666285196941) rotate(0 80.66665649414068 67.33337402343773)"><path d="M1.4077779613435268 2.8499720133841038 C41.925159066926916 -1.7215529991887761, 77.89535618203179 1.8418814824320124, 163.92232948169112 -1.5848466120660305 M-1.0157834868878126 -0.8846955616027117 C54.79960096252486 4.293943305661747, 111.88750929194242 4.588807066133091, 162.7112938184291 0.5126520674675703 M160.5627723298967 -2.7681208811700344 C159.13843940351293 31.842292398267087, 161.65984951112554 59.297802265838975, 164.07048409804702 132.6533875502651 M162.12925446219742 0.8908874075859785 C159.95989664026163 32.09004628664138, 161.86420299240015 61.416064830613784, 162.81086248345673 133.45842966251126 M160.4713334403932 134.05199194327048 C99.85107854079385 131.9751714935949, 41.670700197590975 130.07079439074303, -0.6690298952162266 135.92467606440238 M162.59446948952973 135.95221981219998 C106.11945651172303 131.1799847874206, 54.14414026548371 133.84162787528453, 1.4272024650126696 135.156936673448 M3.73539000377059 133.67762005701712 C-0.6819960243527192 84.53916076860193, 3.391087972420047 27.21576877144649, -0.9378140605986118 2.7774808444082737 M0.6658113021403551 134.04411366395703 C3.4178122089866845 93.77276714020287, 3.1292283938888756 55.891341804803204, 0.1242175716906786 0.10640308074653149" stroke="#000000" stroke-width="1" fill="none"></path></g><g transform="translate(546.4917424519856 492.8332850138347) rotate(0 77.99997965494782 46.66666666666663)"><path d="M2.8499720133841038 2.999058064073324 C47.41973234163977 -1.0549123471101853, 98.8710882814677 1.4909499699750808, 154.41511269782973 1.8691889606416225 M-0.8846955616027117 -1.139454124495387 C62.32918520723103 1.5940209441235493, 123.54327769176301 2.9626026563694907, 156.51261137736333 -1.7720512729138136 M153.23183842872572 -3.963054958730936 C159.44209914753827 32.68571264296768, 158.42940371582898 70.99188609793778, 153.98659881328535 90.4088014525671 M156.89084671748174 0.026051582768559456 C157.89007152157518 25.080719521269184, 156.6619956000397 47.77827266789969, 154.7916409255315 94.59660168675077 M155.38520320629073 90.44145621483517 C113.43141795062184 90.17909132863913, 70.75888650965021 91.99195956613455, 1.257928017526865 94.77666737263394 M157.28543107522023 92.34091731098783 C111.49425281998404 96.55444514774305, 70.56400405388361 96.72793942712767, 0.49018862657248974 95.22852661398542 M-0.9891279898583889 91.13613487904263 C3.125103396177292 72.45991719265773, -1.037288385629654 46.896915906419316, 2.7774808444082737 -0.22215956822037697 M-0.6226343829184771 94.14903547552717 C-1.1824317079037427 74.87765931400153, 0.5882297057658434 55.491966212168286, 0.10640308074653149 0.18311071582138538" stroke="#a61e4d" stroke-width="1" fill="none"></path></g><g transform="translate(553.6584091186521 590.0000279744465) rotate(0 19.500000000000057 13)"><text x="19.5" y="19" font-family="Virgil, Segoe UI Emoji" font-size="16px" fill="#a61e4d" text-anchor="middle" style="white-space: pre;" direction="ltr">Name</text></g><g transform="translate(648.4917424519857 589.9999262491863) rotate(0 18 13)"><text x="18" y="19" font-family="Virgil, Segoe UI Emoji" font-size="16px" fill="#a61e4d" text-anchor="middle" style="white-space: pre;" direction="ltr">price</text></g><g transform="translate(23.825096130370923 273.3332901000979) rotate(0 88.00000000000003 13)"><text x="88" y="19" font-family="Virgil, Segoe UI Emoji" font-size="16px" fill="#d9480f" text-anchor="middle" style="white-space: pre;" direction="ltr">Categories &gt; Earrings</text></g></svg>