<svg version="1.1" xmlns="http://www.w3.org/2000/svg" viewBox="0 0 1167.6635576885815 994.8656350996346">
  <!-- svg-source:excalidraw -->
  <defs>
    <style>
      @font-face {
        font-family: "Virgil";
        src: url("https://excalidraw.com/FG_Virgil.woff2");
      }
      @font-face {
        font-family: "Cascadia";
        src: url("https://excalidraw.com/Cascadia.woff2");
      }
    </style>
  </defs>
  <rect x="0" y="0" width="1167.6635576885815" height="994.8656350996346" fill="#ffffff"></rect><g transform="translate(10.013324737735275 46.933329264321856) rotate(0 436.40000915527344 460.40003712971986)"><path d="M0.5072566255927086 -0.6154260143637658 C192.8650584977088 -3.787266386493264, 383.86516841425845 -4.505952347262917, 873.5867787107825 0.11127977520227433 M-0.7576711647212506 -0.7447922594845295 C195.7507169652285 -1.8176083825604097, 391.8996332018677 -1.5040123961941376, 873.4557603128254 0.5221919886767864 M871.8598870024085 1.3216248527169228 C879.1912675903341 313.24267873618663, 878.9454783008596 628.5116833642852, 872.59209921211 919.5372736151016 M873.1223891504109 -0.4371889241039753 C875.7383553193166 285.10129096843684, 875.4510948584631 569.229699297257, 872.7144896037877 920.2438702854014 M872.0471044763923 919.29638578246 C668.9671026359339 924.1786301892996, 463.80235805865914 923.9018235009909, -0.9604248300194741 921.7331043894088 M873.2041347987949 920.7070784839487 C529.8775583938419 916.5525741539691, 185.91831673620322 915.5319736681674, 0.359010673314333 921.0042858156062 M0.8112430319190026 921.912468021611 C-2.8960238038557824 655.9968015435256, -2.792334943916207 392.08894909131925, 1.3575146898627282 -1.0084056362509728 M0.08866441324353219 920.7199659379817 C2.470188943338934 733.3086066083259, 2.795274368715826 547.1814628243246, -0.6900099746882916 -0.27148817852139473" stroke="#000000" stroke-width="1" fill="none"></path></g><g transform="translate(18.413532257266297 45.999999999999545) rotate(0 436.6666412353517 110.66666920979787)"><path d="M-0.8651171937584877 -0.07205991595983506 C274.5930133718752 0.8549789094598366, 548.3764109663175 3.394427409139402, 871.8337881311777 -1.2912632450461388 M0.5656224496662617 0.7612678401172162 C209.1176845737301 4.556850402264179, 417.7160609372959 5.060239021687091, 872.6058430202307 -0.6297137625515461 M872.4628378905535 0.2827442967759588 C870.0012009225483 61.78250274052671, 875.485168831435 129.95478888726754, 876.3048470330241 224.06073137213593 M873.235252091853 1.5153616897271496 C875.0960996981541 68.008408562886, 873.0769002844543 133.88893957772183, 873.6472115338115 220.06899314637636 M873.3435874685647 222.76589018652768 C610.6589498443577 218.44223119924234, 351.2194034677095 219.42346131513284, -0.7936064496636391 220.35640670607418 M873.5146980054678 221.64261703814 C560.1995734356307 224.9611940204857, 248.55913224592047 225.09059124586562, 0.4031256683170796 221.41247375334234 M-1.345378903885032 220.36282886640203 C-6.754867395099239 133.68158226419476, -5.151556478343949 50.78352892563903, -1.2237822311244908 -2.488216348024565 M-0.26129817867833444 221.76126692991545 C0.9292036736135629 175.7008231536063, -1.0093953437257022 130.68694632482178, -1.0290960008832462 0.7421549636374692" stroke="#000000" stroke-width="1" fill="none"></path></g><g transform="translate(326.4135627748442 132.5000864664703) rotate(0 118.53838054950506 22.333318074544422)"><text x="0" y="32.66663614908885" font-family="Virgil, Segoe UI Emoji" font-size="27.48716070713159px" fill="#000000" text-anchor="start" style="white-space: pre;" direction="ltr">Hamsa Handmade.</text></g><g><g transform="translate(907.7469774883871 61.33332824706986) rotate(0 0.4757487026359968 98.27835521890461)"><path d="M-2.6241150941699742 -2.259710678830743 C-2.7032427894820934 30.514083413676246, -1.9525022579978744 165.4307100370319, -1.906305322572689 198.81642111664013 M1.1468410697579383 2.6852782854437827 C2.110916964362048 34.55289455758614, 3.2126923922200157 163.47500403816912, 3.5759891730545945 195.2940195412685" stroke="#e67700" stroke-width="1" fill="none"></path></g></g><g transform="translate(770.5804125469806 228.50008138020758) rotate(0 50.5 13)"><text x="50.5" y="19" font-family="Virgil, Segoe UI Emoji" font-size="16px" fill="#000000" text-anchor="middle" style="white-space: pre;" direction="ltr">Login/Sign up</text></g><g transform="translate(18.413496653425227 10) rotate(0 44 13)"><text x="0" y="19" font-family="Virgil, Segoe UI Emoji" font-size="16px" fill="#000000" text-anchor="start" style="white-space: pre;" direction="ltr">Categories</text></g><g transform="translate(231.08013280251362 393.9999847412105) rotate(0 90 42.66667683919286)"><path d="M1.6220761574804783 3.2381977401673794 C56.987929182127125 3.668493347987533, 116.79189637303354 2.8732873972505333, 179.5158212222159 -3.793782416731119 M-1.4319443423300982 -1.385348616167903 C46.3172778338194 1.5514981016516685, 92.34802276082338 -0.31523932367563257, 178.10510703735054 -0.378200052306056 M176.32574153319 -0.13045138493180275 C178.58526072017858 22.602426488450995, 176.6228010367603 53.90689478541778, 182.2976154126227 81.5269363882644 M178.71013375930488 0.8666954059153795 C180.35995959994193 19.872747972151842, 181.8529511069953 34.05189814886194, 179.83467712812126 85.03300521957408 M181.3661721982062 87.83153328920434 C106.71209149621427 80.46507237243186, 41.73172066360712 82.50596413898002, -0.5500116311013699 87.72190878416131 M178.83406725339592 84.5937423526002 C115.47589398548007 88.23522224153112, 55.90449249185622 87.57830460990499, -0.674905689433217 86.96081904756556 M1.3308925665915012 88.84843561674188 C-3.7520722492600074 59.18861988611468, 0.37527367034906267 43.34526762594646, 3.2831207551062107 -0.4780302681028843 M-1.6439451295882463 86.45800332414638 C0.04195390925984688 66.54266206959872, 1.6307286499558002 47.08618502708721, 0.9749791901558638 -0.7795119863003492" stroke="#000000" stroke-width="1" fill="none"></path></g><g transform="translate(243.08015314756562 493.999959309896) rotate(0 81.3333129882813 91.3333511352539)"><path d="M3.2381977401673794 -0.9568843804299831 C65.57959967542148 -0.4170190301525629, 128.12992113582206 -1.803467055855993, 158.8728435598315 -1.6710380278527737 M-1.385348616167903 -0.16305104084312916 C55.54484781772588 1.7166605590289823, 107.85975074881205 0.43440258488118566, 162.28842592425656 -0.09472486563026905 M162.5361745916308 -1.0188020430505276 C157.87164518482422 47.580983401742586, 163.98026690132355 103.42210566904546, 158.8602086864413 179.09769082441926 M163.533321382478 0.25393894128501415 C166.98357100858047 57.681693442308244, 163.17660798205688 111.70420311606097, 162.36627751775097 184.54624697379768 M165.16480558738124 180.29469609633088 C114.80397376801469 187.34138070325844, 72.09224702066962 183.22784374933235, 2.3885551057755947 184.61021316424012 M161.9270146507771 180.88839527778327 C116.40476274552034 182.1662093458981, 70.14282768901846 180.09521312101788, 1.6274653691798449 182.04753795079887 M3.515081938356161 179.18694866076112 C-3.921259863464875 125.59962358748515, 3.1936255859446097 70.52048103984394, -0.4780302681028843 -2.999071594327688 M1.1246496457606554 182.62975278310478 C-0.7340432698230539 130.26302972331354, -0.9885351354579721 75.73068585968929, -0.7795119863003492 0.1769092958420515" stroke="#000000" stroke-width="1" fill="none"></path></g><g transform="translate(421.7468401592844 395.33337402343705) rotate(0 113.999989827474 64.66667175292969)"><path d="M-0.8165129190537073 1.9063419815335203 C60.08523747169307 -1.9222189897230606, 118.21750417680866 -6.387257166249765, 226.57407683337752 1.1292257797235332 M-0.13913204566443463 1.163229880512652 C66.68472295213017 2.265576270593827, 132.79805417725808 2.3725207396927344, 227.91915058288393 -0.39592336217171387 M226.98117761189746 -2.5934200920164585 C222.64269726639296 34.521359309599134, 227.92157440548445 58.20589808011121, 224.43096820885944 129.58182936534286 M228.253918596233 1.8866347689181566 C228.07868296744203 45.48332691510153, 226.1664296472249 94.50696188660228, 229.87952435823786 128.83571601100266 M225.9759381668632 126.67954045262445 C173.77632207720228 130.85118514027562, 113.00179936094305 133.80165058425098, 1.6584049081676526 128.6629466598032 M226.48254383584657 128.77285459253818 C138.25275255782694 126.77336680578948, 45.54704772903347 129.28312803494322, -0.5283351639957556 129.60565260266839 M-3.4797536097466946 126.14684742316604 C-0.2130516175594921 91.86055907450779, 2.4224768276843434 46.05296564162104, -2.999071594327688 -0.18492979183793068 M-0.036949487403035164 129.74463707394898 C3.6779944547911296 86.6354830192738, 3.101148391654075 42.84450714147853, 0.1769092958420515 -0.4113804083317518" stroke="#000000" stroke-width="1" fill="none"></path></g><g transform="translate(417.74679946918036 540.666625976563) rotate(0 80.66665649414062 66.00001017252634)"><path d="M2.2340722642838955 0.9022692479193211 C56.381233220171936 0.28770785842343116, 106.09095139651896 -0.8991513916452334, 162.6566705070436 -0.2092118225991726 M1.3632074613124132 -0.612634988501668 C36.34544769432247 -1.6318373165953686, 73.31975526436867 0.168330780423827, 160.8693241495639 -1.2052337247878313 M158.7398928962648 -2.9812617264688015 C164.76241668543892 29.772566706840983, 157.44079777083473 51.380891142348034, 161.58179884776473 134.66094347213766 M163.2199477571994 1.7469304483383894 C160.55702284281375 30.92156473092945, 162.17700264160754 64.05331990890625, 160.83568549342453 131.02321611655316 M158.22327929362655 135.5635456678774 C106.35394999246316 129.5365906414082, 55.901425958633766 132.03011316624188, -0.7856486476957798 135.95414742206594 M160.67646718211472 133.3961108804997 C121.02474529056238 128.4561130691547, 84.97116983760867 128.51185443887897, 0.31912332959473133 132.40226321232876 M-3.1864960826933384 132.64761265491506 C1.6084349298284435 91.29118884996416, -2.7979847049905873 41.017044250335516, -0.18492979183793068 1.2540181912481785 M0.4112935680896044 133.5518455983456 C-1.3277360587599416 104.22503295928269, -2.264049747514977 74.676996489043, -0.4113804083317518 -1.7436905819922686" stroke="#000000" stroke-width="1" fill="none"></path></g><g transform="translate(271.0801328025136 429.83334859212255) rotate(0 33.5 13)"><text x="0" y="19" font-family="Virgil, Segoe UI Emoji" font-size="16px" fill="#000000" text-anchor="start" style="white-space: pre;" direction="ltr">earrings.</text></g><g transform="translate(284.4134661358471 569.8333231608071) rotate(0 39 13)"><text x="0" y="19" font-family="Virgil, Segoe UI Emoji" font-size="16px" fill="#000000" text-anchor="start" style="white-space: pre;" direction="ltr">necklaces.</text></g><g transform="translate(497.74679946918036 445.83328247070267) rotate(0 39 13)"><text x="0" y="19" font-family="Virgil, Segoe UI Emoji" font-size="16px" fill="#000000" text-anchor="start" style="white-space: pre;" direction="ltr">bracelets.</text></g><g transform="translate(478.413455963321 593.6666361490893) rotate(0 20 13)"><text x="20" y="19" font-family="Virgil, Segoe UI Emoji" font-size="16px" fill="#000000" text-anchor="middle" style="white-space: pre;" direction="ltr">rings.</text></g><g transform="translate(353.87521782918043 314.66673533121707) rotate(0 79 21.5)"><text x="0" y="31" font-family="Virgil, Segoe UI Emoji" font-size="27.48716070713159px" fill="#000000" text-anchor="start" style="white-space: pre;" direction="ltr">Categories.</text></g><g transform="translate(157.36037666648622 723.5833129882812) rotate(0 23.269224313589177 18.3333282470702)"><text x="23.269224313589152" y="27.666656494140483" font-family="Virgil, Segoe UI Emoji" font-size="22.564096304086465px" fill="#000000" text-anchor="middle" style="white-space: pre;" direction="ltr">Help.</text></g><g transform="translate(261.6938727602362 726.7499338785801) rotate(0 41.5 17.5)"><text x="41.5" y="26" font-family="Virgil, Segoe UI Emoji" font-size="22.564096304086465px" fill="#000000" text-anchor="middle" style="white-space: pre;" direction="ltr">Profile.</text></g><g transform="translate(409.0270433331532 725.2499389648438) rotate(0 56.5 17.5)"><text x="56.5" y="26" font-family="Virgil, Segoe UI Emoji" font-size="22.564096304086465px" fill="#000000" text-anchor="middle" style="white-space: pre;" direction="ltr">Site rules.</text></g><g transform="translate(599.5271857485181 722.2500101725254) rotate(0 55 17.5)"><text x="55" y="26" font-family="Virgil, Segoe UI Emoji" font-size="22.564096304086465px" fill="#000000" text-anchor="middle" style="white-space: pre;" direction="ltr">About me.</text></g><g transform="translate(157.52716540346546 771.5833638509112) rotate(0 15 13)"><text x="15" y="19" font-family="Virgil, Segoe UI Emoji" font-size="16px" fill="#000000" text-anchor="middle" style="white-space: pre;" direction="ltr">FAQ</text></g><g transform="translate(151.52722643862194 808.9166870117188) rotate(0 37 13)"><text x="37" y="19" font-family="Virgil, Segoe UI Emoji" font-size="16px" fill="#000000" text-anchor="middle" style="white-space: pre;" direction="ltr">Contacts</text></g><g transform="translate(263.36055977195497 780.9167582194004) rotate(0 38.5 13)"><text x="38.5" y="19" font-family="Virgil, Segoe UI Emoji" font-size="16px" fill="#000000" text-anchor="middle" style="white-space: pre;" direction="ltr">My profile</text></g><g transform="translate(260.1938320701322 852.9168802897138) rotate(0 39 13)"><text x="39" y="19" font-family="Virgil, Segoe UI Emoji" font-size="16px" fill="#000000" text-anchor="middle" style="white-space: pre;" direction="ltr">My orders</text></g><g transform="translate(256.86049873679895 816.9167175292969) rotate(0 49 13)"><text x="49" y="19" font-family="Virgil, Segoe UI Emoji" font-size="16px" fill="#000000" text-anchor="middle" style="white-space: pre;" direction="ltr">My favorites</text></g><g transform="translate(406.3604987367987 783.5833841959629) rotate(0 59.5 13)"><text x="59.5" y="19" font-family="Virgil, Segoe UI Emoji" font-size="16px" fill="#000000" text-anchor="middle" style="white-space: pre;" direction="ltr">Orders/delivery</text></g><g transform="translate(407.86051908185095 819.5833943684902) rotate(0 50 13)"><text x="50" y="19" font-family="Virgil, Segoe UI Emoji" font-size="16px" fill="#000000" text-anchor="middle" style="white-space: pre;" direction="ltr">Return policy</text></g><g transform="translate(603.6937506899237 774.2500915527344) rotate(0 27.5 13)"><text x="27.5" y="19" font-family="Virgil, Segoe UI Emoji" font-size="16px" fill="#000000" text-anchor="middle" style="white-space: pre;" direction="ltr">History</text></g><g transform="translate(601.3604173565905 804.9166971842442) rotate(0 16.5 13)"><text x="16.5" y="19" font-family="Virgil, Segoe UI Emoji" font-size="16px" fill="#000000" text-anchor="middle" style="white-space: pre;" direction="ltr">Blog</text></g><g transform="translate(602.0270840232574 830.25) rotate(0 42.5 13)"><text x="42.5" y="19" font-family="Virgil, Segoe UI Emoji" font-size="16px" fill="#000000" text-anchor="middle" style="white-space: pre;" direction="ltr">Who am I?</text></g><g><g transform="translate(12.527216266095593 898.4167175292969) rotate(0 438.6891450068605 0.5527123926207196)"><path d="M0.5945514474064111 -0.4070822451263667 C147.003697321088 -0.46317416125287614, 733.7433380214914 0.18683341027547934, 879.9055062798166 0.6742706231772901 M-2.5272162660956385 -3.0963807025551797 C143.3896765782395 -2.7784522019450866, 730.1179631827071 4.03799045154204, 877.7396677335852 4.201805487796665" stroke="#000000" stroke-width="1" fill="none"></path></g></g><g transform="translate(332.5271654034657 917.0833536783853) rotate(0 124.66664632161451 16.666666666666742)"><path d="M117.39584225042182 -1.373918714065578 C133.51426083115757 -1.9858344926821259, 152.0927203421877 -0.3892012537163396, 167.53029978298966 0.90514099364092 C182.9678792237916 2.1994832409981795, 198.075092267289 4.904747022201213, 210.02131889523355 6.3921347700779805 C221.9675455231781 7.879522517954748, 232.9582155264366 8.179024714459585, 239.2076595506569 9.829467480901528 C245.4571035748772 11.47991024734347, 247.82127254378327 14.048401239521471, 247.51798304055535 16.294791368729637 C247.21469353732743 18.541181497937803, 244.20924890358324 21.195463496162258, 237.38792253128943 23.307808256150526 C230.56659615899562 25.420153016138794, 219.66624768621034 27.171038685563666, 206.59002480679246 28.96885992865925 C193.51380192737457 30.766681171754833, 175.29954932915044 33.20327825398931, 158.93058525478222 34.09473571472403 C142.561621180414 34.98619317545875, 124.73613511764594 34.98017406484145, 108.37624036058308 34.31760469306755 C92.01634560352022 33.65503532129365, 75.27117195819274 31.37484537515641, 60.77121671240502 30.11931948408064 C46.271261466617304 28.86379359300487, 31.422899647726275 28.426107232810395, 21.376508885856794 26.78444934661293 C11.330118123987313 25.142791460415467, 3.8197725184177975 22.566916077499663, 0.49287214118814404 20.269372166895852 C-2.8340282360415094 17.971828256292042, -2.9874405034742013 15.107979744140202, 1.4151066224788735 12.99918588299008 C5.817653748431948 10.890392021839958, 16.426368374394436 9.330591018298843, 26.908154896906595 7.616608999995114 C37.389941419418754 5.902626981691383, 49.91953211048993 4.219286044276041, 64.30582575755182 2.715293773167696 C78.69211940461369 1.2113015020593514, 98.48439480578601 -1.0580944403812624, 113.2259167792779 -1.4073446266549539 C127.96743875276978 -1.7565948129286453, 140.33858022915285 0.12922960528713912, 152.75495759850315 0.6197926555255471 C165.17133496785345 1.110355705763955, 187.84089669372014 1.3374995850105893, 187.72418099537975 1.536033674775494 M121.69394455696415 2.0967187481235605 C136.96686846016772 1.9381246254689248, 154.2285626434789 1.439733874158857, 169.17383262021082 1.503965803235367 C184.11910259694272 1.5681977323118772, 199.0960905783381 1.2259730327601883, 211.3655644173556 2.4821103225826207 C223.63503825637312 3.738247612405053, 236.22543084023982 6.35331624395797, 242.79067565431592 9.04078954216996 C249.35592046839201 11.728262840381952, 251.70761657948884 16.148623229449658, 250.7570333018122 18.606950111854566 C249.8064500241356 21.065276994259474, 245.50440339272797 22.028367979870453, 237.0871759882561 23.7907508365994 C228.66994858378422 25.55313369332835, 213.78785056539175 27.290182071452875, 200.25366887498097 29.181247252228246 C186.7194871845702 31.072312433003617, 171.6425393485282 34.91089435927929, 155.88208584579152 35.13714192125162 C140.12163234305484 35.36338948322395, 122.16550492104115 31.31594604646913, 105.69094785856097 30.538732624062217 C89.2163907960808 29.761519201655304, 71.10250232643432 31.089981206278193, 57.034743470910485 30.47386138681015 C42.96698461538666 29.857741567342106, 30.238939039078744 28.608525811027608, 21.28439472541801 26.84201370725396 C12.329850411757276 25.075501603480316, 5.805983947552479 22.58423459895952, 3.307477588946071 19.87478876416828 C0.808971230339663 17.16534292937704, 2.1597534488888614 12.535872405264202, 6.293356573779562 10.585338698506515 C10.426959698670263 8.634804991748828, 17.944528576838586 9.201479891611255, 28.10909633829027 8.171586523622157 C38.27366409974196 7.1416931556330585, 52.86774361723414 5.926769294651753, 67.28076314248969 4.405978490571924 C81.69378266774524 2.8851876864920944, 106.24907449387989 0.237588140618338, 114.58721348982358 -0.9531583008568205 C122.92535248576728 -2.143904742331979, 116.83135080372116 -2.8897101158291147, 117.30959711815187 -2.7385001582790274 C117.78784343258258 -2.58729020072894, 117.34339203425638 -0.3731613242433787, 117.45669137640786 -0.045898555556295406" stroke="#000000" stroke-width="1" fill="none"></path></g><g transform="translate(405.52716540346546 918.2500101725259) rotate(0 47 13)"><text x="47" y="19" font-family="Virgil, Segoe UI Emoji" font-size="16px" fill="#000000" text-anchor="middle" style="white-space: pre;" direction="ltr">social media</text></g><g transform="translate(16.413359324323437 695.0001106262207) rotate(0 436.6667429606123 98.66659164428711)"><path d="M-0.34647500663995745 -1.4950455173850061 C182.00564683759254 -3.3165983418790494, 367.0163853200086 -1.6109953622190147, 872.8156693523134 -0.32359790652990345 M-0.1470612995326519 0.404010259360075 C196.3769557249869 -5.968765146722783, 393.9872528093209 -4.757425935258855, 872.6803629962111 -0.4967133171856404 M874.187108294418 -2.7944235764443874 C873.7931935099551 80.58158199247661, 877.4103563336322 154.38434918859488, 873.1578594607616 199.66831028833985 M873.5149252632017 -1.7415234167128801 C869.8372485953474 53.31236884698583, 869.0107867437506 109.02162419357028, 873.6350880482549 195.9694571774453 M874.2020540778841 197.58667340427638 C629.2306350570047 193.8178216378181, 385.60953189305906 195.85651482743907, -0.5165459886193275 197.5417666450143 M873.7977636662628 197.28421403095126 C538.2954627191202 190.87946443611347, 205.1468734724171 191.22506420665943, -0.05411145612597466 198.11908463165165 M0.15397899970412254 198.0534780062735 C-0.4909404859953188 128.24037437727483, -4.4234221325331 70.20681557859842, 3.8898592554032803 -0.6038824282586575 M-0.7201103549450636 196.88623973540962 C-0.6905278257739456 126.35760215699145, -0.49711128991960596 57.74348293489649, 1.6901563424617052 1.536806968972087" stroke="#000000" stroke-width="1" fill="none"></path></g><g transform="translate(14.413516998477235 897.3333282470703) rotate(0 433.999989827474 35.33335367838538)"><path d="M-0.19650080353021623 -0.4902872070670128 C205.3727896204598 -2.5345418697265902, 410.16803066700845 -0.825980210867337, 868.8947212124865 -0.330276058614254 M0.13305146768689155 0.12739671394228935 C241.8740968074158 5.817880266406868, 482.6900208397717 5.534881251552436, 868.6299182581406 -0.23368529155850412 M870.2350034477811 -1.166496153920889 C864.1039246646452 16.014575849081893, 867.563727411418 35.38571514334444, 867.7219556334119 74.16916378711653 M869.2665600000571 -0.9001612383872271 C868.9921463960626 25.86780398650326, 866.7914532059648 54.83819039974824, 868.9886381446074 70.20066170704854 M868.9492318535845 71.21958774079872 C628.9358086425244 71.57855238392435, 390.6869102727729 71.36385659649453, -0.9870475545525551 69.69420155038429 M867.9086295055847 70.7036474419136 C598.9919053202536 68.95336215727853, 328.4190539681743 68.34295377963113, 0.4821254260838032 71.3431498480339 M2.8921843133866787 71.29569884513808 C0.7478617496367612 53.15004839597805, -1.3143920831803164 31.055060941202782, -0.5229707397520542 3.679421428591013 M1.7626174706965685 69.9746353508283 C-0.33246563837569965 45.62032563341431, -3.271215011334837 21.66118612779232, -1.6240041833370924 -0.30593386478722095" stroke="#000000" stroke-width="1" fill="none"></path></g><g><g transform="translate(907.1634763083737 168.1667073567719) rotate(0 95.1510944105313 1.9899841730671142)"><path d="M2.5362472202628847 -0.010430690273642629 C34.31934776566923 0.8598944260428348, 158.32900922161838 5.456959107890725, 189.83364589475096 6.46437236405909 M0.46854292631149264 -2.4844040179252627 C32.00211930672327 -2.5817140205701197, 156.11733753283818 0.06620333274205503, 187.86714682340622 2.0676994824409483" stroke="#e67700" stroke-width="1" fill="none"></path></g><g transform="translate(907.1634763083737 168.1667073567719) rotate(0 95.1510944105313 1.9899841730671142)"><path d="M159.28452428886774 11.941090262645899 C168.52174396176073 11.430849518180072, 175.5948174902218 6.471105889689781, 184.40070238694548 1.3283070863783357 M157.72947070272747 11.9494336854313 C165.88408719778835 9.926829452213752, 173.3315194289244 5.394333559467334, 186.83229873128235 0.9154445713013408" stroke="#e67700" stroke-width="1" fill="none"></path></g><g transform="translate(907.1634763083737 168.1667073567719) rotate(0 95.1510944105313 1.9899841730671142)"><path d="M160.08087979783093 -8.564660645067372 C169.2857703685516 -3.5421993187710274, 176.14453772906438 -2.98366769397021, 184.40070238694548 1.3283070863783357 M158.52582621169066 -8.55631722228197 C166.6263131522976 -6.078320970851522, 173.89875323518626 -6.104857700411464, 186.83229873128235 0.9154445713013408" stroke="#e67700" stroke-width="1" fill="none"></path></g></g><g transform="translate(1104.6635169984772 158.66668192545558) rotate(0 26.5 13)"><text x="26.5" y="19" font-family="Virgil, Segoe UI Emoji" font-size="16px" fill="#e67700" text-anchor="middle" style="white-space: pre;" direction="ltr">Header</text></g><g><g transform="translate(896.496931712019 466.8333485921221) rotate(0 109.3534622685487 4.100605515800339)"><path d="M1.5578661356121302 -2.6437678668648004 C38.30994449526898 -1.6145532264063753, 183.11281484965642 6.0925193216651685, 219.74788385567558 8.42989118359983 M-1.0409593185782433 2.0927329096198086 C35.50509381019405 3.198027521868547, 181.08547824796696 8.714085836509863, 218.09686554421972 10.844978898465634" stroke="#5c940d" stroke-width="1" fill="none"></path></g><g transform="translate(896.496931712019 466.8333485921221) rotate(0 109.3534622685487 4.100605515800339)"><path d="M185.6858535213746 21.338576290592954 C193.93152615976635 20.894496363480243, 205.9549852218782 13.692565940335012, 218.52383507614326 13.091254379302264 M190.5934816049762 21.45379982313554 C195.19954487075495 17.40942012903912, 202.4319322258746 16.496187967895036, 219.6042837874342 11.430997105017305" stroke="#5c940d" stroke-width="1" fill="none"></path></g><g transform="translate(896.496931712019 466.8333485921221) rotate(0 109.3534622685487 4.100605515800339)"><path d="M186.6327514165701 0.8392254042376894 C194.950339192083 5.995718783742975, 206.7155854985044 4.3838249517528265, 218.52383507614326 13.091254379302264 M191.5403795001717 0.9544489367802758 C196.2667149680955 2.034413911572777, 203.26323631971377 6.227434486304795, 219.6042837874342 11.430997105017305" stroke="#5c940d" stroke-width="1" fill="none"></path></g></g><g transform="translate(1120.6635576885815 459.9999745686846) rotate(0 18.5 13)"><text x="18.5" y="19" font-family="Virgil, Segoe UI Emoji" font-size="16px" fill="#5c940d" text-anchor="middle" style="white-space: pre;" direction="ltr">Body</text></g><g><g transform="translate(894.4136187237377 271.66662343343114) rotate(0 0.2579048531378021 209.41514523951957)"><path d="M2.749454119428992 -1.100201043114066 C2.654583227593025 69.13655876388978, -0.6763874796116319 352.18120310509363, -1.404592849190112 422.99605446991814 M0.7974907135963436 -4.165763990879059 C0.6399930617544255 65.12133023553423, -1.7448650230302387 348.2617047455575, -2.2336444131534066 418.88801039775205" stroke="#5c940d" stroke-width="1" fill="none"></path></g></g><g><g transform="translate(900.9970130922275 835.9332889948125) rotate(0 73.23487713870907 2.714131270919438)"><path d="M-1.698773905262351 -0.7151809189468623 C22.59321046873101 0.43276927909887486, 123.78964284331441 4.50085545339369, 148.1685281826805 6.045305158071915 M2.574510332643986 -3.5717329421639445 C26.41069680627851 -1.9775642988171518, 122.12969033761163 7.786786008136304, 146.74581547091412 8.999995484002628" stroke="#a61e4d" stroke-width="1" fill="none"></path></g><g transform="translate(900.9970130922275 835.9332889948125) rotate(0 73.23487713870907 2.714131270919438)"><path d="M116.81552045005114 19.163765103132118 C127.27770648939338 11.282758766912611, 142.02563397102136 8.994877386706952, 150.36335309232282 7.158518503405848 M116.92332793171258 15.138712382451285 C125.86883522925781 15.51754962980969, 130.81153965856524 12.855310396973428, 148.40191767933476 10.709698156439462" stroke="#a61e4d" stroke-width="1" fill="none"></path></g><g transform="translate(900.9970130922275 835.9332889948125) rotate(0 73.23487713870907 2.714131270919438)"><path d="M118.42481614437948 -1.2942448136231164 C128.142220312968 -1.2916871147762716, 142.26846411198312 4.323522893879963, 150.36335309232282 7.158518503405848 M118.53262362604092 -5.319297534303949 C127.44829044532695 0.23871966250175314, 131.98606913781666 2.724058198351179, 148.40191767933476 10.709698156439462" stroke="#a61e4d" stroke-width="1" fill="none"></path></g></g><g transform="translate(1056.830224355248 829.333297729492) rotate(0 25.5 13)"><text x="25.5" y="19" font-family="Virgil, Segoe UI Emoji" font-size="16px" fill="#a61e4d" text-anchor="middle" style="white-space: pre;" direction="ltr">Footer</text></g><g><g transform="translate(901.0802853904045 691.6666768391926) rotate(0 -1.7789027662699937 146.33998635546618)"><path d="M-2.092128535732627 1.2634516503661875 C-3.2633430990494086 50.337071443887226, -4.992601523755389 245.19087509310086, -5.525425863886949 293.1989582604419 M1.967620331346989 -0.5189855495095252 C1.5894781577918142 47.93862709320255, 1.6758333088622521 240.86201371255856, 0.04849893560004581 289.56295429716516" stroke="#a61e4d" stroke-width="1" fill="none"></path></g></g><g transform="translate(833.3301633200924 640.4166005452473) rotate(0 12.000020345052008 13.333358764648438)"><path d="M18.78354156934573 0.26460854709618076 C21.362250973578924 0.8830735298756327, 24.389818021148994 3.741115252260167, 24.83615023495594 6.842725894131258 C25.282482448762888 9.944336536002348, 22.87261525075552 15.881944739143346, 21.461534852187405 18.874272398322724 C20.05045445361929 21.8666000575021, 17.963704644208622 23.592552457143665, 16.369667843547255 24.796691849207523 C14.775631042885887 26.00083124127138, 14.138765876209746 26.766100969533117, 11.897314048219206 26.09910875070587 C9.655862220228666 25.432116531878624, 4.8787234344687365 23.192396415576795, 2.920956875604018 20.79473853624404 C0.9631903167392997 18.397080656911285, 0.032076276212999424 14.604541628455308, 0.15071469503089574 11.71316147470934 C0.26935311384879207 8.821781320963371, 1.7928399355890445 5.329805611492403, 3.632787388511396 3.4464576137682315 C5.4727348414337476 1.56310961604406, 7.907559937143368 -0.6265282601900342, 11.190399412565004 0.41307348836431146 C14.47323888798664 1.452675236918657, 21.26100922614972 6.633000769198119, 23.329824241041205 9.684068105094305 C25.39863925593269 12.73513544099049, 23.666778541386556 18.78868265506751, 23.603289501913913 18.719477503741423 M16.85440723701971 2.1480073701647218 C18.66611938632013 3.239635910953443, 20.364396612113843 4.6005347295065615, 21.451906982791698 7.532098712509399 C22.539417353469553 10.463662695512237, 24.070485567727005 17.097355248075505, 23.379469461086828 19.73739126818175 C22.68845335444665 22.377427288287993, 19.81654514387069 21.77088391887062, 17.305810342950647 23.37231483314686 C14.795075542030604 24.9737457474231, 10.402432094962773 29.72516850626342, 8.315060655566569 29.345976753839178 C6.227689216170365 28.966785001414937, 5.910744782825966 23.20414195139538, 4.781581706573419 21.097164318601415 C3.6524186303208728 18.99018668580745, 1.9764469153952955 19.11470892134754, 1.5400821980512873 16.704110957075393 C1.1037174807072792 14.293512992803246, 0.9017597905991097 9.163516346869653, 2.163393402509371 6.633576532968532 C3.4250270144196318 4.103636719067412, 6.454519248225587 2.8212337178264235, 9.109883869512855 1.5244720736686688 C11.765248490800122 0.22771042951091425, 16.85228734770111 -1.0881637019073083, 18.09558113023298 -1.1469933319779955 C19.338874912764847 -1.2058229620486827, 17.267860067853455 0.7139212578014389, 16.56964656470407 1.171494293244546" stroke="#000000" stroke-width="1" fill="none"></path></g><g><g transform="translate(854.6635780336335 661.7499643961585) rotate(0 4.145110920307616 9.680073195062619)"><path d="M0.47904237844049913 1.4546497013419861 C2.6927462399419935 4.56402791601916, 8.882779205549157 17.28642944358289, 10.995652098829623 19.584140660986304 M-2.7054302582144736 -0.22399427086114887 C-0.7487422281834686 2.0475163651506105, 5.765486746264893 12.888793999453386, 8.212469881276366 15.795317147672176" stroke="#000000" stroke-width="1" fill="none"></path></g></g><g><g transform="translate(855.9968910219147 651.0833079020179) rotate(0 57.85860271385559 -24.782017929864082)"><path d="M1.4546497013419861 -1.004266520962119 C20.78623996571533 -8.446913579395975, 98.39748969206374 -37.156567511914, 116.91741295916331 -44.17683997216263 M-1.200207531452179 -4.017750728130341 C17.878039394749525 -12.356674669848449, 95.9894251555866 -41.319807799391775, 115.90124874194456 -48.55976933876613" stroke="#000000" stroke-width="1" fill="none"></path></g><g transform="translate(855.9968910219147 651.0833079020179) rotate(0 57.85860271385559 -24.782017929864082)"><path d="M91.56801026357745 -25.962556743341167 C102.21669227239089 -38.861916004944725, 111.34642377285971 -46.08804442497721, 112.23830543463421 -46.496156516322884 M92.62829214191471 -29.09600752526768 C96.81727862718229 -33.66344013441101, 101.24783978340075 -37.15086358070842, 114.54311077860487 -47.23739770876804" stroke="#000000" stroke-width="1" fill="none"></path></g><g transform="translate(855.9968910219147 651.0833079020179) rotate(0 57.85860271385559 -24.782017929864082)"><path d="M84.4668571723444 -45.2159623423699 C97.54708496961162 -51.77505900133806, 109.04248227845395 -52.58714131713982, 112.23830543463421 -46.496156516322884 M85.52713905068167 -48.34941312429641 C91.24170077460188 -48.88835885970531, 97.2086944260652 -48.210042231619894, 114.54311077860487 -47.23739770876804" stroke="#000000" stroke-width="1" fill="none"></path></g></g><g transform="translate(983.1635780336335 584.2499847412112) rotate(0 71.5 13)"><text x="71.5" y="19" font-family="Virgil, Segoe UI Emoji" font-size="16px" fill="#000000" text-anchor="middle" style="white-space: pre;" direction="ltr">popup search menu</text></g></svg>