<svg version="1.1" xmlns="http://www.w3.org/2000/svg" viewBox="0 0 1185.2334899902344 2005.0999633789052">
  <!-- svg-source:excalidraw -->
  <defs>
    <style>
      @font-face {
        font-family: "Virgil";
        src: url("https://excalidraw.com/FG_Virgil.woff2");
      }
      @font-face {
        font-family: "Cascadia";
        src: url("https://excalidraw.com/Cascadia.woff2");
      }
    </style>
  </defs>
  <rect x="0" y="0" width="1185.2334899902344" height="2005.0999633789052" fill="#ffffff"></rect><g transform="translate(10 48.96666259765516) rotate(0 436.40000915527344 973.066650390625)"><path d="M-0.938397577404976 -1.38945891559124 C182.77342296633287 -0.23993949355605515, 364.0985461223754 0.15745955048081006, 873.058344194293 -0.7512656897306442 M0.025057519972324374 -0.04845341593027115 C330.54492126656817 3.400351972147975, 659.8855995273242 2.1467124171705576, 872.9711362496018 -0.7659638777375222 M872.8183852404356 0.19007265865802767 C879.1653662523594 720.0613930413465, 877.271963485178 1438.3159440148554, 871.3343683451415 1946.5438206940892 M872.7378625527024 -0.3205869093537331 C863.4740294243416 414.76185064380627, 862.8061517979224 828.4107539562435, 873.4822277203202 1945.8637199506165 M873.5982423990965 1946.0082791596653 C626.108976449697 1951.3274804733885, 378.5085990501022 1949.2400345467224, 1.350947305560112 1944.9106874734166 M872.7609047070146 1946.0805446729066 C566.128798066292 1940.5733641934253, 257.61877547097953 1939.9453990769243, 0.4768473282456398 1946.4306825265292 M-1.50556438267231 1946.2349848061801 C-12.48357657372014 1431.0202859826597, -13.591450776448411 916.9038568124596, 0.7482544153928757 0.5888854295015336 M-0.4016656264662743 1946.1318456277254 C3.6586664927744352 1303.4038751244407, 4.293678881003805 660.0207883491837, 0.7107445850968361 -0.44813279062509537" stroke="#000000" stroke-width="1" fill="none"></path></g><g transform="translate(18.066752115885322 46.83332824707031) rotate(0 436.6666412353517 180.00001271565725)"><path d="M-0.6425793424248696 -0.3474381908774376 C214.26131729657473 -2.1492649964650883, 428.2754907300079 -1.5943425587972415, 872.5693035826089 -1.2249072059988977 M-0.46582813188433647 0.41024581119418146 C201.96635653102948 5.987907800304574, 404.33633492563274 6.896926149952096, 874.1127644784751 0.7759971491992474 M872.4846986281076 -1.0549276547539295 C874.430597971668 133.73682716519718, 877.9293432789655 265.0336066002104, 875.5312436470329 359.58777369978856 M873.7462750619084 -0.2765755420000648 C869.8432290292399 116.7334667939366, 870.4856877197228 231.74297907278805, 872.0977732160918 361.0711400597377 M873.0127104029061 360.8657407934461 C626.9590109637643 357.7227921745372, 380.238537537806 356.82428138466594, 0.7319511160254479 360.8123470957074 M873.9666687496009 359.7890940936897 C678.5095659987363 361.6589152757881, 482.64206362018615 361.6938934032677, 0.452208686619997 359.76553726519086 M-2.4998934829806054 361.5475031819659 C0.5207512288020952 279.3411355408721, 0.8843995989589708 196.34687352846655, 1.852798991929048 1.2840617392129703 M0.8159232851017707 360.1126448302897 C-4.01746535867194 222.6890137131154, -3.2725890726196996 87.01594317864621, -0.22105166156083564 -0.7829413715371516" stroke="#000000" stroke-width="1" fill="none"></path></g><g transform="translate(326.0667826334633 133.33341471354106) rotate(0 118.53838054950506 22.333318074544422)"><text x="0" y="32.66663614908885" font-family="Virgil, Segoe UI Emoji" font-size="27.48716070713159px" fill="#000000" text-anchor="start" style="white-space: pre;" direction="ltr">Hamsa Handmade.</text></g><g transform="translate(136.73338826497388 242.6666056315089) rotate(0 44 13)"><text x="0" y="19" font-family="Virgil, Segoe UI Emoji" font-size="16px" fill="#000000" text-anchor="start" style="white-space: pre;" direction="ltr">Categories</text></g><g transform="translate(306.0667826334634 244.00002034505178) rotate(0 16.5 13)"><text x="0" y="19" font-family="Virgil, Segoe UI Emoji" font-size="16px" fill="#000000" text-anchor="start" style="white-space: pre;" direction="ltr">DIY</text></g><g transform="translate(431.4001363118489 244.00002034505087) rotate(0 16.5 13)"><text x="0" y="19" font-family="Virgil, Segoe UI Emoji" font-size="16px" fill="#000000" text-anchor="start" style="white-space: pre;" direction="ltr">Blog</text></g><g transform="translate(536.7333882649738 245.33333333333303) rotate(0 35.50000000000006 13)"><text x="0" y="19" font-family="Virgil, Segoe UI Emoji" font-size="16px" fill="#000000" text-anchor="start" style="white-space: pre;" direction="ltr">About me</text></g><g transform="translate(691.4001363118489 245.33333333333303) rotate(0 37 13)"><text x="0" y="19" font-family="Virgil, Segoe UI Emoji" font-size="16px" fill="#000000" text-anchor="start" style="white-space: pre;" direction="ltr">Contacts</text></g><g transform="translate(18.066752115885322 404.8333511352539) rotate(0 436.6666412353517 201.33331934610987)"><path d="M-0.5363771215081216 -0.2600323185324669 C281.7797896796379 -0.8572657742462853, 560.4448074939675 -1.741225782867501, 872.5448386892679 -1.3697736725211145 M-0.3071731083095074 -0.35311120823025705 C330.2738645441365 4.0618949756746305, 660.3116900688968 3.6263164625291835, 874.0245704419913 -0.4383379586040974 M873.486755578724 1.158403696962435 C878.8114108512632 88.52398883832683, 879.1862393822395 179.0331123607112, 872.3066354820165 401.7332765236699 M872.5692817173024 -0.7777886357285537 C872.4382214693496 122.80619513790309, 874.0583352858189 246.61998304736852, 873.7524310285353 401.79114916761665 M874.5706155046823 401.96952188958693 C543.6194932400919 401.7696793885536, 213.38392120743518 400.2336533398933, -0.6855374589562416 402.2879574154811 M874.094247723371 402.4203502131002 C661.1721767506151 407.3909195391589, 449.5368252907988 407.8384297100955, -0.49313561841845516 403.31720201497245 M-1.6693207702841477 401.9748709496289 C3.6565543175899076 274.41689092803165, 5.229925520715172 147.8466894347241, -0.7075473867463867 -1.113834502234104 M0.8737670008317381 401.8392998498609 C3.0544634605961045 283.5487318818203, 3.712386988257557 161.7511758149182, 0.42424638245568735 0.09581136069118998" stroke="#000000" stroke-width="1" fill="none"></path></g><g transform="translate(246.0667826334634 476.8333079020176) rotate(0 90 42.66667683919286)"><path d="M-2.9694274105131626 -1.230532880872488 C58.14574082009495 1.419734800234437, 118.14292427897455 3.883056366816163, 178.74139791354537 -1.9813152514398098 M1.5542774815112352 -1.471689971163869 C53.74514181911946 5.254666902124882, 108.60721167735757 2.253517784178257, 180.75465953536332 0.17043152265250683 M182.86633783206344 0.9934915341436863 C176.2718997469974 18.337893888732548, 175.80040519152408 39.731006112706176, 179.16096061095595 88.06300513322185 M178.10517633147538 -1.033303352072835 C181.6374463768085 33.996659051257204, 178.9331025214275 64.62589322887924, 180.4530212301761 85.12115550848375 M181.62833827361465 86.85015933091472 C118.88638726808131 85.54883505019079, 50.357262037694454 86.35196221979986, 3.7873981557786465 82.82973126942943 M180.34691876359284 83.44899106832872 C109.54031221941113 84.46461093301605, 38.71020904742181 83.434245048712, -1.2971167545765638 84.21049351307283 M3.965377625077963 82.07669381673168 C-3.153988472167181 69.91904556034308, -4.147051325980352 50.93632787646424, -1.1406419910490513 -3.929549928754568 M-0.3329830151051283 83.91023153873812 C-0.8628527791270535 67.93697857467932, -2.606278207994394 48.497933908350014, -0.24691408686339855 1.2101130168884993" stroke="#000000" stroke-width="1" fill="none"></path></g><g transform="translate(258.0668029785154 576.8332824707031) rotate(0 81.3333129882813 91.3333511352539)"><path d="M-3.641649905592203 -2.0825928412377834 C52.001146298810546 4.819027477292356, 108.68574777054728 2.6133312521260352, 166.50951736792933 -3.789647337049246 M-1.2904517631977797 0.6029386799782515 C40.84881052854686 -3.4414263857350216, 81.77371925889014 -2.317325641010748, 161.1158152241261 0.8141691368073225 M158.70241993293178 3.8100678957998753 C168.0301210539164 59.22313543551451, 167.88542016909736 120.0934821805514, 162.48914247378718 183.3605397976935 M162.16111046262097 -1.7393734771758318 C161.24611775268136 36.46663532279154, 160.96019468892632 76.26392029158215, 161.2896083611996 184.6493910830468 M159.44538122043025 185.961079005152 C125.96974298375883 181.52801807249654, 88.2495330612964 188.58424659098256, -0.09779507294297218 182.00073624029756 M161.39439761824917 182.93161812238395 C125.19444793718154 185.75365095504276, 89.58153629627503 183.6120847380971, 1.8225800413638353 184.42787894420326 M3.8336939178407192 182.90581035986543 C-0.3936380502750678 114.06904481461646, 2.1312548759410577 42.30796667781476, 3.5432603918015957 -3.277627345174551 M-1.6581562142819166 181.80808266811073 C-1.601498230729716 118.94870292392642, -4.527943297658579 58.18194212200285, 0.5292444247752428 -0.8423716742545366" stroke="#000000" stroke-width="1" fill="none"></path></g><g transform="translate(436.73348999023415 478.1666971842442) rotate(0 113.999989827474 64.66667175292969)"><path d="M-1.9013157142639876 2.9280202444777172 C49.953294625996 5.979071808030428, 104.43067500828808 -0.18513106495524312, 225.18014315528356 2.668006202689986 M0.4020741725919222 0.9845355098761809 C66.75696494913696 2.9947834806597213, 135.47443137331683 3.801323656327268, 229.16511305400644 -0.7948124004269184 M226.22649762655305 0.24900734797120094 C234.1114622499243 50.82512966894704, 228.26434971349394 103.44190521868265, 228.51145396257448 130.7096469439566 M229.73793784963595 0.9800157826393843 C224.22229092407778 49.39792628395027, 227.45361982870654 99.13202750486565, 226.64670727836597 129.52245351485908 M228.72018951919398 127.58044044857989 C152.77146054420723 135.82596167797456, 82.14103279269206 131.79373538232136, -1.442024143856601 130.48313533842312 M228.51090471425363 128.30864668107372 C142.50705071089868 131.4017198445166, 54.82643377858685 132.75226777858182, 0.043249126990616255 128.124656655444 M1.2497063241899014 125.90731847658753 C-1.722846202016902 81.90218952478496, 3.8825940569628954 39.98580950486715, 3.5563835464417934 -1.8098297081887722 M-1.609663126990199 129.28454056195915 C-1.6689009832749857 97.66553434178239, -2.02230794900756 66.96171786464762, 0.6503674406558275 1.8867278974503279" stroke="#000000" stroke-width="1" fill="none"></path></g><g transform="translate(432.73344930013013 623.4999491373701) rotate(0 80.66665649414062 66.00001017252634)"><path d="M3.146345380693674 -2.762128535658121 C53.598908793021074 1.7634594685134344, 113.66939594192074 -0.2995038979950495, 165.08713710680604 0.8440253101289272 M1.7624516170471907 -0.6979935150593519 C39.269535286256115 -2.0120204442889245, 81.83054160866328 -2.7399047964961083, 163.2292877715081 0.5987611431628466 M161.66509330645204 -0.6322615779936314 C163.23626826062187 28.841381128823915, 165.39978132500633 63.454851563912946, 158.38597917929292 133.2497266692426 M163.3089391272515 1.4493542332202196 C162.01974052574352 27.389206910257855, 159.09662676241115 58.05885885792537, 161.40586980991066 130.3903572180625 M161.0926890410483 132.84146346276066 C114.62773100425878 135.33523748522657, 61.80535490716652 131.34006128912824, 1.3345137871801853 134.31504131977817 M160.95263847522438 132.46060057667455 C128.21254494017873 129.24132546234713, 94.57459183176881 130.63671305227862, 1.573889760300517 133.23263981131277 M3.4424382485449314 133.93671585743687 C-0.5877498745462506 97.72837975202745, -0.8122144102594464 56.490681921764505, 1.460328821092844 3.5325229726731777 M-0.8843922335654497 133.5025139072295 C-0.28562397707301157 98.02454283664278, 2.1903902197996996 63.331668888248444, 1.2419535797089338 -1.6587538700550795" stroke="#000000" stroke-width="1" fill="none"></path></g><g transform="translate(359.40011596679676 422.0000050862627) rotate(0 72 20)"><text x="0" y="29" font-family="Virgil, Segoe UI Emoji" font-size="25.02564415564926px" fill="#000000" text-anchor="start" style="white-space: pre;" direction="ltr">Categories.</text></g><g transform="translate(286.0667826334634 512.6666717529297) rotate(0 33.5 13)"><text x="0" y="19" font-family="Virgil, Segoe UI Emoji" font-size="16px" fill="#000000" text-anchor="start" style="white-space: pre;" direction="ltr">earrings.</text></g><g transform="translate(299.40011596679676 652.6666463216143) rotate(0 39 13)"><text x="0" y="19" font-family="Virgil, Segoe UI Emoji" font-size="16px" fill="#000000" text-anchor="start" style="white-space: pre;" direction="ltr">necklaces.</text></g><g transform="translate(512.7334493001301 528.6666056315098) rotate(0 39 13)"><text x="0" y="19" font-family="Virgil, Segoe UI Emoji" font-size="16px" fill="#000000" text-anchor="start" style="white-space: pre;" direction="ltr">bracelets.</text></g><g transform="translate(493.40010579427076 676.4999593098964) rotate(0 20 13)"><text x="20" y="19" font-family="Virgil, Segoe UI Emoji" font-size="16px" fill="#000000" text-anchor="middle" style="white-space: pre;" direction="ltr">rings.</text></g><g transform="translate(370.4000956217445 824.1666361490884) rotate(0 56 20)"><text x="0" y="29" font-family="Virgil, Segoe UI Emoji" font-size="25.02564415564926px" fill="#000000" text-anchor="start" style="white-space: pre;" direction="ltr">My story.</text></g><g transform="translate(108.73351033528627 876.0000203450518) rotate(0 340.00000000000006 89)"><text x="340" y="21.666666666666668" font-family="Virgil, Segoe UI Emoji" font-size="19.04762010450488px" fill="#000000" text-anchor="middle" style="white-space: pre;" direction="ltr">Lorem ipsum dolor sit amet, consectetur adipiscing elit, </text><text x="340" y="51.333333333333336" font-family="Virgil, Segoe UI Emoji" font-size="19.04762010450488px" fill="#000000" text-anchor="middle" style="white-space: pre;" direction="ltr">sed do eiusmod tempor incididunt </text><text x="340" y="81" font-family="Virgil, Segoe UI Emoji" font-size="19.04762010450488px" fill="#000000" text-anchor="middle" style="white-space: pre;" direction="ltr">ut labore et dolore magna aliqua. Ut enim ad minim veniam, quis nostrud </text><text x="340" y="110.66666666666667" font-family="Virgil, Segoe UI Emoji" font-size="19.04762010450488px" fill="#000000" text-anchor="middle" style="white-space: pre;" direction="ltr">exercitation ullamco laboris nisi ut aliquip ex ea commodo consequat. </text><text x="340" y="140.33333333333334" font-family="Virgil, Segoe UI Emoji" font-size="19.04762010450488px" fill="#000000" text-anchor="middle" style="white-space: pre;" direction="ltr">Duis aute irure dolor in reprehenderit in voluptate velit </text><text x="340" y="170" font-family="Virgil, Segoe UI Emoji" font-size="19.04762010450488px" fill="#000000" text-anchor="middle" style="white-space: pre;" direction="ltr">esse cillum dolore eu fugiat nulla pariatur. </text></g><g transform="translate(18.066752115885322 808.1666717529297) rotate(0 433.3333079020183 139.9999872843423)"><path d="M1.4948993429541588 0.2861837401986122 C199.84849623824883 -4.8319472208276055, 400.6217937561021 -4.526705874468353, 865.8470934455595 -0.7637660488486291 M0.17861116006970407 -0.6606922753155232 C230.68036624443607 -2.9371039355344877, 460.9101250214294 -2.273130294138919, 866.734008630862 0.3191436879336834 M868.1161370830838 -2.0155680343971794 C866.7469490171725 102.91515068110887, 865.6863478068422 209.7284768819575, 867.6999850198079 281.7483110720405 M868.1870446325163 -1.473758603583656 C869.8936666991594 59.24157287975251, 870.0241137220827 115.69797448635487, 867.1019771485823 280.46471516510576 M866.8928150241575 280.46252902497815 C674.266367952217 283.3283477555815, 478.1981957215851 281.8478316556517, -0.9282645955681801 281.33968189706377 M866.7311769095561 279.62909910206963 C595.0293724674326 285.52953783431116, 323.3245658585612 285.8973521129138, -0.7638187877833844 280.10326947693994 M-2.8897751765583797 277.53189966727143 C-5.541728036704276 178.84642846095795, -5.349507475873784 75.03702283646436, 0.1949982937828732 -1.4542813428233048 M0.11177758182932099 278.5401286338659 C-1.157933172620144 203.20014286715693, -1.4615376539137117 126.43219956408369, 0.1053012246948701 -1.295023877219394" stroke="#000000" stroke-width="1" fill="none"></path></g><g transform="translate(375.7333984374998 1111.5833892822266) rotate(0 65 20)"><text x="0" y="29" font-family="Virgil, Segoe UI Emoji" font-size="25.02564415564926px" fill="#000000" text-anchor="start" style="white-space: pre;" direction="ltr">My Mission.</text></g><g transform="translate(114.06681315104152 1163.4167734781895) rotate(0 340 89)"><text x="340" y="21.666666666666668" font-family="Virgil, Segoe UI Emoji" font-size="19.04762010450488px" fill="#000000" text-anchor="middle" style="white-space: pre;" direction="ltr">Lorem ipsum dolor sit amet, consectetur adipiscing elit, </text><text x="340" y="51.333333333333336" font-family="Virgil, Segoe UI Emoji" font-size="19.04762010450488px" fill="#000000" text-anchor="middle" style="white-space: pre;" direction="ltr">sed do eiusmod tempor incididunt </text><text x="340" y="81" font-family="Virgil, Segoe UI Emoji" font-size="19.04762010450488px" fill="#000000" text-anchor="middle" style="white-space: pre;" direction="ltr">ut labore et dolore magna aliqua. Ut enim ad minim veniam, quis nostrud </text><text x="340" y="110.66666666666667" font-family="Virgil, Segoe UI Emoji" font-size="19.04762010450488px" fill="#000000" text-anchor="middle" style="white-space: pre;" direction="ltr">exercitation ullamco laboris nisi ut aliquip ex ea commodo consequat. </text><text x="340" y="140.33333333333334" font-family="Virgil, Segoe UI Emoji" font-size="19.04762010450488px" fill="#000000" text-anchor="middle" style="white-space: pre;" direction="ltr">Duis aute irure dolor in reprehenderit in voluptate velit </text><text x="340" y="170" font-family="Virgil, Segoe UI Emoji" font-size="19.04762010450488px" fill="#000000" text-anchor="middle" style="white-space: pre;" direction="ltr">esse cillum dolore eu fugiat nulla pariatur. </text></g><g transform="translate(15.400100708007585 1094.8333765665689) rotate(0 433.3333079020183 139.9999872843423)"><path d="M-0.7248719468712808 -1.4937474235892296 C228.38675697008958 -3.640623872428079, 454.959785728359 -3.7413548161078882, 865.1057370727262 -1.1772390827536583 M-0.4969394437968731 -0.5638915188610554 C210.42195225193458 -2.2289984785359596, 421.36127928091804 -1.1987330280583592, 867.1125367013118 0.24763237163424492 M864.4555087160746 0.950778543925799 C868.128635489958 79.94233853358541, 864.7570370475836 161.18278896585207, 868.9232483444266 280.9798687773994 M866.9655092077126 -0.09390891627652888 C866.0234298637719 106.36492159534986, 866.9941419458585 213.69867934638177, 866.2780310416836 280.52878819797235 M866.0444731776914 280.55325826158094 C570.3502664365451 285.7052891012577, 274.5997837554572 283.3514178987888, -0.03666808754205704 279.59472082604935 M866.9131244746349 280.0200130177038 C627.7940178027608 279.24435752081683, 390.64246560476346 279.9199675147515, -0.15699176713824273 279.4503830385702 M2.8830086066003013 280.8900889966 C0.6862600795340739 188.52178221246044, 0.48742749397112983 95.52843903965794, 1.66222019893778 -1.5355336679798808 M1.4225509395452345 279.37022049666234 C0.9053780424701352 176.23098396086303, 1.8566102863290161 71.18567552266364, 1.332461302908138 -1.021003751369189" stroke="#000000" stroke-width="1" fill="none"></path></g><g transform="translate(10.733454386393191 1380.5000038146954) rotate(0 436.6666412353516 201.33331934610987)"><path d="M1.235520173609257 1.3943002924323082 C288.97738859856344 -0.45931539782551534, 579.7335163618966 0.4386407350632787, 873.6913443103435 0.80306126922369 M-0.6185956604778767 0.5688730724155903 C248.74664624079034 -2.8914666999789804, 498.3225685314628 -3.2024675477954476, 873.1847907178106 0.15459611490368844 M875.5690734609109 0.8635976856508141 C877.2336909597713 125.90148943853195, 875.1983364451505 252.78808002585413, 872.0563861376678 401.83994700360654 M872.2511576454633 -0.7297194928605215 C872.9113787112377 116.09087519028147, 874.9219861351462 234.21433523179095, 873.7082521861618 403.2287091586106 M874.1754101768138 403.4131403510766 C675.221199468677 409.98431390232264, 477.3598613801691 409.0834083408755, -0.9984623417258263 401.0909412448602 M873.6260063044729 403.13881858264375 C595.0888208832685 399.15963893969257, 316.1972279608433 399.2124976499816, 0.08665434047579766 403.15830779944827 M-2.242905114912023 404.6933833167833 C1.9409023768849172 254.37968570274, 1.897960731978819 105.8634932881299, 1.8861941746757873 -0.45217806486461803 M-1.0419768008267554 401.5626432806408 C-1.5207017522985273 308.2223804908653, -2.466172906688132 213.31299268584644, -0.2555484729068782 0.6616123127031013" stroke="#000000" stroke-width="1" fill="none"></path></g><g transform="translate(327.40009562174464 1393.8334350585938) rotate(0 133 20)"><text x="0" y="29" font-family="Virgil, Segoe UI Emoji" font-size="25.02564415564926px" fill="#000000" text-anchor="start" style="white-space: pre;" direction="ltr">Get in touch with me.</text></g><g transform="translate(208.7334086100259 1455.1666463216143) rotate(0 98.66668701171875 12.000020345052235)"><path d="M-0.8299061693251133 3.5993005074560642 C39.55209502171141 2.146132215116279, 86.57648741758192 -3.1780027307531666, 199.15729015693069 2.255679849535227 M1.5576207656413317 -0.08802172727882862 C77.65183550071748 -2.2097567784108945, 158.77046620564226 -1.8494347202100583, 196.1126456875354 -1.77750233002007 M199.60238998755813 -0.3303959332406521 C201.14344213646788 1.628657302197408, 195.63036356610198 12.835028805457734, 199.0652294717729 22.394387288640246 M195.92832666821778 0.9591161888092756 C199.2320220808829 5.9394599225568605, 197.3321921567763 12.951997793877688, 199.07447898574173 24.877676077808246 M199.75022798404098 23.957572980473742 C132.84159103426924 24.77107186542961, 73.4764683362065 27.99597103821251, -1.6829934753477573 24.221992178509936 M198.6488727349788 24.438345499957904 C130.56470541992888 25.731973989091976, 62.71259567629011 24.32369939812289, -1.0832689385861158 25.525106199706897 M1.703817781060934 20.988150282452807 C-3.1437641542514165 19.9570456128179, -2.055608288582166 10.604167414130258, 2.8844230733811855 1.9861751832067966 M1.4798180479556322 24.297033556426868 C0.33868289469363105 17.072809144071908, 1.941885654913205 4.4758716427276894, 1.1155371684581041 0.0946586411446333" stroke="#000000" stroke-width="1" fill="none"></path></g><g transform="translate(444.4000651041665 1454.500091552734) rotate(0 106.000010172526 12.000020345052235)"><path d="M3.244514480710548 1.9966713466406396 C44.4677403060141 0.3054832503348015, 86.5308747530932 -4.545873543663913, 214.45597528993474 1.5239849365956057 M0.33328868966301106 -1.2364028456396035 C55.934038001098344 -1.799963279920211, 110.38833481988924 -3.4717611134027266, 213.36079989009139 1.532124253287925 M214.59972652172053 2.4168539606034756 C212.03862473662977 6.294364872969567, 210.2870796650279 17.715390037044642, 213.43090673660242 22.317047214756712 M212.17887132180238 1.315498711541295 C212.65676114367628 8.744659760995127, 213.5974569659152 16.40587838186009, 211.9707463861754 22.916771751518354 M213.07269489774905 25.499353254288945 C129.5839379599523 22.807573608625084, 55.70838835339667 23.765120700411533, 1.8069938294074122 26.538253286789033 M212.16200117617893 25.302239679144996 C138.13463027560874 22.601792152263823, 65.39222466882255 24.012566278494443, -1.6978335780524774 24.981682571692623 M-1.3128826580941677 25.84125182653497 C-3.2013778851155847 20.334760916868163, -4.104816572440109 11.132282305785342, 2.2735542096197605 2.7352525554597378 M-1.1542241889983416 24.44421355115901 C0.4347753403967705 17.496307359629963, 1.4788227556532707 6.683412841074549, -0.09526309557259083 1.5551136154681444" stroke="#000000" stroke-width="1" fill="none"></path></g><g transform="translate(205.40012613932265 1500.4999491373692) rotate(0 225.33335367838544 14.00004069010447)"><path d="M1.7106219745267612 0.17247055120511845 C117.50685291194975 -1.5550356854128946, 233.83769068091033 -0.6478987498150965, 452.34416281369886 -0.028229623987324603 M0.3654313204398758 0.2938749630085801 C111.20110863853246 -1.67615350475003, 220.8666487164474 -0.062459650409329326, 450.21499033521576 0.49505252402857675 M449.0331047413249 0.3681498132646084 C453.90440878650776 11.01311216644812, 451.23007318756214 24.578541896340617, 454.15841337417555 24.141247527053572 M450.89722554696095 -0.6564413290470839 C451.6138174215399 8.513164307415945, 452.5173733512007 18.023225952790106, 451.5464309335996 29.136858485018827 M450.27448945028436 26.887033603182807 C285.0778407762742 30.757613406329387, 120.09996821836387 31.764414914855738, -1.2201370165441672 27.90821675133497 M451.1917449883532 27.68974130679509 C279.83087805489293 25.996540884746366, 109.74712049273191 26.516471874098574, -0.38151748015892656 28.457514889408635 M3.3379638232290745 26.85179247086308 C2.9254443006897035 21.736637770533317, -3.5687536639785704 12.927448493787537, 3.2146228589117527 -2.9399774707853794 M-0.8092830497771502 27.097985587393858 C-1.4223302171861787 20.54784592345822, 1.3873116804921966 14.928616369996213, 0.5152114909142256 1.7738779205828905" stroke="#000000" stroke-width="1" fill="none"></path></g><g transform="translate(201.40008544921875 1553.8332824707027) rotate(0 232.00002034505212 72.00002034505223)"><path d="M0.9135188956470132 1.2244804332313224 C116.7135952872968 -2.9085202196743842, 236.29115607991528 -2.8046495332344676, 464.13126143896824 1.7203037938541907 M0.04353717539772975 0.5828650359226141 C179.8098298050139 -2.682608405847267, 359.8310332796285 -3.0469605331723235, 464.83904321672475 -0.8740381421802185 M465.37614528710645 1.9450018964707851 C464.82354472485576 47.22557537200449, 466.5253459056953 100.40439942737218, 467.04392675931257 147.42448744798727 M462.88937295290333 -1.042342422530055 C464.9517838454299 33.44638700891696, 462.63107753754184 68.7222277227126, 463.0962603768955 145.62054179298408 M464.06775880063844 145.41620089789032 C344.6925881459832 141.91584614133788, 223.6696236097852 142.9571851800758, -1.631927472635584 143.85554664274454 M464.5853360595082 143.67637697741498 C287.13817942972565 139.6877109609122, 110.53045783203906 139.3625953214247, 0.8019615552086614 143.3630622318619 M0.7464594878256321 144.34597752119132 C0.16238846706310817 94.45903038044477, -2.4512781865700095 51.24645686640723, 0.17877495661377907 -2.354069296270609 M0.35582527332007885 144.0418091236306 C2.0922167411466868 107.3308427155728, 3.718367885651234 68.67712919142613, 1.1103163044899702 0.07833403535187244" stroke="#000000" stroke-width="1" fill="none"></path></g><g transform="translate(218.23348999023426 1456.3334554036455) rotate(0 18.5 13)"><text x="18.5" y="19" font-family="Virgil, Segoe UI Emoji" font-size="16px" fill="#000000" text-anchor="middle" style="white-space: pre;" direction="ltr">name</text></g><g transform="translate(453.40007527669275 1451.0001017252603) rotate(0 22 13)"><text x="22" y="19" font-family="Virgil, Segoe UI Emoji" font-size="16px" fill="#000000" text-anchor="middle" style="white-space: pre;" direction="ltr">e-mail</text></g><g transform="translate(218.5667826334635 1502.6667175292969) rotate(0 27.5 13)"><text x="27.5" y="19" font-family="Virgil, Segoe UI Emoji" font-size="16px" fill="#000000" text-anchor="middle" style="white-space: pre;" direction="ltr">subject</text></g><g transform="translate(216.7334086100259 1552.333262125651) rotate(0 32 13)"><text x="32" y="19" font-family="Virgil, Segoe UI Emoji" font-size="16px" fill="#000000" text-anchor="middle" style="white-space: pre;" direction="ltr">message</text></g><g transform="translate(362.066640218099 1712.1666768391924) rotate(0 43.99998982747394 18.666636149088617)"><path d="M3.000749047845602 1.1572885550558567 C27.661113247292196 3.234958192620458, 53.007936034385274 4.445952793870153, 84.55776832128561 1.0167127884924412 M-0.20819073729217052 -1.5750798303633928 C22.756132874093623 -0.25517509842174535, 43.7023309514218 2.9204374108288955, 86.82449595319724 -1.7737672049552202 M84.76187083745992 -2.7507289610803127 C91.91388860556836 5.102582274583224, 84.66969660136456 17.079066270256526, 90.74621377016103 40.80024775241827 M86.43377129423118 1.556219844147563 C88.68627688810213 12.136888441443535, 89.6077226750551 28.660456742719, 87.84257886993385 35.43997888577496 M86.99001965547598 37.55413778995489 C55.32990451425161 34.52211514629144, 26.608933507548734 36.00016144431848, 1.5182633958756924 37.42565461372351 M87.63097713577247 37.21266918194806 C52.516105767233064 39.12096082998544, 21.352469216198543 37.62013977600366, -1.0789064150303602 37.441712367658965 M-2.2675632871687412 35.785837375869505 C-0.5599238017759938 31.809614309464635, -2.5107426980696337 23.410909706194527, -1.7390385307371616 -1.1289172135293484 M0.6342202443629503 35.778687942152374 C-1.5266456687895573 23.114606242122623, -2.055658408447913 10.039298269509864, -0.7028790097683668 -0.6726805288344622" stroke="#000000" stroke-width="1" fill="none"></path></g><g transform="translate(382.56673177083326 1717.1666564941406) rotate(0 23.5 13)"><text x="23.5" y="19" font-family="Virgil, Segoe UI Emoji" font-size="16px" fill="#000000" text-anchor="middle" style="white-space: pre;" direction="ltr">submit</text></g><g><g transform="translate(907.4001973470051 62.166656494140625) rotate(0 1.5032623036549921 169.33625812269747)"><path d="M2.6095107462257143 -2.706768938526511 C3.073541450459121 53.856990066543226, 2.1981011641937434 284.29613823431237, 2.0897796497992203 341.37928518392147 M0.5815780806541442 1.9955312561988832 C0.8038534288936443 57.66650107940037, 0.2773987152842621 282.3615602580706, 0.26247923930501216 337.84117021799085" stroke="#e67700" stroke-width="4" fill="none"></path></g></g><g><g transform="translate(911.4000345865886 219.50000508626272) rotate(0 95.04779815413053 1.56481171663836)"><path d="M-1.882225367054343 -2.500693080201745 C30.48650189973414 -1.6429001265515883, 159.67987573482097 2.067751243337989, 191.9778216753155 3.1734759952872995 M2.2914709344506266 2.313476866185665 C34.72858568499486 3.6368315268556275, 159.6415315817793 4.917139770289262, 191.1753037419915 5.630316513478756" stroke="#e67700" stroke-width="1" fill="none"></path></g><g transform="translate(911.4000345865886 219.50000508626272) rotate(0 95.04779815413053 1.56481171663836)"><path d="M159.25083091634366 19.21409734216821 C166.11894172361698 17.332618324884642, 173.73360524413872 11.775584680669068, 191.99125521227717 8.423738672286273 M161.2362190407053 15.884248402615306 C174.18515585048004 13.558811622874787, 181.25567919243363 7.143732426225171, 189.93504936777055 5.311418493166566" stroke="#e67700" stroke-width="1" fill="none"></path></g><g transform="translate(911.4000345865886 219.50000508626272) rotate(0 95.04779815413053 1.56481171663836)"><path d="M159.58066512165107 -1.3044603991265982 C166.08694171557227 1.3277085494207679, 173.62897741593733 0.2887573160943555, 191.99125521227717 8.423738672286273 M161.5660532460127 -4.634309338679501 C174.04566508488477 -0.14567648079636886, 181.00667499560612 0.2519327157788487, 189.93504936777055 5.311418493166566" stroke="#e67700" stroke-width="1" fill="none"></path></g></g><g transform="translate(1108.9000752766926 209.9999796549473) rotate(0 26.5 13)"><text x="26.5" y="19" font-family="Virgil, Segoe UI Emoji" font-size="16px" fill="#e67700" text-anchor="middle" style="white-space: pre;" direction="ltr">Header</text></g><g><g transform="translate(909.7909185085446 405.0528971419981) rotate(0 -2.3844803628292084 684.4494835654275)"><path d="M-0.27570136450231075 -2.7805658910423516 C-0.5490628700082198 226.08105224476503, -2.071460938267258 1142.5166342922175, -2.0793041281400293 1371.679533021897 M-3.8698920330405238 1.8816731008887295 C-4.467158052064448 230.1085192085678, -4.7191783182694 1140.097650875536, -4.260924622937855 1367.796628636047" stroke="#5c940d" stroke-width="1" fill="none"></path></g></g><g><g transform="translate(914.0668640136719 825.1666870117188) rotate(0 108.17429499557863 4.053992414958657)"><path d="M0.841855302080512 -2.002713271602988 C37.23430677250854 -0.5230685955534378, 182.0842680467085 5.7764608893543485, 218.49425173861277 7.95396844483912 M-2.145661747455597 3.0817885708808905 C33.84553846650652 4.882032380898794, 179.4985774662759 8.226452826658885, 216.16269027789426 10.110698101520539" stroke="#5c940d" stroke-width="1" fill="none"></path></g><g transform="translate(914.0668640136719 825.1666870117188) rotate(0 108.17429499557863 4.053992414958657)"><path d="M184.76421688729516 19.11727418015914 C192.51448657526944 17.277308016858026, 205.65846377127914 10.769837249563167, 216.609679870059 10.74530148640275 M187.94970714347056 17.917430022835898 C195.38145096623415 15.378547987045444, 207.80467574570625 14.727964644507022, 217.53970885065687 8.1742239253968" stroke="#5c940d" stroke-width="1" fill="none"></path></g><g transform="translate(914.0668640136719 825.1666870117188) rotate(0 108.17429499557863 4.053992414958657)"><path d="M185.49314903695966 -1.3909841639086125 C192.88576651928759 3.0281169349869392, 205.80743130904926 2.7753301770669445, 216.609679870059 10.74530148640275 M188.67863929313506 -2.5908283212318537 C195.70403734424775 1.5066127094991026, 207.89145272548177 7.490446659778146, 217.53970885065687 8.1742239253968" stroke="#5c940d" stroke-width="1" fill="none"></path></g></g><g transform="translate(1138.2334899902344 818.3333129882812) rotate(0 18.5 13)"><text x="18.5" y="19" font-family="Virgil, Segoe UI Emoji" font-size="16px" fill="#5c940d" text-anchor="middle" style="white-space: pre;" direction="ltr">Body</text></g><g><g transform="translate(902.0667419433594 1774.5000203450518) rotate(0 -2.8021153778078087 108.04076472144607)"><path d="M-0.2872920837253332 -2.2761735055595635 C-0.6269726793591948 33.329657320951526, -2.3717480399334288 179.2563443833346, -2.3425737313924855 215.5905879651761 M-3.8877748569846156 2.6598784956336026 C-4.678913778799253 38.42751291657497, -5.640238522377993 182.45893296842823, -5.216424136087162 218.35770294845165" stroke="#a61e4d" stroke-width="1" fill="none"></path></g></g><g><g transform="translate(902.0667419433596 1890.8324937409234) rotate(0 73.7693762548763 10.269962763542708)"><path d="M0.08845329545438307 2.5290248785167933 C24.053162210476042 5.175983097645863, 121.02931769684773 13.509150579538073, 145.22657755079354 16.422481606487782 M-3.308053414821625 1.4336131453514103 C21.463193779256578 4.3565063698274145, 126.51090296877742 16.76514523147655, 150.84680592457437 19.106312381733805" stroke="#a61e4d" stroke-width="1" fill="none"></path></g><g transform="translate(902.0667419433596 1890.8324937409234) rotate(0 73.7693762548763 10.269962763542708)"><path d="M125.32157885537532 24.188368323881512 C129.431174729988 21.726329694174943, 144.79301194411318 21.16393019878513, 151.430270483742 15.524047962088733 M121.56621450253812 24.995692519162183 C130.7928852250663 25.30481241060955, 140.21107045665988 21.567115989383822, 149.50143605100595 20.75714536074236" stroke="#a61e4d" stroke-width="1" fill="none"></path></g><g transform="translate(902.0667419433596 1890.8324937409234) rotate(0 73.7693762548763 10.269962763542708)"><path d="M127.54953352507758 3.788460961944999 C130.95508788892997 8.495719240123421, 145.53409153044802 15.10120901024247, 151.430270483742 15.524047962088733 M123.79416917224037 4.59578515722567 C132.00914736044692 11.256701414164096, 140.73030587212838 13.901217660174538, 149.50143605100595 20.75714536074236" stroke="#a61e4d" stroke-width="1" fill="none"></path></g></g><g transform="translate(1057.8999532063804 1897.3333231608071) rotate(0 25.5 13)"><text x="25.5" y="19" font-family="Virgil, Segoe UI Emoji" font-size="16px" fill="#a61e4d" text-anchor="middle" style="white-space: pre;" direction="ltr">Footer</text></g><g transform="translate(152.23330688476528 1810.6666056315107) rotate(0 23.269224313589177 18.333328247070312)"><text x="23.269224313589152" y="27.666656494140483" font-family="Virgil, Segoe UI Emoji" font-size="22.564096304086465px" fill="#000000" text-anchor="middle" style="white-space: pre;" direction="ltr">Help.</text></g><g transform="translate(256.5668029785154 1813.8332265218096) rotate(0 41.5 17.5)"><text x="41.5" y="26" font-family="Virgil, Segoe UI Emoji" font-size="22.564096304086465px" fill="#000000" text-anchor="middle" style="white-space: pre;" direction="ltr">Profile.</text></g><g transform="translate(403.89997355143237 1812.3332316080732) rotate(0 56.5 17.5)"><text x="56.5" y="26" font-family="Virgil, Segoe UI Emoji" font-size="22.564096304086465px" fill="#000000" text-anchor="middle" style="white-space: pre;" direction="ltr">Site rules.</text></g><g transform="translate(594.4001159667973 1809.333302815755) rotate(0 55 17.5)"><text x="55" y="26" font-family="Virgil, Segoe UI Emoji" font-size="22.564096304086465px" fill="#000000" text-anchor="middle" style="white-space: pre;" direction="ltr">About me.</text></g><g transform="translate(152.40009562174464 1858.6666564941402) rotate(0 15 13)"><text x="15" y="19" font-family="Virgil, Segoe UI Emoji" font-size="16px" fill="#000000" text-anchor="middle" style="white-space: pre;" direction="ltr">FAQ</text></g><g transform="translate(146.400156656901 1895.9999796549478) rotate(0 37 13)"><text x="37" y="19" font-family="Virgil, Segoe UI Emoji" font-size="16px" fill="#000000" text-anchor="middle" style="white-space: pre;" direction="ltr">Contacts</text></g><g transform="translate(258.23348999023426 1868.00005086263) rotate(0 38.5 13)"><text x="38.5" y="19" font-family="Virgil, Segoe UI Emoji" font-size="16px" fill="#000000" text-anchor="middle" style="white-space: pre;" direction="ltr">My profile</text></g><g transform="translate(255.06676228841127 1940.0001729329429) rotate(0 39 13)"><text x="39" y="19" font-family="Virgil, Segoe UI Emoji" font-size="16px" fill="#000000" text-anchor="middle" style="white-space: pre;" direction="ltr">My orders</text></g><g transform="translate(251.73342895507812 1904.000010172526) rotate(0 49 13)"><text x="49" y="19" font-family="Virgil, Segoe UI Emoji" font-size="16px" fill="#000000" text-anchor="middle" style="white-space: pre;" direction="ltr">My favorites</text></g><g transform="translate(401.233428955078 1870.6666768391924) rotate(0 59.5 13)"><text x="59.5" y="19" font-family="Virgil, Segoe UI Emoji" font-size="16px" fill="#000000" text-anchor="middle" style="white-space: pre;" direction="ltr">Orders/delivery</text></g><g transform="translate(402.73344930013013 1906.6666870117188) rotate(0 50 13)"><text x="50" y="19" font-family="Virgil, Segoe UI Emoji" font-size="16px" fill="#000000" text-anchor="middle" style="white-space: pre;" direction="ltr">Return policy</text></g><g transform="translate(598.5666809082029 1861.3333841959634) rotate(0 27.5 13)"><text x="27.5" y="19" font-family="Virgil, Segoe UI Emoji" font-size="16px" fill="#000000" text-anchor="middle" style="white-space: pre;" direction="ltr">History</text></g><g transform="translate(596.2333475748696 1891.9999898274737) rotate(0 16.5 13)"><text x="16.5" y="19" font-family="Virgil, Segoe UI Emoji" font-size="16px" fill="#000000" text-anchor="middle" style="white-space: pre;" direction="ltr">Blog</text></g><g transform="translate(596.9000142415366 1917.3332926432286) rotate(0 42.5 13)"><text x="42.5" y="19" font-family="Virgil, Segoe UI Emoji" font-size="16px" fill="#000000" text-anchor="middle" style="white-space: pre;" direction="ltr">Who am I?</text></g><g transform="translate(752.9001566569011 360.00004069010447) rotate(0 50.5 13)"><text x="50.5" y="19" font-family="Virgil, Segoe UI Emoji" font-size="16px" fill="#000000" text-anchor="middle" style="white-space: pre;" direction="ltr">Login/Sign up</text></g><g transform="translate(12.566792805989508 10) rotate(0 49.5 13)"><text x="49.5" y="19" font-family="Virgil, Segoe UI Emoji" font-size="16px" fill="#000000" text-anchor="middle" style="white-space: pre;" direction="ltr">Landing page</text></g></svg>